<?xml version="1.0" encoding="utf-8"?>
<!-- Generator: Adobe Illustrator 16.0.0, SVG Export Plug-In . SVG Version: 6.00 Build 0)  -->
<!DOCTYPE svg PUBLIC "-//W3C//DTD SVG 1.1//EN" "http://www.w3.org/Graphics/SVG/1.1/DTD/svg11.dtd">
<svg version="1.1" id="Layer_1" xmlns="http://www.w3.org/2000/svg" xmlns:xlink="http://www.w3.org/1999/xlink" x="0px" y="0px"
	 width="64px" height="64px" viewBox="0 0 64 64" enable-background="new 0 0 64 64" xml:space="preserve">
<polygon fill="#FFBB33" points="51.406,9 43.519,41 43.34,41 35.544,9 25,9 25,9.496 25,9.288 25,37.012 24.561,36.927 11.006,9 
	2,9 2,53 11,53 11,25.032 11.182,25.08 24.479,53 24.52,53 32.934,53 32,53 32,40.147 31.739,23.478 32.162,23.556 40.622,53 
	46.268,53 54.574,23.317 54.734,23.294 54,40.147 54,53 62,53 62,9 "/>
<g>
</g>
<g>
</g>
<g>
</g>
<g>
</g>
<g>
</g>
<g>
</g>
<g>
</g>
<g>
</g>
<g>
</g>
<g>
</g>
<g>
</g>
<g>
</g>
<g>
</g>
<g>
</g>
<g>
</g>
</svg>
