<?xml version="1.0" encoding="utf-8"?>
<!-- Generator: Adobe Illustrator 16.0.0, SVG Export Plug-In . SVG Version: 6.00 Build 0)  -->
<!DOCTYPE svg PUBLIC "-//W3C//DTD SVG 1.1//EN" "http://www.w3.org/Graphics/SVG/1.1/DTD/svg11.dtd">
<svg version="1.1" id="Layer_1" xmlns="http://www.w3.org/2000/svg" xmlns:xlink="http://www.w3.org/1999/xlink" x="0px" y="0px"
	 width="512px" height="512px" viewBox="0 0 512 512" enable-background="new 0 0 512 512" xml:space="preserve">
<g>
	<g>
		<g>
			<defs>
				<path id="SVGID_1_" d="M256.994-0.026C115.602-0.026,0.98,114.596,0.98,255.985C0.98,397.379,115.599,512,256.994,512
					c141.393,0,256.012-114.621,256.012-256.015C513.006,114.596,398.385-0.026,256.994-0.026z M256.994,393.669
					c-76.042,0-137.685-61.642-137.685-137.684c0-76.04,61.643-137.68,137.685-137.68c76.04,0,137.681,61.641,137.681,137.68
					C394.675,332.027,333.028,393.669,256.994,393.669z"/>
			</defs>
			<clipPath id="SVGID_2_">
				<use xlink:href="#SVGID_1_"  overflow="visible"/>
			</clipPath>
			<g clip-path="url(#SVGID_2_)">
				<g>
					<g>
						<g>
							<g>
								<g>
									<path fill="#A7E1C7" d="M256.994,255.985l226.339,43.998c24.301-125.004-57.34-246.038-182.345-270.337
										c-14.999-2.917-28.715-4.236-43.995-4.236L256.994,255.985L256.994,255.985z"/>
								</g>
							</g>
							<g>
								<g>
									<path fill="#7AD3AB" d="M256.994,255.985l135.533,186.543c49.448-35.932,79.143-82.542,90.81-142.544L256.994,255.985z"/>
								</g>
							</g>
							<g>
								<g>
									<path fill="#4EC48F" d="M256.994,255.985L26.977,239.904c-8.883,127.036,86.896,237.216,213.93,246.098
										c55.897,3.905,106.285-10.542,151.616-43.474L256.994,255.985z"/>
								</g>
							</g>
							<g>
								<g>
									<path fill="#22B573" d="M256.994,255.985V25.41c-122.251,0-221.488,92.541-230.017,214.494L256.994,255.985z"/>
								</g>
							</g>
						</g>
					</g>
				</g>
			</g>
		</g>
	</g>
</g>
<g enable-background="new    ">
	<path fill="#CCCCCC" d="M219.839,209.563c1.758,0,3.498,0.199,5.221,0.598s3.146,0.902,4.271,1.512l-1.477,5.309
		c-1.148-0.586-2.35-1.061-3.604-1.424c-1.254-0.363-2.725-0.545-4.412-0.545c-3.656,0-6.604,1.465-8.842,4.395
		c-2.238,2.93-3.357,6.75-3.357,11.461v0.809c1.5-1.312,3.217-2.338,5.15-3.076s4.013-1.107,6.24-1.107
		c4.57,0,8.214,1.582,10.934,4.746c2.719,3.164,4.078,7.172,4.078,12.023c0,5.297-1.447,9.615-4.342,12.955
		c-2.895,3.34-6.756,5.01-11.584,5.01c-5.016,0-9.164-1.816-12.445-5.449c-3.282-3.633-4.922-8.754-4.922-15.363v-9.773
		c0-6.562,1.828-11.883,5.484-15.961S214.425,209.563,219.839,209.563z M217.484,232.661c-2.368,0-4.383,0.48-6.047,1.439
		c-1.665,0.959-2.93,2.235-3.797,3.826v4.143c0,4.704,0.996,8.331,2.988,10.883c1.992,2.551,4.488,3.826,7.488,3.826
		c2.835,0,5.045-1.199,6.627-3.598c1.582-2.399,2.373-5.378,2.373-8.935c0-3.37-0.85-6.144-2.549-8.319
		C222.868,233.75,220.507,232.661,217.484,232.661z"/>
	<path fill="#CCCCCC" d="M273.207,241.978c0,6.539-1.447,11.549-4.342,15.029c-2.896,3.48-6.861,5.221-11.9,5.221
		c-5.04,0-9.024-1.746-11.954-5.238c-2.93-3.492-4.395-8.496-4.395-15.012v-12.129c0-6.516,1.459-11.525,4.377-15.029
		s6.885-5.256,11.901-5.256c5.039,0,9.018,1.752,11.936,5.256s4.377,8.514,4.377,15.029V241.978z M266.281,228.361
		c0-4.426-0.804-7.757-2.408-9.994c-1.605-2.236-3.933-3.354-6.979-3.354c-3.047,0-5.368,1.118-6.961,3.354
		c-1.594,2.237-2.391,5.568-2.391,9.994v14.999c0,4.426,0.809,7.769,2.426,10.028s3.949,3.39,6.997,3.39
		c3.046,0,5.361-1.124,6.943-3.372s2.373-5.597,2.373-10.046V228.361z"/>
	<path fill="#CCCCCC" d="M280.871,220.146c0-2.977,0.961-5.484,2.883-7.523c1.921-2.039,4.487-3.059,7.699-3.059
		c3.211,0,5.777,1.014,7.699,3.041c1.921,2.027,2.883,4.541,2.883,7.541v2.707c0,2.977-0.955,5.473-2.865,7.488
		c-1.911,2.016-4.46,3.023-7.646,3.023c-3.234,0-5.818-1.008-7.752-3.023s-2.9-4.512-2.9-7.488V220.146z M286.004,222.853
		c0,1.734,0.475,3.205,1.424,4.412s2.314,1.811,4.096,1.811c1.71,0,3.035-0.598,3.973-1.793c0.937-1.195,1.406-2.672,1.406-4.43
		v-2.707c0-1.734-0.475-3.217-1.424-4.447s-2.291-1.846-4.025-1.846c-1.758,0-3.106,0.615-4.043,1.846
		c-0.938,1.23-1.406,2.713-1.406,4.447V222.853z M293.316,257.622l-3.832-2.355l24.996-40.008l3.832,2.355L293.316,257.622z
		 M305.656,248.938c0-2.977,0.961-5.479,2.883-7.506c1.921-2.027,4.487-3.041,7.699-3.041c3.187,0,5.748,1.014,7.682,3.041
		s2.9,4.529,2.9,7.506v2.742c0,3-0.962,5.508-2.883,7.523c-1.922,2.016-4.465,3.023-7.629,3.023c-3.234,0-5.818-1.008-7.752-3.023
		s-2.9-4.523-2.9-7.523V248.938z M310.789,251.681c0,1.758,0.475,3.24,1.424,4.447s2.314,1.811,4.096,1.811
		c1.71,0,3.035-0.604,3.973-1.811c0.937-1.207,1.406-2.689,1.406-4.447v-2.742c0-1.734-0.48-3.211-1.441-4.43
		c-0.962-1.219-2.298-1.828-4.008-1.828c-1.735,0-3.076,0.609-4.025,1.828s-1.424,2.695-1.424,4.43V251.681z"/>
</g>
<g>
	<g enable-background="new    ">
		<path fill="#CCCCCC" d="M174.271,295.382h-3.328V281.8l-3.164,0.07v-2.402l6.492-1.16V295.382z"/>
		<path fill="#CCCCCC" d="M187.993,288.983h1.477v2.66h-1.477v3.738h-3.316v-3.738h-5.66l-0.176-2.074l5.824-11.25h3.328V288.983z
			 M181.864,288.983h2.812v-5.895l-0.07-0.012l-0.176,0.316L181.864,288.983z"/>
		<path fill="#CCCCCC" d="M199.735,284.214c0.328-0.555,0.723-0.984,1.184-1.289s0.969-0.457,1.523-0.457
			c1.125,0,2.008,0.447,2.648,1.342s0.961,2.275,0.961,4.143v7.43h-3.34v-7.462c0-1.048-0.123-1.775-0.369-2.182
			c-0.246-0.407-0.631-0.61-1.154-0.61c-0.312,0-0.59,0.068-0.832,0.205c-0.242,0.138-0.449,0.327-0.621,0.569v9.479h-3.328v-18.281
			h3.328V284.214z"/>
		<path fill="#CCCCCC" d="M207.763,288.269c0-1.703,0.451-3.096,1.354-4.178s2.166-1.623,3.791-1.623s2.891,0.541,3.797,1.623
			s1.359,2.475,1.359,4.178v1.57c0,1.719-0.453,3.113-1.359,4.184s-2.168,1.605-3.785,1.605c-1.633,0-2.9-0.535-3.803-1.605
			s-1.354-2.465-1.354-4.184V288.269z M211.079,289.834c0,0.979,0.137,1.745,0.41,2.301s0.75,0.833,1.43,0.833
			c0.656,0,1.123-0.279,1.4-0.839s0.416-1.324,0.416-2.295v-1.572c0-0.955-0.139-1.716-0.416-2.283s-0.748-0.851-1.412-0.851
			s-1.135,0.285-1.412,0.856s-0.416,1.331-0.416,2.277V289.834z"/>
		<path fill="#CCCCCC" d="M226.255,293.917c-0.344,0.555-0.76,0.979-1.248,1.271s-1.041,0.439-1.658,0.439
			c-1.133,0-2.018-0.428-2.654-1.283s-0.955-2.182-0.955-3.979v-7.664h3.328v7.696c0,0.899,0.109,1.553,0.328,1.959
			c0.219,0.407,0.543,0.61,0.973,0.61c0.367,0,0.689-0.068,0.967-0.205s0.514-0.339,0.709-0.604v-9.456h3.34v12.68h-2.93
			L226.255,293.917z"/>
		<path fill="#CCCCCC" d="M237.47,285.737l-1.254-0.035c-0.352,0-0.643,0.086-0.873,0.258s-0.408,0.414-0.533,0.727v8.695h-3.328
			v-12.68h3.105l0.129,1.699l0.059,0.023c0.203-0.609,0.486-1.088,0.85-1.436s0.787-0.521,1.271-0.521
			c0.148,0,0.307,0.014,0.475,0.041s0.314,0.061,0.439,0.1L237.47,285.737z"/>
		<path fill="#CCCCCC" d="M244.677,292.065c0-0.359-0.141-0.67-0.422-0.932s-0.82-0.584-1.617-0.967
			c-1.273-0.477-2.229-1.016-2.865-1.617s-0.955-1.383-0.955-2.344c0-1.031,0.408-1.912,1.225-2.643s1.896-1.096,3.24-1.096
			c1.406,0,2.527,0.375,3.363,1.125s1.238,1.707,1.207,2.871l-0.035,0.07h-3.211c0-0.531-0.109-0.953-0.328-1.266
			s-0.555-0.469-1.008-0.469c-0.359,0-0.664,0.121-0.914,0.363s-0.375,0.535-0.375,0.879c0,0.375,0.125,0.678,0.375,0.908
			s0.793,0.545,1.629,0.943c1.328,0.453,2.312,0.99,2.953,1.611s0.961,1.436,0.961,2.443c0,1.078-0.43,1.961-1.289,2.648
			s-1.988,1.031-3.387,1.031c-1.461,0-2.617-0.426-3.469-1.277s-1.258-1.812-1.219-2.883l0.023-0.07h3.047
			c0.016,0.672,0.172,1.156,0.469,1.453s0.707,0.445,1.23,0.445c0.445,0,0.785-0.109,1.02-0.328S244.677,292.448,244.677,292.065z"
			/>
		<path fill="#CCCCCC" d="M260.813,285.737l-1.254-0.035c-0.352,0-0.643,0.086-0.873,0.258s-0.408,0.414-0.533,0.727v8.695h-3.328
			v-12.68h3.105l0.129,1.699l0.059,0.023c0.203-0.609,0.486-1.088,0.85-1.436s0.787-0.521,1.271-0.521
			c0.148,0,0.307,0.014,0.475,0.041s0.314,0.061,0.439,0.1L260.813,285.737z"/>
		<path fill="#CCCCCC" d="M267.212,295.628c-1.594,0-2.859-0.523-3.797-1.57s-1.406-2.367-1.406-3.961v-1.781
			c0-1.711,0.436-3.113,1.307-4.207s2.076-1.641,3.615-1.641c1.484,0,2.633,0.496,3.445,1.488s1.219,2.344,1.219,4.055v2.039h-6.27
			v0.047c0,0.836,0.189,1.523,0.568,2.062s0.951,0.809,1.717,0.809c0.625,0,1.133-0.07,1.523-0.211s0.855-0.375,1.395-0.703
			l0.844,2.121c-0.438,0.422-1.021,0.77-1.752,1.043S268.087,295.628,267.212,295.628z M266.931,285.128
			c-0.531,0-0.922,0.243-1.172,0.729c-0.25,0.487-0.391,1.142-0.422,1.966h2.988v-0.471c0-0.706-0.109-1.254-0.328-1.642
			C267.778,285.322,267.423,285.128,266.931,285.128z"/>
		<path fill="#CCCCCC" d="M276.388,282.702l0.129,1.617c0.336-0.594,0.758-1.051,1.266-1.371s1.09-0.48,1.746-0.48
			c0.641,0,1.199,0.17,1.676,0.51s0.84,0.857,1.09,1.553c0.328-0.656,0.75-1.164,1.266-1.523s1.117-0.539,1.805-0.539
			c1.047,0,1.873,0.432,2.479,1.295s0.908,2.182,0.908,3.955v7.664h-3.34v-7.673c0-0.978-0.105-1.652-0.316-2.023
			c-0.211-0.372-0.539-0.558-0.984-0.558c-0.32,0-0.605,0.094-0.855,0.281c-0.25,0.188-0.457,0.446-0.621,0.774
			c0.008,0.149,0.016,0.296,0.023,0.44s0.012,0.295,0.012,0.451v8.307h-3.316v-7.673c0-0.97-0.107-1.643-0.322-2.018
			c-0.215-0.376-0.549-0.563-1.002-0.563c-0.305,0-0.576,0.076-0.814,0.229c-0.238,0.153-0.443,0.366-0.615,0.64v9.386h-3.316
			v-12.68H276.388z"/>
		<path fill="#CCCCCC" d="M297.106,295.382c-0.094-0.211-0.178-0.441-0.252-0.691s-0.131-0.504-0.17-0.762
			c-0.312,0.516-0.693,0.928-1.143,1.236s-0.971,0.463-1.564,0.463c-1.047,0-1.885-0.344-2.514-1.031s-0.943-1.605-0.943-2.754
			c0-1.242,0.4-2.207,1.201-2.895s1.99-1.031,3.568-1.031h1.254v-1.031c0-0.617-0.111-1.092-0.334-1.424s-0.557-0.498-1.002-0.498
			c-0.375,0-0.656,0.133-0.844,0.398s-0.281,0.652-0.281,1.16l-3.223-0.012l-0.035-0.07c-0.039-1.102,0.369-2.039,1.225-2.812
			s1.982-1.16,3.381-1.16c1.32,0,2.393,0.385,3.217,1.154s1.236,1.865,1.236,3.287v5.133c0,0.625,0.043,1.207,0.129,1.746
			s0.219,1.07,0.398,1.594H297.106z M294.938,293.12c0.336,0,0.646-0.09,0.932-0.27s0.51-0.41,0.674-0.691v-2.332h-1.254
			c-0.508,0-0.875,0.176-1.102,0.527s-0.34,0.797-0.34,1.336c0,0.422,0.098,0.766,0.293,1.031S294.603,293.12,294.938,293.12z"/>
		<path fill="#CCCCCC" d="M305.474,279.644h-3.328v-2.543h3.328V279.644z M305.474,295.382h-3.328v-12.68h3.328V295.382z"/>
		<path fill="#CCCCCC" d="M310.841,282.702l0.141,1.746c0.352-0.625,0.783-1.111,1.295-1.459s1.076-0.521,1.693-0.521
			c1.055,0,1.885,0.406,2.49,1.219s0.908,2.09,0.908,3.832v7.863h-3.34v-7.872c0-0.876-0.123-1.492-0.369-1.848
			c-0.246-0.356-0.627-0.534-1.143-0.534c-0.297,0-0.57,0.078-0.82,0.234s-0.461,0.372-0.633,0.646v9.374h-3.328v-12.68H310.841z"/>
		<path fill="#CCCCCC" d="M322.935,279.644h-3.328v-2.543h3.328V279.644z M322.935,295.382h-3.328v-12.68h3.328V295.382z"/>
		<path fill="#CCCCCC" d="M328.302,282.702l0.141,1.746c0.352-0.625,0.783-1.111,1.295-1.459s1.076-0.521,1.693-0.521
			c1.055,0,1.885,0.406,2.49,1.219s0.908,2.09,0.908,3.832v7.863h-3.34v-7.872c0-0.876-0.123-1.492-0.369-1.848
			c-0.246-0.356-0.627-0.534-1.143-0.534c-0.297,0-0.57,0.078-0.82,0.234s-0.461,0.372-0.633,0.646v9.374h-3.328v-12.68H328.302z"/>
		<path fill="#CCCCCC" d="M336.47,288.456c0-1.789,0.369-3.234,1.107-4.336s1.779-1.652,3.123-1.652
			c0.562,0,1.059,0.143,1.488,0.428s0.805,0.693,1.125,1.225l0.211-1.418h2.895v12.434c0,1.664-0.482,2.975-1.447,3.932
			s-2.287,1.436-3.967,1.436c-0.547,0-1.129-0.088-1.746-0.264s-1.191-0.412-1.723-0.709l0.586-2.566
			c0.445,0.25,0.898,0.438,1.359,0.562s0.961,0.188,1.5,0.188c0.703,0,1.23-0.221,1.582-0.662s0.527-1.084,0.527-1.928v-0.727
			c-0.312,0.406-0.668,0.713-1.066,0.92s-0.848,0.311-1.348,0.311c-1.336,0-2.371-0.514-3.105-1.541s-1.102-2.385-1.102-4.072
			V288.456z M339.798,290.022c0,0.923,0.133,1.645,0.398,2.165s0.711,0.78,1.336,0.78c0.344,0,0.646-0.07,0.908-0.211
			s0.479-0.349,0.65-0.622v-6.009c-0.172-0.313-0.385-0.556-0.639-0.729c-0.254-0.172-0.553-0.258-0.896-0.258
			c-0.625,0-1.074,0.303-1.348,0.91c-0.273,0.605-0.41,1.41-0.41,2.411V290.022z"/>
	</g>
</g>
<g>
	<g enable-background="new    ">
		<path fill="#4D4D4D" d="M99.892,133.925h4.676v1.995h-7.181v-12.797h2.505V133.925z"/>
		<path fill="#4D4D4D" d="M110.289,135.92c-0.07-0.158-0.133-0.331-0.189-0.519s-0.098-0.378-0.127-0.571
			c-0.234,0.387-0.52,0.696-0.857,0.928c-0.337,0.23-0.728,0.347-1.173,0.347c-0.785,0-1.414-0.258-1.885-0.773
			s-0.708-1.204-0.708-2.065c0-0.932,0.3-1.655,0.901-2.171s1.493-0.773,2.676-0.773h0.94v-0.773c0-0.463-0.083-0.818-0.25-1.067
			s-0.417-0.374-0.751-0.374c-0.281,0-0.492,0.1-0.633,0.299s-0.211,0.489-0.211,0.87l-2.417-0.009l-0.026-0.053
			c-0.029-0.826,0.277-1.529,0.918-2.109s1.487-0.87,2.536-0.87c0.99,0,1.794,0.289,2.413,0.865
			c0.618,0.578,0.927,1.399,0.927,2.466v3.85c0,0.469,0.032,0.905,0.097,1.31s0.164,0.803,0.299,1.195H110.289z M108.663,134.224
			c0.252,0,0.485-0.067,0.699-0.202s0.382-0.308,0.505-0.519v-1.749h-0.94c-0.381,0-0.656,0.132-0.826,0.396
			s-0.255,0.598-0.255,1.002c0,0.316,0.073,0.574,0.22,0.773S108.411,134.224,108.663,134.224z"/>
		<path fill="#4D4D4D" d="M118.779,134.821c-0.258,0.416-0.57,0.733-0.936,0.954c-0.366,0.219-0.781,0.329-1.244,0.329
			c-0.85,0-1.513-0.321-1.991-0.962c-0.478-0.643-0.716-1.637-0.716-2.984v-5.748h2.496v5.772c0,0.675,0.082,1.164,0.246,1.469
			c0.164,0.306,0.407,0.458,0.729,0.458c0.275,0,0.517-0.051,0.725-0.154c0.208-0.103,0.385-0.254,0.532-0.453v-7.092h2.505v9.51
			h-2.197L118.779,134.821z"/>
		<path fill="#4D4D4D" d="M124.984,126.41l0.105,1.31c0.264-0.469,0.587-0.833,0.971-1.095c0.384-0.26,0.807-0.391,1.27-0.391
			c0.791,0,1.414,0.305,1.868,0.914s0.681,1.567,0.681,2.874v5.897h-2.505v-5.904c0-0.657-0.092-1.119-0.277-1.386
			s-0.47-0.4-0.857-0.4c-0.223,0-0.428,0.059-0.615,0.176s-0.346,0.279-0.475,0.484v7.03h-2.496v-9.51H124.984z"/>
		<path fill="#4D4D4D" d="M131.11,131.218c0-1.494,0.275-2.698,0.826-3.612s1.327-1.371,2.329-1.371
			c0.369,0,0.703,0.088,1.002,0.264s0.565,0.428,0.8,0.756v-5.045h2.496v13.711h-2.171l-0.167-1.037
			c-0.246,0.398-0.532,0.702-0.857,0.91c-0.325,0.207-0.696,0.312-1.112,0.312c-1.002,0-1.777-0.429-2.325-1.288
			c-0.548-0.857-0.822-1.996-0.822-3.414V131.218z M133.606,131.403c0,0.852,0.098,1.516,0.294,1.992
			c0.196,0.476,0.529,0.714,0.998,0.714c0.258,0,0.483-0.061,0.677-0.181s0.357-0.295,0.492-0.524v-4.337
			c-0.135-0.265-0.299-0.471-0.492-0.617c-0.193-0.147-0.413-0.221-0.659-0.221c-0.463,0-0.797,0.273-1.002,0.82
			c-0.205,0.546-0.308,1.269-0.308,2.168V131.403z"/>
		<path fill="#4D4D4D" d="M144.681,128.687l-0.94-0.026c-0.264,0-0.482,0.064-0.655,0.193s-0.306,0.311-0.4,0.545v6.521h-2.496
			v-9.51h2.329l0.097,1.274l0.044,0.018c0.152-0.457,0.365-0.815,0.637-1.077c0.272-0.26,0.59-0.391,0.954-0.391
			c0.111,0,0.23,0.011,0.356,0.031s0.236,0.045,0.33,0.074L144.681,128.687z"/>
		<path fill="#4D4D4D" d="M149.163,132.018l0.018,0.097l1.389-5.704h2.672l-3.208,10.942c-0.24,0.686-0.561,1.258-0.962,1.718
			s-1.015,0.69-1.841,0.69c-0.205,0-0.387-0.018-0.545-0.053s-0.369-0.088-0.633-0.158l0.29-1.863c0.1,0.018,0.171,0.03,0.215,0.04
			c0.044,0.008,0.092,0.013,0.145,0.013c0.363,0,0.637-0.096,0.822-0.286s0.318-0.44,0.4-0.751l0.22-0.703l-2.804-9.589h2.681
			L149.163,132.018z"/>
	</g>
</g>
<g>
	<g enable-background="new    ">
		<path fill="#4D4D4D" d="M369.001,131.798l0.026,0.053c0.012,1.406-0.322,2.467-1.002,3.182s-1.682,1.072-3.006,1.072
			s-2.382-0.405-3.173-1.218c-0.791-0.811-1.187-1.961-1.187-3.449v-3.823c0-1.482,0.383-2.632,1.146-3.45
			c0.766-0.816,1.789-1.226,3.072-1.226c1.359,0,2.387,0.363,3.08,1.09c0.695,0.727,1.054,1.802,1.077,3.226l-0.026,0.053h-2.408
			c0.035-0.841-0.079-1.446-0.343-1.817c-0.264-0.37-0.724-0.556-1.38-0.556c-0.562,0-0.993,0.22-1.292,0.66
			c-0.299,0.439-0.448,1.105-0.448,1.997v3.844c0,0.903,0.16,1.575,0.479,2.015c0.32,0.44,0.787,0.66,1.402,0.66
			c0.604,0,1.023-0.174,1.262-0.523c0.236-0.348,0.341-0.944,0.312-1.788H369.001z"/>
		<path fill="#4D4D4D" d="M370.082,130.585c0-1.277,0.338-2.321,1.016-3.134c0.676-0.811,1.624-1.217,2.843-1.217
			s2.168,0.406,2.848,1.217c0.68,0.812,1.02,1.856,1.02,3.134v1.178c0,1.289-0.34,2.335-1.02,3.138s-1.626,1.204-2.839,1.204
			c-1.225,0-2.176-0.401-2.852-1.204c-0.678-0.803-1.016-1.849-1.016-3.138V130.585z M372.569,131.759
			c0,0.734,0.103,1.309,0.308,1.726s0.562,0.625,1.072,0.625c0.492,0,0.842-0.21,1.051-0.629c0.207-0.42,0.312-0.993,0.312-1.722
			v-1.179c0-0.716-0.104-1.287-0.312-1.713c-0.209-0.425-0.562-0.638-1.06-0.638s-0.851,0.214-1.06,0.643
			c-0.207,0.429-0.312,0.998-0.312,1.708V131.759z"/>
		<path fill="#4D4D4D" d="M378.827,130.585c0-1.277,0.339-2.321,1.015-3.134c0.678-0.811,1.625-1.217,2.844-1.217
			s2.168,0.406,2.848,1.217c0.68,0.812,1.02,1.856,1.02,3.134v1.178c0,1.289-0.34,2.335-1.02,3.138s-1.626,1.204-2.839,1.204
			c-1.225,0-2.175-0.401-2.853-1.204c-0.676-0.803-1.015-1.849-1.015-3.138V130.585z M381.314,131.759
			c0,0.734,0.103,1.309,0.308,1.726s0.562,0.625,1.072,0.625c0.492,0,0.843-0.21,1.05-0.629c0.209-0.42,0.312-0.993,0.312-1.722
			v-1.179c0-0.716-0.104-1.287-0.312-1.713c-0.207-0.425-0.561-0.638-1.059-0.638s-0.852,0.214-1.059,0.643
			c-0.209,0.429-0.312,0.998-0.312,1.708V131.759z"/>
		<path fill="#4D4D4D" d="M390.824,131.965h-0.457v3.955h-2.496v-13.711h2.496v7.787h0.413l1.608-3.586h2.874l-2.479,4.28
			l2.892,5.229h-2.856L390.824,131.965z"/>
		<path fill="#4D4D4D" d="M398.945,124.116h-2.496v-1.907h2.496V124.116z M398.945,135.92h-2.496v-9.51h2.496V135.92z"/>
		<path fill="#4D4D4D" d="M402.971,126.41l0.105,1.31c0.264-0.469,0.588-0.833,0.971-1.095c0.385-0.26,0.808-0.391,1.271-0.391
			c0.791,0,1.413,0.305,1.868,0.914c0.453,0.609,0.681,1.567,0.681,2.874v5.897h-2.505v-5.904c0-0.657-0.092-1.119-0.277-1.386
			c-0.184-0.267-0.47-0.4-0.856-0.4c-0.223,0-0.428,0.059-0.615,0.176s-0.346,0.279-0.475,0.484v7.03h-2.496v-9.51H402.971z"/>
		<path fill="#4D4D4D" d="M409.097,130.726c0-1.342,0.276-2.426,0.831-3.252c0.553-0.826,1.334-1.239,2.342-1.239
			c0.422,0,0.794,0.107,1.116,0.32c0.322,0.215,0.604,0.521,0.844,0.919l0.158-1.063h2.171v9.325c0,1.248-0.361,2.23-1.086,2.948
			c-0.723,0.718-1.715,1.077-2.975,1.077c-0.41,0-0.847-0.065-1.31-0.198c-0.463-0.131-0.894-0.309-1.292-0.531l0.439-1.925
			c0.334,0.188,0.674,0.328,1.02,0.422s0.721,0.141,1.125,0.141c0.527,0,0.923-0.166,1.187-0.497s0.396-0.812,0.396-1.445v-0.545
			c-0.234,0.305-0.501,0.535-0.8,0.689c-0.299,0.155-0.636,0.233-1.011,0.233c-1.002,0-1.778-0.385-2.329-1.155
			s-0.826-1.789-0.826-3.055V130.726z M411.593,131.9c0,0.692,0.1,1.233,0.299,1.624c0.199,0.39,0.533,0.585,1.002,0.585
			c0.258,0,0.485-0.053,0.681-0.158c0.197-0.105,0.359-0.262,0.488-0.467v-4.507c-0.129-0.234-0.289-0.417-0.479-0.546
			c-0.191-0.129-0.415-0.193-0.673-0.193c-0.469,0-0.806,0.228-1.011,0.683c-0.205,0.454-0.308,1.058-0.308,1.809V131.9z"/>
	</g>
</g>
<g>
	<g enable-background="new    ">
		<path fill="#4D4D4D" d="M102.257,398.828l0.026,0.053c0.012,1.406-0.322,2.467-1.002,3.182s-1.682,1.072-3.006,1.072
			s-2.382-0.405-3.173-1.218c-0.791-0.811-1.187-1.961-1.187-3.449v-3.823c0-1.482,0.382-2.632,1.147-3.45
			c0.765-0.816,1.789-1.226,3.072-1.226c1.359,0,2.386,0.363,3.081,1.09s1.053,1.802,1.077,3.226l-0.026,0.053h-2.408
			c0.035-0.841-0.079-1.446-0.343-1.817c-0.264-0.37-0.724-0.556-1.38-0.556c-0.562,0-0.993,0.22-1.292,0.66
			c-0.299,0.439-0.448,1.105-0.448,1.997v3.844c0,0.903,0.16,1.575,0.479,2.015c0.319,0.44,0.787,0.66,1.402,0.66
			c0.604,0,1.024-0.174,1.261-0.523c0.237-0.348,0.341-0.944,0.312-1.788H102.257z"/>
		<path fill="#4D4D4D" d="M106.247,402.95h-2.496v-13.711h2.496V402.95z"/>
		<path fill="#4D4D4D" d="M110.598,391.146h-2.496v-1.907h2.496V391.146z M110.598,402.95h-2.496v-9.51h2.496V402.95z"/>
		<path fill="#4D4D4D" d="M114.676,393.44l0.097,1.213c0.252-0.445,0.568-0.788,0.949-1.028s0.817-0.36,1.31-0.36
			c0.48,0,0.899,0.127,1.257,0.383c0.357,0.254,0.63,0.643,0.817,1.164c0.246-0.492,0.562-0.873,0.949-1.143
			s0.838-0.404,1.354-0.404c0.785,0,1.405,0.324,1.859,0.971c0.454,0.648,0.681,1.637,0.681,2.967v5.748h-2.505v-5.755
			c0-0.733-0.079-1.239-0.237-1.518s-0.404-0.418-0.738-0.418c-0.24,0-0.454,0.07-0.642,0.211c-0.188,0.142-0.343,0.335-0.466,0.581
			c0.006,0.111,0.012,0.222,0.018,0.33s0.009,0.222,0.009,0.339v6.229h-2.487v-5.755c0-0.728-0.081-1.231-0.242-1.513
			c-0.161-0.282-0.412-0.423-0.751-0.423c-0.229,0-0.432,0.058-0.611,0.172s-0.333,0.274-0.461,0.479v7.039h-2.487v-9.51H114.676z"
			/>
		<path fill="#4D4D4D" d="M130.215,402.95c-0.07-0.158-0.133-0.331-0.189-0.519s-0.098-0.378-0.127-0.571
			c-0.234,0.387-0.52,0.696-0.857,0.928c-0.337,0.23-0.728,0.347-1.173,0.347c-0.785,0-1.414-0.258-1.885-0.773
			s-0.708-1.204-0.708-2.065c0-0.932,0.3-1.655,0.901-2.171s1.493-0.773,2.676-0.773h0.94v-0.773c0-0.463-0.083-0.818-0.25-1.067
			s-0.417-0.374-0.751-0.374c-0.281,0-0.492,0.1-0.633,0.299s-0.211,0.489-0.211,0.87l-2.417-0.009l-0.026-0.053
			c-0.029-0.826,0.277-1.529,0.918-2.109s1.487-0.87,2.536-0.87c0.99,0,1.794,0.289,2.413,0.865
			c0.618,0.578,0.927,1.399,0.927,2.466v3.85c0,0.469,0.032,0.905,0.097,1.31s0.164,0.803,0.299,1.195H130.215z M128.589,401.254
			c0.252,0,0.485-0.067,0.699-0.202s0.382-0.308,0.505-0.519v-1.749h-0.94c-0.381,0-0.656,0.132-0.826,0.396
			s-0.255,0.598-0.255,1.002c0,0.316,0.073,0.574,0.22,0.773S128.337,401.254,128.589,401.254z"/>
		<path fill="#4D4D4D" d="M136.851,391.076v2.364h1.318v1.811h-1.318v4.772c0,0.387,0.056,0.663,0.167,0.831
			c0.111,0.166,0.264,0.25,0.457,0.25c0.152,0,0.281-0.007,0.387-0.021s0.223-0.04,0.352-0.075l0.193,1.898
			c-0.264,0.082-0.516,0.141-0.756,0.176s-0.513,0.053-0.817,0.053c-0.803,0-1.417-0.247-1.841-0.743
			c-0.425-0.494-0.637-1.281-0.637-2.359v-4.781h-1.125v-1.811h1.125v-2.364H136.851z"/>
		<path fill="#4D4D4D" d="M143.275,403.135c-1.195,0-2.145-0.393-2.848-1.178s-1.055-1.775-1.055-2.971v-1.336
			c0-1.283,0.327-2.335,0.98-3.155s1.557-1.23,2.711-1.23c1.113,0,1.975,0.372,2.584,1.116s0.914,1.758,0.914,3.041v1.529h-4.702
			v0.035c0,0.627,0.142,1.143,0.426,1.547s0.713,0.606,1.288,0.606c0.469,0,0.85-0.053,1.143-0.158s0.642-0.281,1.046-0.527
			l0.633,1.591c-0.328,0.316-0.766,0.577-1.314,0.782S143.932,403.135,143.275,403.135z M143.064,395.26
			c-0.398,0-0.691,0.183-0.879,0.548c-0.188,0.364-0.293,0.855-0.316,1.474h2.241v-0.354c0-0.529-0.082-0.939-0.246-1.231
			C143.7,395.405,143.434,395.26,143.064,395.26z"/>
		<path fill="#4D4D4D" d="M159.948,398.828l0.026,0.053c0.012,1.406-0.322,2.467-1.002,3.182s-1.682,1.072-3.006,1.072
			s-2.382-0.405-3.173-1.218c-0.791-0.811-1.187-1.961-1.187-3.449v-3.823c0-1.482,0.382-2.632,1.147-3.45
			c0.765-0.816,1.789-1.226,3.072-1.226c1.359,0,2.386,0.363,3.081,1.09s1.053,1.802,1.077,3.226l-0.026,0.053h-2.408
			c0.035-0.841-0.079-1.446-0.343-1.817c-0.264-0.37-0.724-0.556-1.38-0.556c-0.562,0-0.993,0.22-1.292,0.66
			c-0.299,0.439-0.448,1.105-0.448,1.997v3.844c0,0.903,0.16,1.575,0.479,2.015c0.319,0.44,0.787,0.66,1.402,0.66
			c0.604,0,1.024-0.174,1.261-0.523c0.237-0.348,0.341-0.944,0.312-1.788H159.948z"/>
		<path fill="#4D4D4D" d="M161.029,397.615c0-1.277,0.338-2.321,1.015-3.134c0.677-0.811,1.625-1.217,2.843-1.217
			s2.168,0.406,2.848,1.217c0.68,0.812,1.02,1.856,1.02,3.134v1.178c0,1.289-0.34,2.335-1.02,3.138s-1.626,1.204-2.839,1.204
			c-1.225,0-2.175-0.401-2.852-1.204s-1.015-1.849-1.015-3.138V397.615z M163.517,398.789c0,0.734,0.103,1.309,0.308,1.726
			s0.562,0.625,1.072,0.625c0.492,0,0.842-0.21,1.05-0.629c0.208-0.42,0.312-0.993,0.312-1.722v-1.179
			c0-0.716-0.104-1.287-0.312-1.713c-0.208-0.425-0.561-0.638-1.059-0.638s-0.851,0.214-1.059,0.643s-0.312,0.998-0.312,1.708
			V398.789z"/>
		<path fill="#4D4D4D" d="M172.358,393.44l0.105,1.31c0.264-0.469,0.587-0.833,0.971-1.095c0.384-0.26,0.807-0.391,1.27-0.391
			c0.791,0,1.414,0.305,1.868,0.914s0.681,1.567,0.681,2.874v5.897h-2.505v-5.904c0-0.657-0.092-1.119-0.277-1.386
			s-0.47-0.4-0.857-0.4c-0.223,0-0.428,0.059-0.615,0.176s-0.346,0.279-0.475,0.484v7.03h-2.496v-9.51H172.358z"/>
		<path fill="#4D4D4D" d="M181.789,391.076v2.364h1.318v1.811h-1.318v4.772c0,0.387,0.056,0.663,0.167,0.831
			c0.111,0.166,0.264,0.25,0.457,0.25c0.152,0,0.281-0.007,0.387-0.021s0.223-0.04,0.352-0.075l0.193,1.898
			c-0.264,0.082-0.516,0.141-0.756,0.176s-0.513,0.053-0.817,0.053c-0.803,0-1.417-0.247-1.841-0.743
			c-0.425-0.494-0.637-1.281-0.637-2.359v-4.781h-1.125v-1.811h1.125v-2.364H181.789z"/>
		<path fill="#4D4D4D" d="M189.005,395.717l-0.94-0.026c-0.264,0-0.482,0.064-0.655,0.193s-0.306,0.311-0.4,0.545v6.521h-2.496
			v-9.51h2.329l0.097,1.274l0.044,0.018c0.152-0.457,0.365-0.815,0.637-1.077c0.272-0.26,0.59-0.391,0.954-0.391
			c0.111,0,0.23,0.011,0.356,0.031s0.236,0.045,0.33,0.074L189.005,395.717z"/>
		<path fill="#4D4D4D" d="M189.796,397.615c0-1.277,0.338-2.321,1.015-3.134c0.677-0.811,1.625-1.217,2.843-1.217
			s2.168,0.406,2.848,1.217c0.68,0.812,1.02,1.856,1.02,3.134v1.178c0,1.289-0.34,2.335-1.02,3.138s-1.626,1.204-2.839,1.204
			c-1.225,0-2.175-0.401-2.852-1.204s-1.015-1.849-1.015-3.138V397.615z M192.283,398.789c0,0.734,0.103,1.309,0.308,1.726
			s0.562,0.625,1.072,0.625c0.492,0,0.842-0.21,1.05-0.629c0.208-0.42,0.312-0.993,0.312-1.722v-1.179
			c0-0.716-0.104-1.287-0.312-1.713c-0.208-0.425-0.561-0.638-1.059-0.638s-0.851,0.214-1.059,0.643s-0.312,0.998-0.312,1.708
			V398.789z"/>
		<path fill="#4D4D4D" d="M201.45,402.95h-2.496v-13.711h2.496V402.95z"/>
	</g>
</g>
<g>
	<g enable-background="new    ">
		<path fill="#4D4D4D" d="M386.271,357.557h4.676v1.995h-7.181v-12.797h2.505V357.557z"/>
		<path fill="#4D4D4D" d="M394.646,347.748h-2.496v-1.907h2.496V347.748z M394.646,359.552h-2.496v-9.51h2.496V359.552z"/>
		<path fill="#4D4D4D" d="M396.053,354.357c0-1.342,0.277-2.426,0.83-3.252c0.555-0.826,1.335-1.239,2.343-1.239
			c0.422,0,0.794,0.107,1.116,0.32c0.322,0.215,0.604,0.521,0.844,0.919l0.158-1.063h2.171v9.325c0,1.248-0.362,2.23-1.085,2.948
			c-0.725,0.718-1.716,1.077-2.976,1.077c-0.41,0-0.847-0.065-1.31-0.198c-0.463-0.131-0.894-0.309-1.292-0.531l0.439-1.925
			c0.334,0.188,0.674,0.328,1.02,0.422s0.721,0.141,1.125,0.141c0.527,0,0.923-0.166,1.187-0.497s0.396-0.812,0.396-1.445v-0.545
			c-0.234,0.305-0.501,0.535-0.8,0.689c-0.299,0.155-0.636,0.233-1.011,0.233c-1.002,0-1.778-0.385-2.329-1.155
			s-0.826-1.789-0.826-3.055V354.357z M398.549,355.532c0,0.692,0.1,1.233,0.299,1.624c0.199,0.39,0.533,0.585,1.002,0.585
			c0.258,0,0.484-0.053,0.682-0.158c0.195-0.105,0.358-0.262,0.487-0.467v-4.507c-0.129-0.234-0.288-0.417-0.479-0.546
			c-0.189-0.129-0.414-0.193-0.672-0.193c-0.469,0-0.806,0.228-1.011,0.683c-0.205,0.454-0.308,1.058-0.308,1.809V355.532z"/>
		<path fill="#4D4D4D" d="M407.549,351.176c0.246-0.416,0.542-0.738,0.888-0.967s0.727-0.343,1.143-0.343
			c0.844,0,1.506,0.336,1.986,1.006c0.48,0.672,0.721,1.707,0.721,3.107v5.572h-2.505v-5.597c0-0.785-0.092-1.331-0.277-1.636
			c-0.184-0.306-0.473-0.458-0.865-0.458c-0.234,0-0.442,0.052-0.624,0.154s-0.337,0.245-0.466,0.427v7.109h-2.496v-13.711h2.496
			V351.176z"/>
		<path fill="#4D4D4D" d="M416.839,347.678v2.364h1.318v1.811h-1.318v4.772c0,0.387,0.056,0.663,0.167,0.831
			c0.111,0.166,0.264,0.25,0.457,0.25c0.152,0,0.281-0.007,0.387-0.021s0.223-0.04,0.352-0.075l0.193,1.898
			c-0.264,0.082-0.516,0.141-0.756,0.176s-0.513,0.053-0.817,0.053c-0.803,0-1.417-0.247-1.841-0.743
			c-0.426-0.494-0.638-1.281-0.638-2.359v-4.781h-1.125v-1.811h1.125v-2.364H416.839z"/>
		<path fill="#4D4D4D" d="M422.174,347.748h-2.496v-1.907h2.496V347.748z M422.174,359.552h-2.496v-9.51h2.496V359.552z"/>
		<path fill="#4D4D4D" d="M426.199,350.042l0.105,1.31c0.264-0.469,0.588-0.833,0.971-1.095c0.385-0.26,0.808-0.391,1.271-0.391
			c0.791,0,1.413,0.305,1.868,0.914c0.453,0.609,0.681,1.567,0.681,2.874v5.897h-2.505v-5.904c0-0.657-0.092-1.119-0.277-1.386
			c-0.184-0.267-0.47-0.4-0.856-0.4c-0.223,0-0.428,0.059-0.615,0.176s-0.346,0.279-0.475,0.484v7.03h-2.496v-9.51H426.199z"/>
		<path fill="#4D4D4D" d="M432.325,354.357c0-1.342,0.276-2.426,0.831-3.252c0.553-0.826,1.334-1.239,2.342-1.239
			c0.422,0,0.794,0.107,1.116,0.32c0.322,0.215,0.604,0.521,0.844,0.919l0.158-1.063h2.171v9.325c0,1.248-0.361,2.23-1.086,2.948
			c-0.723,0.718-1.715,1.077-2.975,1.077c-0.41,0-0.847-0.065-1.31-0.198c-0.463-0.131-0.894-0.309-1.292-0.531l0.439-1.925
			c0.334,0.188,0.674,0.328,1.02,0.422s0.721,0.141,1.125,0.141c0.527,0,0.923-0.166,1.187-0.497s0.396-0.812,0.396-1.445v-0.545
			c-0.234,0.305-0.501,0.535-0.8,0.689c-0.299,0.155-0.636,0.233-1.011,0.233c-1.002,0-1.778-0.385-2.329-1.155
			s-0.826-1.789-0.826-3.055V354.357z M434.821,355.532c0,0.692,0.1,1.233,0.299,1.624c0.199,0.39,0.533,0.585,1.002,0.585
			c0.258,0,0.485-0.053,0.681-0.158c0.197-0.105,0.359-0.262,0.488-0.467v-4.507c-0.129-0.234-0.289-0.417-0.479-0.546
			c-0.191-0.129-0.415-0.193-0.673-0.193c-0.469,0-0.806,0.228-1.011,0.683c-0.205,0.454-0.308,1.058-0.308,1.809V355.532z"/>
	</g>
</g>
</svg>
