<?xml version="1.0" encoding="utf-8"?>
<!-- Generator: Adobe Illustrator 16.0.0, SVG Export Plug-In . SVG Version: 6.00 Build 0)  -->
<!DOCTYPE svg PUBLIC "-//W3C//DTD SVG 1.1//EN" "http://www.w3.org/Graphics/SVG/1.1/DTD/svg11.dtd">
<svg version="1.1" id="Layer_1" xmlns="http://www.w3.org/2000/svg" xmlns:xlink="http://www.w3.org/1999/xlink" x="0px" y="0px"
	 width="450px" height="320px" viewBox="0 0 450 320" enable-background="new 0 0 450 320" xml:space="preserve">
<g>
	<polygon fill="#7AD3AB" points="194.199,279 256.633,279 262.004,272 188.828,272 	"/>
	<path fill="#7AD3AB" d="M188.828,245c-1.853,0-3.355,1.278-3.355,3.134c0,1.857,1.502,3.474,3.355,3.474L262.004,245H188.828z"/>
	<path fill="#7AD3AB" d="M262.004,249.253l-73.176,6.721c-1.853,0-3.355,1.504-3.355,3.361c0,1.855,1.502,3.36,3.355,3.36
		l73.176-6.722c1.854,0,3.356-1.505,3.356-3.361C265.36,250.757,263.857,249.253,262.004,249.253z"/>
	<path fill="#7AD3AB" d="M262.004,260.479L188.828,267h73.176c1.854,0,3.356-1.406,3.356-3.262S263.857,260.479,262.004,260.479z"/>
	<path fill="#7AD3AB" d="M224.999,40.73C182.475,40.73,148,75.244,148,117.818c0,20.017,7.621,38.251,20.116,51.955
		c12.563,13.719,20.125,32.237,20.125,52.316c0,0.028,0.144,18.267,0.144,18.267h8.584c-0.032-5.563-0.063-17.938-0.066-18.301
		c-0.007-21.725-7.961-42.37-22.397-58.137c-11.506-12.624-17.844-28.996-17.844-46.1c0-18.275,7.109-35.455,20.016-48.378
		c12.907-12.922,30.067-20.038,48.321-20.038c18.253,0,35.415,7.116,48.324,20.039c12.907,12.922,20.017,30.102,20.017,48.377
		c0,18.036-6.947,35.054-19.561,47.919l-0.203,0.206l-0.189,0.221c-11.654,13.598-18.636,29.951-20.188,47.294l-0.035,0.385v26.513
		h8.661v-26.121c1.443-16.122,8.156-30.779,18.135-42.423C293.595,157.903,302,138.846,302,117.818
		C302,75.244,267.522,40.73,224.999,40.73z"/>
</g>
</svg>
