<?xml version="1.0" encoding="utf-8"?>
<!-- Generator: Adobe Illustrator 16.0.0, SVG Export Plug-In . SVG Version: 6.00 Build 0)  -->
<!DOCTYPE svg PUBLIC "-//W3C//DTD SVG 1.1//EN" "http://www.w3.org/Graphics/SVG/1.1/DTD/svg11.dtd">
<svg version="1.1" id="Layer_1" xmlns="http://www.w3.org/2000/svg" xmlns:xlink="http://www.w3.org/1999/xlink" x="0px" y="0px"
	 width="960.739px" height="791.271px" viewBox="32.157 0 960.739 791.271" enable-background="new 32.157 0 960.739 791.271"
	 xml:space="preserve">
<path fill="#1D2747" d="M992.896,794.471c-1.404-0.085-2.804-0.249-4.207-0.249c-317.48-0.01-634.959-0.007-952.438-0.007
	c-1.176,0-2.352,0-3.552,0c-1.212-4.183-0.38-7.498,2.391-10.575c6.284-6.984,12.608-13.95,18.55-21.224
	c7.438-9.102,14.72-18.348,21.682-27.819c9.08-12.345,18.068-24.778,26.551-37.537c7.235-10.887,13.968-22.128,20.435-33.487
	c7.555-13.272,14.929-26.674,21.73-40.342c6.017-12.086,11.585-24.438,16.557-36.987c7.743-19.546,15.32-39.188,22.044-59.097
	c8.336-24.681,14.853-49.908,19.715-75.528c2.183-11.505,4.562-22.979,6.396-34.543c1.668-10.515,2.59-21.145,4.114-31.682
	c0.565-3.912,1.122-7.624-1.492-11.439c0,1.454,0,2.567,0,4.269c-3.972,0.416-7.988,0.992-12.018,1.171
	c-1.301,0.059-3.748-0.862-3.782-1.448c-0.144-2.396-2.469-4.947,0.094-7.281c2.24-2.041,4.364-4.229,6.744-6.087
	c4.165-3.252,5.9-7.052,3.057-12.573c-2.234,0-4.923-0.136-7.594,0.027c-5.598,0.34-11.192,0.776-16.772,1.34
	c-0.802,0.08-1.44,1.247-2.284,1.602c-1.019,0.427-2.175,0.52-3.272,0.757c-0.19-0.887-0.57-1.78-0.536-2.658
	c0.076-1.931,0.564-3.857,0.521-5.778c-0.108-4.684-0.436-9.359-0.631-14.042c-0.019-0.452,0.261-0.918,1.019-1.339
	c0.925,3.732,1.85,7.467,3.029,12.226c3.499-3.979,6.512-7.605,9.765-11.008c1.274-1.331,3.238-1.985,4.608-3.248
	c1.852-1.706,3.409-3.727,5.153-5.555c0.356-0.374,1.148-0.364,1.451-0.754c0.876-1.131,2.09-2.291,2.314-3.589
	c1.115-6.456,1.96-12.96,2.887-19.45c0.184-1.276,0.33-2.56,0.455-3.842c0.875-8.854,1.694-17.712,2.657-26.557
	c0.151-1.378,0.95-2.686,1.448-4.026c0.484-0.028,0.967-0.058,1.451-0.086c1.452,4.763,3.391,9.441,4.259,14.307
	c1.901,10.663,3.703,21.309,7.763,31.428c0.519,1.291,0.714,2.709,1.143,4.042c0.834,2.6,0.429,5.493,4.606,6.479
	c2.777,0.654,4.794,4.191,7.351,6.184c4.001,3.118,8.16,6.032,12.276,9c0.736,0.532,1.582,0.908,2.258,1.29
	c0.5-4.072,0.97-7.893,1.44-11.712c0.255,0.002,0.508,0.002,0.763,0.002c0.756,7.695,1.512,15.391,2.334,23.758
	c-1.072-0.34-2.531-0.795-3.984-1.266c-0.786-0.256-1.576-0.81-2.34-0.77c-7.116,0.381-14.226,0.873-21.338,1.304
	c-2.094,0.127-2.676,1.146-3.117,3.24c-1.177,5.613,3.126,7.463,6.294,10.136c1.397,1.18,2.81,2.482,4.448,3.204
	c3.199,1.408,3.314,4.312,3.562,6.978c0.095,1.026-1.208,3.09-1.976,3.143c-4.465,0.298-8.961,0.204-13.439,0.03
	c-0.5-0.019-0.948-1.375-1.854-2.783c-0.35,2.478-0.794,4.254-0.82,6.034c-0.091,6.082,0.184,12.179-0.087,18.25
	c-0.455,10.127-1.159,20.244-1.875,30.355c-0.564,7.943-1.023,15.916-2.034,23.808c-1.485,11.606-3.2,23.192-5.224,34.717
	c-2.357,13.424-4.565,26.917-7.881,40.119c-6.37,25.358-12.926,50.693-20.419,75.734c-9.484,31.708-20.836,62.808-33.365,93.45
	c-9.044,22.122-18.288,44.159-27.577,66.179c-3.356,7.959-7.099,15.752-10.863,24.058c1.429,0.097,2.448,0.222,3.465,0.225
	c9.997,0.015,19.994,0.117,29.986-0.085c1.855-0.038,4.016-0.924,5.469-2.109c5.351-4.37,11.032-8.536,15.54-13.692
	c7.792-8.912,15.225-18.217,22.051-27.888c14.321-20.29,25.532-42.377,34.758-65.358c8.318-20.718,16.024-41.709,23.194-62.851
	c4.947-14.595,8.948-29.548,12.61-44.528c5.38-21.991,10.424-44.08,14.95-66.265c3.056-14.979,5.127-30.171,7.357-45.312
	c2.15-14.599,4.068-29.233,5.833-43.882c0.967-8.029,1.474-16.118,2.065-24.189c0.915-12.492,1.864-24.983,2.521-37.489
	c0.342-6.501,0.102-13.036,0.107-19.553c0.006-9.193,0.168-18.389-0.057-27.575c-0.2-8.208-0.782-16.411-1.337-24.608
	c-0.09-1.322-0.91-2.597-1.67-4.639c-1.354,4.129-4.563,4.274-7.356,4.974c-1.968,0.494-4.055,0.701-6.085,0.683
	c-1.011-0.01-2.325-0.543-2.964-1.297c-1.848-2.178-1.38-6.293,0.583-8.369c2.681-2.833,5.301-5.722,7.916-8.618
	c1.394-1.546,1.7-7.373,0.304-8.919c-0.519-0.576-1.735-0.849-2.576-0.754c-7.167,0.8-14.33,1.655-21.468,2.67
	c-0.958,0.137-1.7,1.422-2.682,1.866c-1.209,0.547-2.566,0.772-3.859,1.135c-0.004-1.181-0.005-2.362-0.012-3.542
	c-0.006-0.991,0.077-1.993-0.039-2.971c-0.605-5.189-1.273-10.372-1.876-15.562c-0.064-0.553,0.159-1.14,0.941-1.82
	c1.227,3.727,2.455,7.454,3.87,11.751c2.341-2.646,4.552-5.226,6.851-7.725c3.221-3.504,6.498-6.958,9.774-10.412
	c1.31-1.381,2.82-2.596,3.971-4.091c0.726-0.944,1.287-2.248,1.357-3.423c0.535-8.958,0.907-17.926,1.374-26.891
	c0.398-7.615,0.791-15.229,1.34-22.835c0.121-1.672,0.886-3.298,1.394-5.078c4.511,6.757,6.093,14.281,7.939,21.866
	c1.95,8.001,5.237,15.677,7.926,23.499c0.806,2.34,1.485,4.728,2.373,7.034c0.399,1.036,0.977,2.519,1.802,2.786
	c3.721,1.201,6.031,4.478,9.518,6.018c5.594,2.474,9.81,7.252,15.909,9.721c0.187-4.023,0.37-7.935,0.553-11.848
	c0.244-0.02,0.489-0.037,0.733-0.059c1.237,7.556,2.476,15.112,3.712,22.668c-0.586,1.212-2.022,2.405-3.719,0.016
	c-0.333-0.472-1.341-0.758-1.98-0.675c-8.293,1.056-16.578,2.194-24.842,3.308c0.091,1.599,0.185,2.873,0.232,4.149
	c0.098,2.658,1.037,4.712,3.503,6.127c2.713,1.555,5.148,3.591,7.864,5.137c2.545,1.451,3.776,3.241,4.003,6.308
	c0.191,2.603-0.865,3.932-2.895,4.196c-3.907,0.509-7.878,0.616-11.824,0.65c-0.745,0.007-1.5-1.102-2.525-1.916
	c0,3.366-0.203,6.857,0.042,10.314c0.474,6.661,1.389,13.291,1.782,19.954c0.799,13.591,1.371,27.195,2.042,40.793
	c0.196,3.993,0.497,7.983,0.594,11.979c0.272,11.268,0.482,22.533,0.684,33.802c0.23,12.791,0.547,25.582,0.588,38.374
	c0.026,8.336-0.299,16.675-0.597,25.009c-0.36,10.053-0.769,20.105-1.326,30.148c-0.545,9.804-1.14,19.615-2.008,29.397
	c-1.112,12.549-2.474,25.08-3.816,37.608c-1.031,9.636-2.012,19.282-3.352,28.878c-1.548,11.071-3.116,22.161-5.305,33.119
	c-3.372,16.871-6.962,33.717-11.038,50.432c-5.498,22.55-12.736,44.568-21.667,66.02c-7.373,17.709-15.869,34.827-26.373,50.909
	c-0.577,0.884-0.945,1.903-1.644,3.339c1.509,0.078,2.628,0.188,3.748,0.19c21.296,0.013,42.591-0.032,63.885,0.078
	c2.668,0.014,4.043-0.839,5.249-3.225c12.269-24.312,21.639-49.706,29.422-75.778c7.439-24.929,12.979-50.278,17.899-75.765
	c2.892-14.981,5.05-30.112,7.212-45.224c1.431-10.013,2.3-20.108,3.392-30.17c1.31-12.091,2.705-24.177,3.837-36.283
	c0.682-7.307,0.98-14.654,1.377-21.985c0.695-12.832,1.341-25.67,1.994-38.506c0.23-4.533,0.495-9.065,0.604-13.603
	c0.27-11.376,0.508-22.752,0.671-34.128c0.255-17.788,0.541-35.576,0.605-53.365c0.034-8.874-0.336-17.75-0.628-26.624
	c-0.376-11.462-0.771-22.925-1.315-34.382c-0.543-11.43-1.188-22.857-1.956-34.273c-0.753-11.187-1.513-22.379-2.641-33.531
	c-1.525-15.091-3.322-30.158-5.159-45.215c-1.173-9.605-2.564-19.187-4.02-28.756c-0.222-1.463-1.316-2.793-2.436-5.047
	c-0.978,4.087-3.236,5.209-6.209,5.506c-1.373,0.14-2.679,0.853-4.056,1.064c-1.891,0.293-3.936,1.898-5.651-0.43
	c-1.602-2.174-1.647-6.022-0.061-8.304c1.539-2.216,2.841-4.667,4.701-6.577c3.088-3.172,3.666-6.441,2.154-10.568
	c-0.686-1.868-1.35-2.053-2.989-1.646c-7.319,1.807-14.668,3.496-21.976,5.347c-0.759,0.192-1.226,1.352-1.992,1.748
	c-1.143,0.588-2.429,0.896-3.654,1.322c-0.162-0.954-0.337-1.904-0.481-2.859c-0.462-3.062-0.78-6.15-1.402-9.178
	c-0.73-3.561-1.719-7.07-2.595-10.603c0.357-0.109,0.715-0.216,1.072-0.325c1.462,3.354,2.923,6.709,4.619,10.603
	c1.34-1.544,2.771-3.016,4-4.643c4.717-6.25,9.457-12.489,13.97-18.884c0.854-1.21,0.908-3.109,0.998-4.708
	c0.117-2.157-0.033-4.335-0.162-6.497c-0.392-6.571-0.838-13.139-1.243-19.711c-0.469-7.593-0.97-15.186-1.317-22.786
	c-0.064-1.403,0.535-2.837,0.96-4.892c5.516,6.114,7.521,13.025,10.1,19.755c2.799,7.308,6.392,14.312,9.687,21.427
	c1.271,2.744,2.746,5.393,3.986,8.149c0.795,1.769,1.604,3.256,3.922,2.964c0.376-0.045,0.858,0.274,1.206,0.539
	c3.22,2.442,6.353,4.983,10.766,4.942c0.624-0.004,1.158,1.324,1.902,1.717c3.634,1.914,7.326,3.722,11.421,5.778
	c-0.29-4.333-0.55-8.246-0.809-12.159c0.216-0.086,0.434-0.176,0.649-0.265c0.651,1.523,1.531,2.993,1.911,4.582
	c0.971,4.073,1.654,8.216,2.603,12.296c0.256,1.098,1.117,2.042,1.577,3.112c0.376,0.872,0.566,1.822,0.837,2.738
	c-1.277,0.135-2.56,0.406-3.831,0.352c-0.734-0.03-1.542-0.979-2.156-0.836c-8.165,1.924-16.301,3.968-24.383,5.968
	c0.121,5.434,1.85,9.41,7.262,11.107c2.042,0.641,3.799,2.215,5.849,2.807c3.596,1.04,4.258,3.933,4.857,6.864
	c0.419,2.055-0.805,3.293-2.769,3.694c-4.047,0.825-8.107,1.58-12.23,2.377c-0.521-1.461-0.815-2.285-1.109-3.108
	c-0.266,0.018-0.535,0.039-0.802,0.057c0,1.864-0.278,3.778,0.047,5.582c1.708,9.443,3.734,18.833,5.333,28.293
	c1.849,10.938,3.432,21.923,5.015,32.905c1.567,10.878,3.077,21.768,4.443,32.673c1.061,8.451,1.852,16.938,2.784,25.405
	c0.849,7.703,1.781,15.397,2.577,23.107c0.54,5.254,0.871,10.53,1.36,15.79c0.857,9.224,1.835,18.437,2.625,27.664
	c0.553,6.458,0.849,12.938,1.313,19.403c0.842,11.73,1.739,23.459,2.582,35.188c0.264,3.672,0.468,7.344,0.637,11.017
	c0.262,5.734,0.461,11.472,0.705,17.205c0.644,15.123,1.287,30.243,1.949,45.364c0.203,4.637,0.562,9.268,0.679,13.904
	c0.269,10.62,0.506,21.241,0.626,31.867c0.269,23.866,0.542,47.733,0.636,71.598c0.037,9.422-0.313,18.849-0.641,28.264
	c-0.35,10.05-0.809,20.094-1.355,30.136c-0.536,9.796-1.059,19.6-1.916,29.373c-1.126,12.847-2.106,25.732-4,38.478
	c-2.365,15.914-5.319,31.759-8.567,47.521c-1.652,8.012-4.504,15.774-6.819,23.651c-0.292,1.001-0.612,1.996-1.024,3.328
	c1.379,0.098,2.322,0.221,3.266,0.223c10.321,0.017,20.642,0.054,30.964-0.027c1.317-0.01,2.769-0.438,3.92-1.091
	c6.292-3.567,12.477-7.33,18.771-10.896c2.75-1.558,4.488-3.483,5.368-6.725c3.043-11.219,7.043-22.205,9.597-33.525
	c3.806-16.876,6.88-33.924,9.898-50.964c1.875-10.581,3.229-21.264,4.519-31.937c0.959-7.931,1.562-15.906,2.109-23.875
	c0.97-14.13,1.81-28.269,2.645-42.407c0.497-8.414,1.188-16.831,1.248-25.251c0.173-23.577,0.135-47.152,0.032-70.731
	c-0.046-10.621-0.305-21.245-0.711-31.856c-0.511-13.399-1.205-26.79-1.944-40.178c-0.543-9.815-1.22-19.627-1.955-29.429
	c-1.021-13.637-2.081-27.27-3.262-40.894c-0.987-11.381-2.034-22.761-3.301-34.113c-1.578-14.118-3.424-28.203-5.124-42.306
	c-1.366-11.335-2.621-22.683-4.093-34.003c-0.24-1.852-1.347-3.592-2.557-5.402c1.211,4.051-1.937,4.665-4.137,5.491
	c-2.592,0.974-5.389,1.499-8.144,1.888c-0.957,0.135-2.382-0.438-3.021-1.179c-1.802-2.09-1.643-5.877,0.029-8.196
	c2.147-2.978,4.217-6.017,6.461-8.922c2.87-3.714,0.006-6.787-0.477-10.359c-8.311,2.04-16.128,3.95-23.936,5.897
	c-0.659,0.165-1.33,0.498-1.863,0.919c-1.228,0.97-2.373,2.043-3.412,2.955c-1.772-8.383-3.38-15.994-4.989-23.604
	c0.282-0.117,0.563-0.234,0.844-0.351c1.577,3.534,3.154,7.066,5.078,11.379c2.821-4.467,5.266-8.633,8.021-12.58
	c1.553-2.225,3.531-4.185,5.486-6.087c1.91-1.858,2.043-4.998,4.756-6.286c0.45-0.214,0.691-1.346,0.654-2.035
	c-0.491-9.273-1.053-18.542-1.588-27.813c-0.451-7.816-0.943-15.629-1.312-23.45c-0.15-3.162-0.025-6.335-0.025-8.689
	c2.907,6.148,6.251,13.052,9.448,20.02c4.163,9.074,8.203,18.204,12.318,27.3c0.759,1.676,1.792,3.246,2.409,4.966
	c0.846,2.368,1.408,4.135,4.809,4.327c2.352,0.134,4.45,2.941,6.865,4.15c5.898,2.958,11.914,5.682,18.069,8.588
	c-0.267-4.184-0.515-8.099-0.762-12.017c0.325-0.061,0.651-0.121,0.978-0.181c1.13,4.462,2.204,8.94,3.413,13.379
	c0.677,2.491,0.182,5.505,3.08,7.12c0.31,0.173,0.287,1.877,0.016,2.005c-1,0.466-2.171,0.758-3.277,0.758
	c-1.68,0.001-3.452-0.726-5.025-0.394c-6.409,1.354-12.739,3.083-19.14,4.484c-2.36,0.516-3.044,1.131-2.609,3.875
	c0.593,3.728,1.993,5.973,5.597,7.282c3.133,1.138,6.067,2.875,8.979,4.538c0.883,0.504,1.717,1.548,2.026,2.518
	c1.873,5.865,1.848,5.992-4.069,7.429c-2.832,0.688-5.779,0.945-8.688,1.23c-0.796,0.078-1.65-0.446-2.669-0.752
	c-2.117,4.823,0.095,9.748,0.653,14.604c1.127,9.819,2.841,19.571,4.327,29.35c1.424,9.358,2.89,18.71,4.293,28.071
	c1.421,9.465,2.795,18.938,4.173,28.409c1.397,9.578,2.772,19.16,4.166,28.74c1.22,8.4,2.46,16.8,3.672,25.201
	c1.505,10.432,3.064,20.853,4.457,31.296c1.235,9.281,2.246,18.594,3.407,27.886c0.977,7.795,2.064,15.572,3.038,23.365
	c0.774,6.191,1.458,12.396,2.17,18.6c0.822,7.161,1.654,14.318,2.44,21.482c0.532,4.816,0.987,9.643,1.485,14.465
	c0.838,8.14,1.729,16.275,2.51,24.419c0.543,5.688,0.937,11.393,1.399,17.089c0.857,10.535,1.73,21.068,2.567,31.604
	c0.283,3.552,0.547,7.104,0.702,10.662c0.477,10.913,1.056,21.824,1.306,32.743c0.545,23.735,0.909,47.473,1.356,71.207
	c0.01,0.615,0.124,1.229,0.284,2.716c2.168-2.403,4.004-4.136,5.482-6.134c9.638-13.012,19.628-25.786,28.643-39.219
	c7.093-10.576,13.069-21.918,19.225-33.09c1.028-1.874,0.657-4.654,0.521-6.992c-0.248-4.3-0.841-8.579-1.22-12.87
	c-1.099-12.449-2.148-24.903-3.248-37.354c-0.854-9.658-1.604-19.331-2.666-28.968c-1.108-10.046-2.573-20.055-3.806-30.085
	c-1.177-9.614-2.063-19.269-3.434-28.854c-1.956-13.728-4.169-27.418-6.397-41.106c-2.334-14.335-4.439-28.722-7.329-42.948
	c-3.556-17.521-7.771-34.907-11.838-52.321c-0.412-1.771-1.725-3.329-3.245-4.754c0,0.887,0,1.77,0,3.223
	c-3.979,1.174-8.02,2.52-12.157,3.471c-0.984,0.229-2.881-0.556-3.308-1.403c-1.248-2.476-2.164-5.097,0.017-7.82
	c2.494-3.116,4.69-6.47,6.967-9.752c1.303-1.877,0.861-7.354-0.804-8.719c-0.521-0.423-1.604-0.438-2.341-0.265
	c-7.45,1.768-14.89,3.586-22.307,5.493c-0.571,0.146-0.848,1.214-1.43,1.593c-1.135,0.74-2.39,1.296-4.541,2.424
	c1.784-9.105-2.988-16.259-3.652-24.146c0.291-0.115,0.581-0.231,0.871-0.347c1.601,3.668,3.201,7.337,4.954,11.352
	c2.704-4.59,7.146-7.755,8.475-13.117c1.993,0.08,7.306-7.031,7.401-10.278c2.618,0.452,3.328-1.692,3.239-3.262
	c-0.788-13.854-1.888-27.69-2.707-41.544c-0.282-4.789-0.045-9.609,0.344-14.409c4.881,5.227,7.021,11.512,9.544,17.719
	c3.691,9.083,8.256,17.811,12.418,26.704c0.866,1.856,1.561,3.791,2.408,5.655c0.328,0.72,0.758,1.821,1.317,1.942
	c4.741,1.022,8.339,4.329,12.665,6.176c4.399,1.876,8.597,4.224,12.895,6.345c0.664,0.327,1.377,0.545,2.121,0.835
	c-0.308-4.175-0.604-8.214-0.9-12.251c0.339-0.062,0.675-0.123,1.008-0.185c1.142,4.498,2.212,9.014,3.441,13.485
	c0.688,2.476,0.164,5.489,3.041,7.122c0.298,0.168,0.163,2.056-0.183,2.205c-0.985,0.429-2.188,0.535-3.286,0.464
	c-1.222-0.082-2.521-0.941-3.612-0.694c-6.938,1.566-13.81,3.43-20.743,5.01c-2.28,0.519-2.28,1.441-2.215,3.613
	c0.183,5.819,5.051,6.654,8.57,8.922c1.901,1.227,4.108,1.979,6.038,3.173c0.89,0.548,1.769,1.53,2.089,2.503
	c1.798,5.439,1.433,6.045-4.146,7.422c-2.191,0.54-4.409,1.133-6.643,1.282c-1.481,0.101-3.013-0.543-5.01-0.953
	c0.191,1.389,0.188,3.092,0.677,4.633c11.73,36.711,22.007,73.83,30.862,111.331c5.843,24.749,11.411,49.566,16.795,74.42
	c2.804,12.942,4.938,26.031,7.404,39.048c0.142,0.75,0.549,1.45,1.218,2.125c17.223-48.964,26.202-98.978,21.536-151.542
	c-3.877,1.905-7.309,3.651-10.794,5.279c-1.639,0.766-3.411,2.585-5.111,0.141c-1.507-2.164-1.634-4.536-0.015-6.652
	c2.296-2.998,4.809-5.825,7.21-8.745c0.538-0.655,1.303-1.337,1.424-2.095c0.723-4.528,1.285-9.084,1.922-13.767
	c-11.197-0.788-22.766-1.599-33.907-2.38c0-7.093,0-14.137,0-21.181c0.295-0.069,0.589-0.138,0.885-0.207
	c0.841,2.433,1.687,4.865,2.774,8.001c4.732-2.483,9.586-5.125,14.53-7.6c5-2.502,10.084-4.834,14.102-6.747
	c0.707-8.22,1.318-15.585,1.979-22.948c0.215-2.349,0.565-4.686,0.842-7.026c1.088-9.17,3.169-18.224,2.148-27.617
	c-0.358-3.305-0.586-7.066,2.371-10.859c0.941,2.445,2.065,4.284,2.334,6.237c0.849,6.167,1.177,12.407,2.112,18.556
	c0.439,2.888,2.022,5.581,2.729,8.45c1.962,8.031,3.785,16.099,5.546,24.179c0.479,2.194,0.78,4.491,0.688,6.721
	c-0.102,2.36,1.049,3.119,2.989,3.859c8.579,3.268,17.813,4.775,25.845,9.557c0.739,0.442,1.815,0.335,2.232,0.402
	c0.664-3.063,1.26-5.786,1.851-8.509c0.299-0.011,0.595-0.021,0.893-0.028c0.861,7.089,1.725,14.179,2.619,21.521
	c-10.821,2.052-22.062,4.182-33.817,6.41c0.445,1.368,0.854,2.5,1.188,3.655c0.758,2.662,1.396,5.363,2.252,7.995
	c0.374,1.14,0.971,2.324,1.782,3.187c2.686,2.839,5.628,5.438,8.235,8.344c0.917,1.023,1.553,2.646,1.624,4.027
	c0.169,3.5-1.729,4.666-4.993,3.423c-3.776-1.436-7.572-2.821-11.801-4.392c0.56,5.728,1.051,10.824,1.556,15.921
	c0.054,0.535,0.235,1.063,0.25,1.597c0.24,10.94,0.699,21.886,0.613,32.823c-0.07,9.071-0.451,18.168-1.303,27.197
	c-1.202,12.734-2.513,25.488-4.591,38.104c-3.086,18.742-6.361,37.488-10.555,56.012c-3.01,13.3-7.937,26.156-11.389,39.375
	c-1.065,4.092-0.457,8.755,0.021,13.083c0.983,8.959,2.421,17.862,3.631,26.798c1.113,8.207,2.258,16.409,3.229,24.633
	c0.792,6.737,1.338,13.507,2.016,20.262c0.844,8.464,1.763,16.923,2.534,25.394c0.407,4.46,0.568,8.938,0.843,13.412
	c0.289,0.091,0.585,0.183,0.878,0.272c3.036-4.767,6.202-9.457,9.079-14.318c13.303-22.487,22.841-46.646,30.287-71.554
	c5.754-19.23,10.606-38.764,15.063-58.342c3.882-17.058,6.912-34.326,9.818-51.585c2.019-12.003,3.342-24.135,4.701-36.239
	c1.48-13.166,2.78-26.358,3.907-39.56c0.884-10.324,1.527-20.676,2.016-31.028c0.597-12.542,0.986-25.094,1.32-37.645
	c0.307-11.603,0.674-23.209,0.548-34.811c-0.124-11.473-0.583-22.955-1.341-34.403c-0.763-11.508-1.869-23.002-3.207-34.454
	c-0.965-8.222-2.521-16.373-3.927-24.535c-0.207-1.199-1.066-2.285-1.933-4.063c-2.446,1.877-4.666,3.467-6.759,5.208
	c-2.157,1.796-4.203,3.729-6.281,5.621c-1.75,1.596-3.267,1.698-4.902-0.298c-2.131-2.598-2.255-5.375-0.909-8.197
	c1.678-3.513,3.778-6.831,5.364-10.381c0.639-1.426,0.565-3.249,0.527-4.885c-0.108-4.471-0.368-8.938-0.585-13.824
	c-13.012,2.109-26.286,4.262-40.279,6.531c0.187-2.123,0.771-4.328,0.462-6.398c-0.409-2.741-1.565-5.364-2.318-8.062
	c-0.921-3.299-1.755-6.622-2.626-9.934c0.29-0.121,0.576-0.245,0.863-0.367c1.326,2.09,2.809,4.101,3.935,6.294
	c1.24,2.406,2.431,2.381,4.114,0.514c1.309-1.45,2.654-2.897,4.154-4.135c6.268-5.166,12.51-10.376,18.967-15.301
	c2.433-1.855,3.659-3.668,2.632-6.678c-3.064-8.942-3.452-18.307-4.602-27.585c-1.282-10.378-0.962-20.987-4.429-31.104
	c-1.232-3.598-1.45-7.559-1.982-11.375c-0.154-1.109,0.199-2.291,0.323-3.439c0.293-0.12,0.591-0.24,0.886-0.359
	c1.094,1.596,2.511,3.062,3.223,4.812c2.552,6.262,4.724,12.68,7.328,18.916c1.218,2.913,3.334,5.439,4.646,8.322
	c5.538,12.161,13.008,23.444,16.664,36.452c0.527,1.874,1.546,2.625,3.372,2.781c4.822,0.412,9.647,0.823,14.453,1.378
	c6.67,0.771,13.324,1.673,20.453,2.58c0-3.121,0-6.603,0-10.087c0.363-0.077,0.729-0.154,1.095-0.232
	c1.405,4.523,2.617,9.122,4.295,13.544c1.228,3.241,3.067,6.252,4.667,9.432c-12.305,5.489-24.584,10.964-37.271,16.622
	c1.609,2.088,2.896,3.767,4.192,5.437c0.462,0.597,1.253,1.121,1.374,1.775c1.472,7.918,8.432,9.969,14.159,13.293
	c3.021,1.755,5,3.925,4.874,7.704c-0.09,2.601-1.288,3.564-3.678,3.284c-4.374-0.512-8.753-1.012-13.104-1.691
	c-3.234-0.504-4.22,0.29-3.209,3.392c4.808,14.751,6.513,30.056,8.188,45.359c0.995,9.099,1.887,18.21,2.597,27.333
	c0.806,10.333,1.446,20.682,1.998,31.03c0.54,10.15,0.979,20.307,1.279,30.465c0.328,11.051,0.409,22.109,0.68,33.164
	c0.124,5.186,0.653,10.367,0.615,15.551c-0.112,16.051-0.312,32.098-0.679,48.145c-0.258,11.245-0.763,22.488-1.309,33.724
	c-0.527,10.896-1.149,21.787-1.909,32.667c-0.75,10.648-1.527,21.299-2.645,31.913c-1.567,14.884-3.172,29.775-5.293,44.587
	c-1.978,13.827-4.578,27.564-7.03,41.321c-4.143,23.24-9.928,46.065-17.608,68.395c-1.672,4.85-3.578,9.615-5.616,15.067
	c2.315,0,4.105,0,5.898,0c14.885-0.003,29.771-0.072,44.655,0.061c2.39,0.021,3.586-0.812,4.36-2.884
	c5.759-15.377,11.985-30.596,17.205-46.153c7.264-21.654,13.286-43.69,17.771-66.116c2.844-14.224,5.866-28.421,8.28-42.72
	c1.984-11.765,3.323-23.648,4.707-35.506c1.454-12.505,2.672-25.041,3.89-37.573c0.406-4.187,0.561-8.402,0.728-12.606
	c0.473-11.676,1.083-23.345,1.28-35.024c0.358-21.153,0.513-42.312,0.626-63.466c0.027-5.84-0.323-11.686-0.613-17.521
	c-0.619-12.401-1.188-24.809-2.008-37.197c-0.688-10.432-1.541-20.855-2.607-31.254c-1.1-10.7-2.562-21.363-3.831-32.045
	c-1.121-9.406-2.06-18.834-3.331-28.218c-1.298-9.583-2.844-19.134-4.396-28.681c-1.954-11.997-3.851-24.007-6.091-35.951
	c-2.28-12.16-4.699-24.303-7.508-36.349c-4.258-18.249-8.901-36.407-13.384-54.604c-1.005-4.075-1.619-4.282-4.769-1.72
	c-3.352,2.722-6.766,5.367-10.062,8.148c-1.931,1.625-3.086,0.834-4.138-0.953c-1.596-2.716-1.889-5.538-0.465-8.373
	c1.557-3.095,3.47-6.027,4.813-9.207c0.731-1.731,0.844-3.833,0.803-5.761c-0.081-4.168-0.435-8.331-0.72-13.144
	c-12.737,2.075-26,4.237-39.423,6.422c-0.116-0.692-0.438-1.366-0.285-1.911c1.634-6.023-1.71-11.097-3.07-16.548
	c-0.433-1.731-0.743-3.492-1.111-5.24c0.35-0.156,0.697-0.311,1.043-0.466c1.247,2.073,2.651,4.069,3.678,6.244
	c0.806,1.718,1.68,2.879,3.191,1.058c6.669-8.027,15.629-13.35,23.533-19.896c3.002-2.489,3.427-4.423,2.288-7.831
	c-2.788-8.352-3.438-17.102-4.022-25.826c-0.354-5.238-0.146-10.551-0.946-15.715c-0.856-5.518-2.816-10.858-3.879-16.355
	c-0.874-4.501-1.134-9.122-1.67-13.688c0.653,0,1.309,0,1.96,0c0.124,0.508,0.167,1.057,0.389,1.519
	c1.667,3.461,3.571,6.823,5.013,10.375c2.192,5.394,3.627,11.134,6.188,16.332c4.083,8.302,9.046,16.169,13.212,24.435
	c2.374,4.708,3.801,9.884,5.887,14.75c0.505,1.172,1.802,2.511,2.968,2.791c2.489,0.594,5.13,0.542,7.704,0.761
	c5.316,0.451,10.652,0.735,15.936,1.416c3.697,0.477,7.326,1.5,11.396,2.365c-0.18-3.848-0.347-7.347-0.511-10.846
	c0.404-0.081,0.809-0.16,1.215-0.241c1.697,5.369,3.371,10.744,5.106,16.101c0.319,0.989,0.798,1.955,1.36,2.831
	c0.863,1.344,1.863,2.6,3.189,4.419c-2.914,0.972-5.154,1.525-7.229,2.443c-9.106,4.023-18.149,8.185-27.253,12.214
	c-2.232,0.986-2.785,1.86-1.038,4.014c1.876,2.313,3.541,4.91,4.725,7.63c1.038,2.375,2.056,4.258,4.604,5.4
	c3.146,1.41,6.283,3.069,8.964,5.199c1.801,1.429,3.336,3.695,4.034,5.889c0.928,2.924-0.733,4.37-3.874,4.042
	c-4.182-0.438-8.349-1.069-12.538-1.369c-3.829-0.272-5.12,1.742-3.836,5.466c0.912,2.655,1.893,5.301,2.578,8.018
	c4.675,18.491,9.455,36.958,13.853,55.516c2.629,11.107,4.675,22.352,6.892,33.556c2.568,12.984,5.175,25.963,7.495,38.994
	c2.533,14.192,4.821,28.432,7.084,42.671c1.704,10.727,3.197,21.482,4.793,32.224c0.811,5.424,1.677,10.837,2.465,16.263
	c0.957,6.592,1.941,13.18,2.758,19.79c1.075,8.749,1.973,17.519,2.992,26.272c0.715,6.103,1.626,12.181,2.232,18.291
	c0.774,7.811,1.233,15.649,2,23.46c0.997,10.151,2.333,20.266,3.202,30.423c1.058,12.345,1.833,24.718,2.626,37.08
	c0.546,8.517,1.003,17.039,1.344,25.564c0.505,12.753,1.207,25.516,1.22,38.271c0.027,24.412-0.374,48.824-0.599,73.236
	c-0.002,0.327-0.008,0.654-0.027,0.979c-0.858,13.124-1.657,26.254-2.599,39.371c-0.46,6.433-1.146,12.851-1.81,19.268
	c-0.65,6.309-1.317,12.614-2.142,18.9c-1.129,8.631-2.312,17.254-3.659,25.849c-1.172,7.479-2.604,14.918-3.927,22.412
	c14.831,0,29.334,0,43.822,0c2.324-8.2,4.962-16.092,6.782-24.169c5.244-23.299,10.718-46.57,15.045-70.046
	c3.843-20.841,6.485-41.912,9.24-62.938c1.543-11.76,2.388-23.617,3.267-35.452c0.862-11.529,1.508-23.083,1.991-34.634
	c0.409-9.75,0.64-19.514,0.619-29.271c-0.027-13.995-0.317-27.993-0.572-41.989c-0.076-4.21-0.407-8.413-0.633-12.622
	c-0.653-12.089-1.27-24.179-1.977-36.266c-0.385-6.47-0.786-12.943-1.425-19.395c-0.944-9.55-2.083-19.081-3.188-28.615
	c-1.081-9.322-1.97-18.68-3.401-27.952c-2.161-14.023-4.583-28.013-7.148-41.971c-2.773-15.111-5.536-30.235-8.852-45.232
	c-3.436-15.537-7.482-30.939-11.385-46.371c-0.599-2.362-1.855-4.559-2.93-7.13c-1.518,0.934-2.409,1.346-3.137,1.953
	c-3.143,2.635-6.212,5.356-9.363,7.986c-1.506,1.257-3.177,2.643-5.146,0.952c-2.152-1.845-2.788-5.718-1.469-8.314
	c1.969-3.863,4.071-7.653,6.017-11.527c0.394-0.782,0.483-1.807,0.437-2.701c-0.193-3.376-0.532-6.744-0.75-10.12
	c-0.088-1.374-0.015-2.759-0.015-4.715c-13.516,2.19-26.539,4.299-38.787,6.285c-1.725-7.947-3.406-15.681-5.255-24.195
	c1.321,1.416,2.067,2.062,2.624,2.849c0.611,0.871,1.142,1.831,1.545,2.821c1.288,3.178,1.836,3.217,4.525,0.892
	c4.312-3.729,7.514-8.552,12.914-11.292c4.044-2.053,7.426-5.557,10.771-8.759c1.081-1.037,1.932-3.433,1.5-4.753
	c-3.801-11.596-3.425-23.803-5.468-35.644c-0.664-3.857-0.091-7.932-0.793-11.777c-1.134-6.232-3.002-12.327-4.25-18.543
	c-0.473-2.358-0.075-4.89-0.075-7.342c0.457-0.104,0.916-0.208,1.379-0.311c1.209,2.078,2.558,4.091,3.605,6.248
	c4.427,9.124,6.615,19.045,12.059,27.969c6.401,10.495,10.439,22.427,15.602,33.69c0.404,0.877,1.497,1.859,2.406,2.011
	c3.697,0.621,7.438,1.039,11.18,1.33c2.74,0.214,5.552-0.175,8.25,0.222c4.452,0.653,8.874,1.604,13.248,2.67
	c2.25,0.548,2.772-0.365,2.702-2.252c-0.101-2.632-0.231-5.263-0.349-7.892c0.218-0.041,0.438-0.079,0.659-0.119
	c2.884,7.64,5.772,15.279,8.729,23.102c-0.011,0.007-0.291,0.391-0.672,0.558c-10.945,4.837-21.862,9.751-32.893,14.39
	c-2.473,1.037-2.011,1.949-0.885,3.507c1.688,2.34,3.976,4.503,4.828,7.125c1.159,3.553,3.312,5.558,6.407,7.156
	c2.97,1.53,5.887,3.214,8.639,5.105c2.498,1.717,3.796,5.5,2.684,7.43c-1.609,2.787-4.149,1.918-6.627,1.475
	c-2.431-0.438-4.909-0.608-7.371-0.872c-2.073-0.222-4.152-0.411-6.667-0.658c11.45,35.384,19.036,71.132,27.213,106.823
	c0.228-0.855,0.457-1.711,0.782-2.908c1.858,2.806,3.522,5.313,5.872,8.859c0.929-1.489,1.367-2.555,2.112-3.322
	c2.785-2.892,5.533-5.854,8.562-8.479c4.124-3.575,8.584-6.768,12.691-10.363c0.842-0.736,1.354-2.747,0.987-3.818
	c-3.368-9.924-3.656-20.342-5.126-30.562c-0.629-4.388-0.533-8.894-1.352-13.237c-1.151-6.129-2.908-12.142-4.252-18.241
	c-0.326-1.484-0.047-3.1-0.047-4.654c0.5-0.097,1.006-0.192,1.509-0.289c1.771,3.138,4.081,6.094,5.205,9.45
	c2.308,6.921,4.876,13.543,8.601,19.953c5.523,9.494,10.003,19.637,14.337,29.754c1.596,3.731,3.771,4.694,7.288,4.755
	c4.765,0.083,9.545,0.191,14.28,0.673c3.948,0.403,7.869,1.235,11.75,2.118c2.543,0.578,2.806-0.128,2.354-2.481
	c-0.405-2.111-0.083-4.363-0.083-6.553c0.164-0.018,0.326-0.038,0.49-0.057c2.699,6.845,5.401,13.69,8.129,20.593
	c-10.571,4.913-21.405,9.949-32.334,15.028c0.365,0.94,0.464,1.356,0.671,1.707c2.062,3.493,4.084,7.008,6.245,10.437
	c0.488,0.771,1.42,1.319,2.245,1.799c1.404,0.814,2.985,1.351,4.318,2.259c2.962,2.021,6.879,2.818,8.306,6.83
	c1.207,3.39,0.28,5.129-3.209,5.147c-1.5,0.009-2.995-0.289-4.498-0.422c-3.268-0.289-6.538-0.562-10.341-0.889
	c0.394,1.511,0.604,2.415,0.866,3.302c6.475,21.842,13.309,43.583,19.317,65.549c5.804,21.196,10.963,42.575,16.017,63.967
	c3.212,13.604,5.785,27.363,8.516,41.081c2.134,10.729,4.102,21.489,6.083,32.246c1.729,9.4,3.435,18.804,5.036,28.228
	c1.421,8.355,2.798,16.727,3.989,25.115c1.054,7.425,1.804,14.893,2.723,22.339c1.263,10.246,2.646,20.477,3.803,30.732
	c0.998,8.89,1.912,17.794,2.576,26.715c0.828,11.086,1.396,22.194,2.005,33.296c0.318,5.831,0.467,11.672,0.76,17.505
	c0.025,0.525,0.547,1.026,0.84,1.536C992.896,764.917,992.896,779.695,992.896,794.471z M855.157,326.297
	c-0.28,1.24-0.442,1.54-0.393,1.799c2.114,11.163,4.321,22.312,6.354,33.491c2.234,12.272,4.352,24.567,6.447,36.865
	c1.392,8.159,2.777,16.326,3.951,24.519c1.071,7.45,1.807,14.949,2.775,22.417c1.223,9.396,2.657,18.762,3.78,28.167
	c1.048,8.768,1.812,17.567,2.705,26.354c1.29,12.75,2.75,25.48,3.823,38.251c1.08,12.899,1.865,25.83,2.617,38.757
	c0.586,10.143,0.993,20.299,1.342,30.457c0.312,9.199,0.61,18.41,0.592,27.611c-0.023,12.353-0.331,24.71-0.573,37.062
	c-0.177,8.985-0.366,17.976-0.694,26.954c-0.352,9.722-0.858,19.438-1.334,29.153c-0.166,3.451-0.343,6.906-0.679,10.346
	c-0.791,8.145-1.652,16.277-2.528,24.414c-0.728,6.744-1.4,13.494-2.314,20.214c-0.479,3.525-0.46,3.82,3,3.822
	c17.815,0.005,35.627,0.003,53.442-0.013c1.038-0.005,2.078-0.14,2.997-0.202c1.474-10.999,3.057-21.629,4.275-32.302
	c1.089-9.521,1.957-19.071,2.597-28.634c0.838-12.501,1.588-25.018,1.941-37.538c0.323-11.438,0.146-22.892,0.048-34.339
	c-0.129-14.854-0.398-29.709-0.608-44.564c-0.008-0.542-0.015-1.087-0.056-1.627c-0.644-9.033-1.29-18.063-1.941-27.097
	c-0.441-6.124-0.774-12.263-1.39-18.371c-0.944-9.42-2.043-18.823-3.156-28.224c-1.083-9.187-2.069-18.393-3.455-27.536
	c-1.943-12.855-4.045-25.697-6.384-38.491c-2.765-15.122-5.564-30.251-8.884-45.262c-3.712-16.812-7.99-33.5-12.102-50.222
	c-0.831-3.377-2.019-6.667-3.237-10.645c-4.071,3.519-7.419,6.53-10.912,9.362c-1.159,0.937-3.568,2.273-3.896,1.938
	c-1.263-1.274-2.739-3.23-2.604-4.797c0.245-2.787,1.312-5.625,2.573-8.173c2.119-4.275,4.624-8.314,2-13.296
	c-0.328-0.626,0.191-1.668,0.207-2.517c0.038-1.966,0.013-3.934,0.013-6.127c-12.361,2.188-24.235,4.289-36.566,6.474
	C859.95,338.154,857.562,332.698,855.157,326.297z M550.864,709.572c-0.29-0.083-0.583-0.167-0.874-0.249
	c-16.017,28.463-35.764,54.076-58.91,77.236c1.685,0.401,3.079,0.403,4.473,0.401c14.99-0.007,29.98-0.014,44.967-0.014
	c7.23,0,7.23,0.011,7.899-7.209c0.01-0.107,0.003-0.216,0.008-0.324c0.858-12.912,1.949-25.812,2.502-38.734
	c0.396-9.324,0.081-18.681,0.073-28.021C551.001,711.63,550.912,710.604,550.864,709.572z M594.822,532.073
	c0.435,0.131,0.871,0.268,1.309,0.397c0.639-1.849,1.487-3.65,1.887-5.552c4.056-19.369,5.592-39.006,5.898-58.75
	c0.086-5.504-0.384-11.019-0.578-16.528c-0.24-6.811-0.326-13.632-0.803-20.425c-0.094-1.365-1.646-2.63-2.525-3.938
	c-0.408,1.193-1.212,2.402-1.167,3.582c0.333,9.506,1.229,19.006,1.175,28.504c-0.072,13.509-0.615,27.026-1.349,40.52
	c-0.349,6.414-1.634,12.777-2.425,19.173C595.709,523.385,595.292,527.731,594.822,532.073z M842.955,307.282
	c0.379-0.061,0.755-0.122,1.131-0.186c-0.303-2.553-0.373-5.161-0.949-7.653c-5.144-22.446-10.258-44.903-15.705-67.275
	c-0.884-3.627-1.268-7.957-5.225-10.426c-0.363,0.699-1.01,1.349-0.895,1.804C828.487,251.469,835.725,279.375,842.955,307.282z
	 M739.907,222.023c0.392-0.094,0.78-0.188,1.169-0.283c0.056-0.314,0.21-0.648,0.156-0.941c-2.126-10.752-3.928-21.582-6.492-32.227
	c-3.834-15.907-8.181-31.69-12.402-47.5c-0.397-1.494-1.479-2.805-2.244-4.201c-0.283,0.086-0.565,0.171-0.852,0.257
	c-0.167,1.338-0.755,2.784-0.441,3.998C725.771,168.108,732.852,195.063,739.907,222.023z M935.854,447.835
	c0.356-0.036,0.713-0.073,1.068-0.108c-0.053-1.012,0.03-2.049-0.177-3.026c-1.414-6.713-2.737-13.452-4.369-20.112
	c-4.937-20.141-9.989-40.253-15.038-60.366c-0.191-0.767-0.689-1.525-1.234-2.109c-0.317-0.34-1.151-0.574-1.518-0.391
	c-0.395,0.197-0.689,0.938-0.705,1.448c-0.021,0.736,0.217,1.488,0.409,2.218c5.398,20.742,10.804,41.486,16.22,62.227
	C932.271,434.358,934.071,441.095,935.854,447.835z M679.481,377.87c0.274-0.051,0.548-0.101,0.822-0.148
	c0.1-0.386,0.28-0.771,0.285-1.157c0.146-13.52,0.131-27.035-1.947-40.438c-2.344-15.092-4.801-30.167-7.22-45.248
	c-0.508-3.173-0.906-3.39-3.265-2.431c2.419,14.829,5.064,29.51,7.131,44.269c1.326,9.472,1.855,19.058,2.632,28.601
	c0.358,4.41,0.398,8.847,0.694,13.264C678.688,375.689,679.184,376.773,679.481,377.87z"/>
</svg>
