<?xml version="1.0" encoding="utf-8"?>
<!-- Generator: Adobe Illustrator 16.0.0, SVG Export Plug-In . SVG Version: 6.00 Build 0)  -->
<!DOCTYPE svg PUBLIC "-//W3C//DTD SVG 1.1//EN" "http://www.w3.org/Graphics/SVG/1.1/DTD/svg11.dtd">
<svg version="1.1" id="Layer_1" xmlns="http://www.w3.org/2000/svg" xmlns:xlink="http://www.w3.org/1999/xlink" x="0px" y="0px"
	 width="640px" height="70px" viewBox="0 0 640 70" enable-background="new 0 0 640 70" xml:space="preserve">
<g>
	<path d="M9.271,27.763l21.159,9.757c0.846,0.404,1.453,0.804,1.818,1.198c0.365,0.395,0.548,0.842,0.548,1.342
		c0,0.577-0.168,1.039-0.505,1.385c-0.337,0.347-0.804,0.52-1.4,0.52c-0.27,0-0.567-0.048-0.895-0.145
		c-0.328-0.096-0.79-0.289-1.386-0.577L5.663,30.534c-0.077-0.019-0.173-0.058-0.289-0.116c-1.771-0.808-2.656-1.693-2.656-2.656
		c0-0.962,0.866-1.828,2.598-2.598c0.154-0.077,0.27-0.134,0.347-0.173L28.61,14.456c0.52-0.25,0.962-0.428,1.328-0.534
		c0.365-0.105,0.683-0.159,0.952-0.159c0.597,0,1.063,0.164,1.4,0.491c0.336,0.327,0.505,0.77,0.505,1.328
		c0,0.52-0.183,0.977-0.548,1.371c-0.366,0.395-0.972,0.785-1.818,1.169L9.271,27.763z"/>
	<path d="M50,31.14c0-1.039,0.178-1.857,0.534-2.454c0.356-0.596,0.967-1.116,1.833-1.559c0.52-0.27,1.289-0.645,2.309-1.126
		c3.791-1.751,5.687-3.8,5.687-6.148c0-1.77-0.625-3.208-1.876-4.315c-1.251-1.106-2.896-1.66-4.936-1.66
		c-1.347,0-2.588,0.178-3.724,0.534c-1.136,0.356-1.829,0.746-2.079,1.169c-0.058,0.116-0.115,0.395-0.173,0.837
		c-0.154,1.732-0.837,2.598-2.05,2.598c-0.635,0-1.14-0.231-1.515-0.693c-0.375-0.462-0.563-1.077-0.563-1.847v-2.829
		c0-1.058,1.039-1.953,3.118-2.684c2.078-0.731,4.608-1.097,7.591-1.097c3.214,0,5.826,0.934,7.837,2.8s3.017,4.282,3.017,7.245
		c0,2.367-0.818,4.363-2.454,5.989c-1.636,1.626-4.378,3.151-8.227,4.575v2.31c0,0.635-0.202,1.15-0.606,1.544
		c-0.404,0.395-0.934,0.592-1.588,0.592c-0.674,0-1.198-0.183-1.573-0.548C50.188,34.008,50,33.498,50,32.843V31.14z M46.825,42.08
		c0-1.27,0.486-2.309,1.458-3.118c0.972-0.808,2.256-1.212,3.854-1.212c1.617,0,2.916,0.399,3.897,1.198
		c0.981,0.799,1.472,1.843,1.472,3.132c0,1.29-0.496,2.338-1.487,3.146c-0.991,0.808-2.285,1.212-3.882,1.212
		c-1.578,0-2.857-0.409-3.839-1.227C47.315,44.395,46.825,43.35,46.825,42.08z"/>
	<path d="M76.498,20.864h25.893c0.577,0,1.024,0.183,1.342,0.548c0.317,0.366,0.476,0.885,0.476,1.559
		c0,0.693-0.159,1.222-0.476,1.587c-0.318,0.366-0.765,0.549-1.342,0.549H76.498c-0.597,0-1.053-0.178-1.371-0.534
		c-0.317-0.356-0.476-0.89-0.476-1.602c0-0.693,0.159-1.217,0.476-1.573C75.445,21.042,75.901,20.864,76.498,20.864z M76.498,30.534
		h25.893c0.577,0,1.024,0.188,1.342,0.562c0.317,0.375,0.476,0.9,0.476,1.573c0,0.693-0.159,1.222-0.476,1.588
		c-0.318,0.366-0.765,0.548-1.342,0.548H76.498c-0.597,0-1.053-0.183-1.371-0.548c-0.317-0.366-0.476-0.895-0.476-1.588
		s0.159-1.222,0.476-1.587C75.445,30.717,75.901,30.534,76.498,30.534z"/>
	<path d="M159.997,20.72c-0.473,0-0.814-0.12-1.023-0.361c-0.208-0.24-0.35-0.726-0.426-1.458l-0.88-10.651V7.903
		c0-0.462,0.113-0.812,0.34-1.053c0.227-0.241,0.559-0.361,0.995-0.361h2.699c0.436,0,0.767,0.12,0.994,0.361
		c0.227,0.241,0.341,0.591,0.341,1.053V8.25l-0.881,10.651c-0.076,0.731-0.218,1.217-0.426,1.458
		c-0.208,0.241-0.549,0.361-1.022,0.361H159.997z"/>
	<path d="M188.958,41.965h1.934c1.135,0,1.934,0.154,2.396,0.461c0.462,0.308,0.693,0.818,0.693,1.53
		c0,0.789-0.202,1.333-0.606,1.631c-0.404,0.298-1.289,0.447-2.655,0.447h-6.322h-1.299c-0.712,0-1.246-0.173-1.602-0.52
		c-0.356-0.346-0.534-0.866-0.534-1.559c0-0.75,0.207-1.27,0.621-1.559c0.414-0.289,1.198-0.433,2.353-0.433h0.52V15.957h-0.461
		c-1.155,0-1.949-0.154-2.381-0.462c-0.433-0.308-0.65-0.847-0.65-1.617c0-0.711,0.178-1.236,0.534-1.573
		c0.356-0.337,0.909-0.505,1.66-0.505h1.241h6.033c1.539,0,2.516,0.149,2.93,0.447c0.414,0.299,0.621,0.842,0.621,1.631
		c0,0.77-0.26,1.309-0.779,1.617c-0.52,0.308-1.501,0.462-2.944,0.462h-1.299v10.045h13.826V15.957h-1.963
		c-1.097,0-1.881-0.164-2.353-0.491s-0.707-0.856-0.707-1.588c0-0.789,0.216-1.332,0.649-1.631c0.433-0.298,1.496-0.447,3.19-0.447
		h5.744h1.299c0.693,0,1.217,0.173,1.573,0.52c0.356,0.347,0.534,0.866,0.534,1.559c0,0.75-0.202,1.285-0.606,1.602
		c-0.404,0.318-1.126,0.477-2.165,0.477h-0.692v26.008h0.461c1.155,0,1.944,0.149,2.367,0.447c0.423,0.298,0.635,0.813,0.635,1.544
		c0,0.789-0.202,1.333-0.606,1.631s-1.338,0.447-2.8,0.447h-5.975c-1.559,0-2.55-0.149-2.973-0.447
		c-0.424-0.298-0.635-0.842-0.635-1.631c0-0.75,0.25-1.27,0.75-1.559c0.5-0.289,1.453-0.433,2.858-0.433h1.414V29.957h-13.826
		V41.965z"/>
	<path d="M221.576,33.969c0.154,2.771,1.092,4.912,2.814,6.423c1.722,1.511,4.075,2.266,7.058,2.266
		c2.251,0,4.705-0.601,7.361-1.804c2.655-1.203,4.262-1.804,4.82-1.804c0.577,0,1.058,0.183,1.443,0.548
		c0.385,0.366,0.577,0.818,0.577,1.357c0,0.558-0.202,1.068-0.606,1.53c-0.404,0.462-1.049,0.914-1.934,1.356
		c-1.924,0.943-3.911,1.665-5.961,2.165c-2.049,0.5-4.084,0.75-6.105,0.75c-4.387,0-7.899-1.265-10.536-3.796
		c-2.637-2.53-3.955-5.883-3.955-10.06c0-4.252,1.395-7.697,4.186-10.334c2.79-2.636,6.427-3.955,10.911-3.955
		c4.06,0,7.428,1.232,10.103,3.695c2.675,2.464,4.013,5.446,4.013,8.948c0,1.078-0.227,1.8-0.679,2.165
		c-0.452,0.366-1.679,0.548-3.68,0.548h-0.433H221.576z M221.72,30.188h18.791c-0.289-2.29-1.246-4.132-2.872-5.528
		c-1.626-1.395-3.623-2.093-5.989-2.093c-2.56,0-4.715,0.674-6.466,2.021C223.433,25.935,222.278,27.802,221.72,30.188z"/>
	<path d="M264.874,12.406h-4.907c-1.867,0-3.036-0.148-3.507-0.447c-0.472-0.298-0.707-0.841-0.707-1.631
		c0-0.693,0.197-1.212,0.592-1.559c0.394-0.347,0.967-0.52,1.717-0.52h9.526c0.52,0,0.923,0.106,1.212,0.317
		c0.289,0.212,0.433,0.5,0.433,0.866v32.532h9.064c0.731,0,1.265,0.159,1.602,0.476c0.336,0.317,0.505,0.823,0.505,1.516
		c0,0.789-0.164,1.333-0.491,1.631s-0.943,0.447-1.847,0.447h-21.303c-0.75,0-1.323-0.173-1.717-0.52
		c-0.395-0.346-0.592-0.866-0.592-1.559c0-0.673,0.202-1.174,0.606-1.501s1.01-0.491,1.818-0.491h7.996V12.406z"/>
	<path d="M300.35,12.406h-4.907c-1.867,0-3.036-0.148-3.507-0.447c-0.472-0.298-0.707-0.841-0.707-1.631
		c0-0.693,0.197-1.212,0.592-1.559c0.394-0.347,0.967-0.52,1.717-0.52h9.526c0.52,0,0.923,0.106,1.212,0.317
		c0.289,0.212,0.433,0.5,0.433,0.866v32.532h9.064c0.731,0,1.265,0.159,1.602,0.476c0.336,0.317,0.505,0.823,0.505,1.516
		c0,0.789-0.164,1.333-0.491,1.631s-0.943,0.447-1.847,0.447h-21.303c-0.75,0-1.323-0.173-1.717-0.52
		c-0.395-0.346-0.592-0.866-0.592-1.559c0-0.673,0.202-1.174,0.606-1.501s1.01-0.491,1.818-0.491h7.996V12.406z"/>
	<path d="M352.914,32.728c0,4.119-1.406,7.486-4.215,10.103c-2.811,2.617-6.457,3.926-10.939,3.926
		c-4.465,0-8.102-1.309-10.912-3.926c-2.811-2.617-4.215-5.984-4.215-10.103c0-4.118,1.404-7.48,4.215-10.088
		c2.811-2.607,6.447-3.911,10.912-3.911c4.463,0,8.105,1.309,10.924,3.926C351.504,25.271,352.914,28.629,352.914,32.728z
		 M337.76,42.715c2.963,0,5.393-0.938,7.287-2.814c1.896-1.876,2.844-4.267,2.844-7.173c0-2.905-0.953-5.306-2.857-7.202
		s-4.33-2.843-7.273-2.843c-2.945,0-5.365,0.948-7.26,2.843c-1.896,1.896-2.844,4.296-2.844,7.202c0,2.925,0.943,5.321,2.828,7.188
		C332.371,41.782,334.795,42.715,337.76,42.715z"/>
	<path d="M408.536,31.371l-3.724,13.711c-0.192,0.731-0.48,1.241-0.865,1.53c-0.386,0.289-0.963,0.433-1.732,0.433
		c-0.692,0-1.231-0.183-1.616-0.548c-0.386-0.366-0.731-1.029-1.039-1.992l-6.61-21.043h-0.26c-0.809,0-1.391-0.159-1.746-0.476
		c-0.356-0.318-0.534-0.852-0.534-1.602c0-0.654,0.188-1.155,0.562-1.501c0.375-0.347,0.929-0.52,1.66-0.52h7.707
		c1.039,0,1.741,0.149,2.107,0.448c0.365,0.298,0.548,0.823,0.548,1.573c0,0.461-0.105,0.861-0.317,1.198
		c-0.212,0.337-0.481,0.544-0.809,0.621c-0.327,0.097-0.707,0.164-1.14,0.202s-0.958,0.058-1.573,0.058h-1.674l4.965,17.319
		l3.724-12.585c0.211-0.731,0.509-1.241,0.895-1.53c0.385-0.289,0.952-0.433,1.703-0.433c0.692,0,1.236,0.188,1.631,0.563
		c0.395,0.375,0.745,1.035,1.054,1.977l3.608,12.008l4.763-17.319h-0.693h-1.241c-1.327,0-2.223-0.149-2.685-0.447
		s-0.692-0.842-0.692-1.631c0-0.77,0.173-1.299,0.52-1.588s1.02-0.433,2.021-0.433h7.736c0.596,0,1.043,0.173,1.342,0.52
		c0.298,0.346,0.447,0.847,0.447,1.501c0,0.731-0.173,1.251-0.52,1.559c-0.347,0.308-1.001,0.481-1.963,0.52l-6.494,21.62
		c-0.251,0.731-0.563,1.241-0.938,1.53s-0.938,0.433-1.688,0.433c-0.693,0-1.241-0.188-1.646-0.563
		c-0.404-0.375-0.741-1.034-1.011-1.977L408.536,31.371z"/>
	<path d="M459.34,32.728c0,4.119-1.405,7.486-4.215,10.103c-2.81,2.617-6.456,3.926-10.939,3.926c-4.465,0-8.102-1.309-10.911-3.926
		c-2.811-2.617-4.215-5.984-4.215-10.103c0-4.118,1.404-7.48,4.215-10.088c2.81-2.607,6.446-3.911,10.911-3.911
		c4.464,0,8.105,1.309,10.925,3.926S459.34,28.629,459.34,32.728z M444.186,42.715c2.963,0,5.393-0.938,7.288-2.814
		c1.896-1.876,2.844-4.267,2.844-7.173c0-2.905-0.953-5.306-2.858-7.202c-1.904-1.896-4.329-2.843-7.273-2.843
		s-5.364,0.948-7.26,2.843s-2.844,4.296-2.844,7.202c0,2.925,0.943,5.321,2.829,7.188C438.797,41.782,441.222,42.715,444.186,42.715
		z"/>
	<path d="M476.832,41.965h9.583c0.751,0,1.304,0.159,1.66,0.476c0.355,0.317,0.534,0.823,0.534,1.516
		c0,0.789-0.169,1.333-0.506,1.631s-0.957,0.447-1.861,0.447h-18.878c-0.751,0-1.318-0.173-1.703-0.52s-0.577-0.866-0.577-1.559
		c0-0.673,0.197-1.174,0.592-1.501c0.394-0.327,1.005-0.491,1.833-0.491h5.022V23.462h-1.963c-1.867,0-3.031-0.149-3.493-0.447
		s-0.692-0.842-0.692-1.631c0-0.673,0.188-1.179,0.562-1.516c0.376-0.336,0.948-0.505,1.718-0.505h6.581
		c0.52,0,0.914,0.101,1.184,0.303s0.404,0.496,0.404,0.88v4.907c1.828-2.29,3.733-3.993,5.716-5.109
		c1.981-1.116,4.117-1.674,6.407-1.674c1.713,0,3.099,0.346,4.157,1.039c1.058,0.693,1.588,1.587,1.588,2.685
		c0,0.712-0.266,1.342-0.794,1.891c-0.53,0.548-1.111,0.823-1.747,0.823c-0.442,0-1.188-0.293-2.236-0.88
		c-1.05-0.587-1.987-0.88-2.814-0.88c-1.501,0-3.084,0.534-4.749,1.602c-1.664,1.068-3.507,2.756-5.527,5.065V41.965z"/>
	<path d="M513.202,12.406h-4.907c-1.866,0-3.035-0.148-3.507-0.447c-0.472-0.298-0.707-0.841-0.707-1.631
		c0-0.693,0.197-1.212,0.592-1.559c0.395-0.347,0.967-0.52,1.718-0.52h9.525c0.52,0,0.924,0.106,1.212,0.317
		c0.289,0.212,0.434,0.5,0.434,0.866v32.532h9.063c0.731,0,1.265,0.159,1.602,0.476s0.506,0.823,0.506,1.516
		c0,0.789-0.164,1.333-0.491,1.631s-0.943,0.447-1.848,0.447h-21.303c-0.75,0-1.323-0.173-1.717-0.52
		c-0.395-0.346-0.592-0.866-0.592-1.559c0-0.673,0.202-1.174,0.606-1.501c0.403-0.327,1.01-0.491,1.818-0.491h7.995V12.406z"/>
	<path d="M559.301,46.035c-0.404,0-0.688-0.101-0.852-0.303c-0.164-0.202-0.245-0.592-0.245-1.169v-2.367
		c-1.155,1.443-2.599,2.564-4.33,3.363c-1.732,0.798-3.608,1.198-5.629,1.198c-3.637,0-6.683-1.294-9.136-3.882
		c-2.454-2.588-3.681-5.807-3.681-9.656c0-3.983,1.309-7.298,3.926-9.944s5.879-3.969,9.785-3.969c1.982,0,3.763,0.352,5.341,1.054
		c1.577,0.703,2.934,1.737,4.069,3.103V12.406h-1.529c-1.675,0-2.757-0.148-3.248-0.447c-0.49-0.298-0.735-0.841-0.735-1.631
		c0-0.693,0.196-1.212,0.592-1.559c0.394-0.347,0.967-0.52,1.717-0.52h5.918c0.577,0,0.995,0.096,1.255,0.289
		s0.391,0.491,0.391,0.895v32.532h1.299c0.942,0,1.626,0.159,2.049,0.476s0.636,0.823,0.636,1.516c0,0.654-0.184,1.165-0.549,1.53
		c-0.366,0.366-0.856,0.548-1.473,0.548H559.301z M540.394,33.074c0,2.655,0.856,4.831,2.569,6.523
		c1.712,1.694,3.887,2.54,6.523,2.54c2.655,0,4.84-0.88,6.553-2.641c1.712-1.761,2.568-3.998,2.568-6.711
		c0-2.675-0.852-4.878-2.555-6.61c-1.702-1.732-3.892-2.598-6.566-2.598c-2.714,0-4.907,0.876-6.581,2.627
		C541.23,27.956,540.394,30.245,540.394,33.074z"/>
	<path d="M585.704,20.72c-0.474,0-0.814-0.12-1.023-0.361c-0.208-0.24-0.35-0.726-0.426-1.458L583.374,8.25V7.903
		c0-0.462,0.113-0.812,0.341-1.053s0.559-0.361,0.994-0.361h2.699c0.436,0,0.767,0.12,0.994,0.361s0.341,0.591,0.341,1.053V8.25
		l-0.881,10.651c-0.076,0.731-0.218,1.217-0.426,1.458c-0.209,0.241-0.549,0.361-1.022,0.361H585.704z"/>
	<path d="M617.955,38.992c0.173-0.635,0.375-1.04,0.606-1.212c0.23-0.173,0.625-0.26,1.184-0.26h5.975
		c0.25,0,0.457,0.058,0.621,0.173c0.163,0.116,0.245,0.26,0.245,0.433c0,0.058-0.02,0.164-0.058,0.317
		c-0.039,0.154-0.097,0.299-0.174,0.433l-7.447,15.501c-0.154,0.308-0.322,0.529-0.505,0.664s-0.409,0.202-0.679,0.202
		c-0.153,0-0.273-0.005-0.36-0.014c-0.087-0.01-0.159-0.024-0.217-0.043l-1.905-0.693c-0.288-0.115-0.505-0.26-0.649-0.433
		c-0.144-0.173-0.216-0.366-0.216-0.577c0-0.077,0.004-0.164,0.015-0.26c0.009-0.097,0.043-0.25,0.101-0.462L617.955,38.992z
		 M615.732,25.338c0-1.501,0.524-2.732,1.573-3.695s2.41-1.443,4.084-1.443c1.713,0,3.099,0.476,4.157,1.429
		c1.058,0.953,1.587,2.189,1.587,3.709s-0.529,2.756-1.587,3.709c-1.059,0.953-2.444,1.429-4.157,1.429
		c-1.693,0-3.06-0.471-4.099-1.414S615.732,26.878,615.732,25.338z"/>
</g>
<g>
</g>
<g>
</g>
<g>
</g>
<g>
</g>
<g>
</g>
<g>
</g>
<g>
</g>
<g>
</g>
<g>
</g>
<g>
</g>
<g>
</g>
<g>
</g>
<g>
</g>
<g>
</g>
<g>
</g>
</svg>
