<?xml version="1.0" encoding="utf-8"?>
<!-- Generator: Adobe Illustrator 16.0.0, SVG Export Plug-In . SVG Version: 6.00 Build 0)  -->
<!DOCTYPE svg PUBLIC "-//W3C//DTD SVG 1.1//EN" "http://www.w3.org/Graphics/SVG/1.1/DTD/svg11.dtd">
<svg version="1.1" xmlns="http://www.w3.org/2000/svg" xmlns:xlink="http://www.w3.org/1999/xlink" x="0px" y="0px" width="900px"
	 height="900px" viewBox="0 0 900 900" enable-background="new 0 0 900 900" xml:space="preserve">
<g id="Layer_1">
	<g>
		<path fill="#464670" d="M262.609,557.145c1.424,0.969,2.89,2.082,4.408,3.262c0.148,0.107,0.291,0.224,0.42,0.329
			c24.006,18.95,58.491,63.205,58.491,121.618v62.034h108.563v-374.83c-26.703-6.927-46.512-30.969-46.512-59.822
			c0-34.242,27.765-62.02,62.02-62.02c34.261,0,62.02,27.777,62.02,62.02c0,28.854-19.81,52.896-46.512,59.822v374.83h108.563
			v-62.034c0-62.043,35.832-106.546,62.033-124.24l-0.078-0.094c75.318-56.549,124.147-146.405,124.147-247.846
			C760.173,138.887,621.321,0,450,0S139.827,138.887,139.827,310.173c0,100.884,48.315,190.293,122.918,246.9L262.609,557.145z"/>
		<rect x="325.929" y="775.404" fill="#464670" width="248.143" height="124.596"/>
	</g>
</g>
<g id="Layer_2">
</g>
<g id="Layer_3">
</g>
</svg>
