<?xml version="1.0" encoding="utf-8"?>
<!-- Generator: Adobe Illustrator 16.0.0, SVG Export Plug-In . SVG Version: 6.00 Build 0)  -->
<!DOCTYPE svg PUBLIC "-//W3C//DTD SVG 1.1//EN" "http://www.w3.org/Graphics/SVG/1.1/DTD/svg11.dtd">
<svg version="1.1" xmlns="http://www.w3.org/2000/svg" xmlns:xlink="http://www.w3.org/1999/xlink" x="0px" y="0px" width="900px"
	 height="900px" viewBox="0 0 900 900" enable-background="new 0 0 900 900" xml:space="preserve">
<g id="Layer_1">
</g>
<g id="Layer_2">
	<path fill="#464670" d="M896.707,401.701c0,90.187-72.88,163.298-162.964,163.764v0.044H181.848
		c-98.607-0.102-178.555-80.05-178.555-178.7c0-78.406,50.568-144.856,120.786-168.941c9.541-56.256,58.379-99.146,117.34-99.146
		c19.213,0,37.306,4.654,53.376,12.74C331.955,53.798,411.044,0,502.903,0c127.491,0,230.84,103.363,230.84,230.84
		c0,2.386-0.291,4.698-0.35,7.068C823.653,238.185,896.707,311.398,896.707,401.701z M431.204,304.956V900h37.597V304.956
		l145.671,145.673l26.577-26.58L450.002,233L258.951,424.049l26.581,26.58L431.204,304.956z"/>
</g>
<g id="Layer_3">
</g>
</svg>
