<?xml version="1.0" encoding="utf-8"?>
<!-- Generator: Adobe Illustrator 16.0.0, SVG Export Plug-In . SVG Version: 6.00 Build 0)  -->
<!DOCTYPE svg PUBLIC "-//W3C//DTD SVG 1.1//EN" "http://www.w3.org/Graphics/SVG/1.1/DTD/svg11.dtd">
<svg version="1.1" xmlns="http://www.w3.org/2000/svg" xmlns:xlink="http://www.w3.org/1999/xlink" x="0px" y="0px" width="900px"
	 height="900px" viewBox="0 0 900 900" enable-background="new 0 0 900 900" xml:space="preserve">
<g id="Layer_1">
</g>
<g id="Layer_2">
</g>
<g id="Layer_3">
	<g>
		<path fill="#706F7F" d="M126.301,462.938l-8.597,1.372v2.743l8.597,1.371l261.497,99.044v109.938L9.124,509.106v-88.221
			l378.674-168.3v109.485L126.301,462.938z"/>
		<path fill="#706F7F" d="M630.978,561.642c0.297-43.128,5.274-73.97,14.931-92.519c9.648-18.549,31.061-41.849,64.243-69.899
			c23.525-22.918,42.223-44.86,56.099-65.827c13.871-20.96,20.812-44.111,20.812-69.446c0-29.251-7.917-51.95-23.751-68.089
			c-15.836-16.131-38.385-24.205-67.637-24.205c-25.039,0-46.303,6.864-63.791,20.585c-17.496,13.728-26.24,34.009-26.24,60.85
			H499.775l-1.356-2.714c-0.905-53.682,17.114-95.531,54.063-125.546c36.943-30.008,84.674-45.016,143.191-45.016
			c63.338,0,112.723,16.139,148.167,48.409C879.277,160.502,897,205.292,897,262.594c0,38.307-11.084,73.822-33.253,106.544
			c-22.168,32.73-50.147,62.66-83.923,89.804c-17.193,15.087-27.98,29.408-32.35,42.98c-4.375,13.573-6.559,33.479-6.559,59.719
			H630.978z M742.725,748.039H630.525V642.625h112.199V748.039z"/>
	</g>
</g>
</svg>
