<?xml version="1.0" encoding="utf-8"?>
<!-- Generator: Adobe Illustrator 16.0.0, SVG Export Plug-In . SVG Version: 6.00 Build 0)  -->
<!DOCTYPE svg PUBLIC "-//W3C//DTD SVG 1.1//EN" "http://www.w3.org/Graphics/SVG/1.1/DTD/svg11.dtd">
<svg version="1.1" id="Layer_1" xmlns="http://www.w3.org/2000/svg" xmlns:xlink="http://www.w3.org/1999/xlink" x="0px" y="0px"
	 width="120px" height="120px" viewBox="0 0 120 120" enable-background="new 0 0 120 120" xml:space="preserve">
<g>
	<g>
		
			<radialGradient id="SVGID_1_" cx="213.4219" cy="-111.7412" r="125.5197" gradientTransform="matrix(1 0 0 -1 -146 -130)" gradientUnits="userSpaceOnUse">
			<stop  offset="0" style="stop-color:#BCE2F7"/>
			<stop  offset="0.681" style="stop-color:#17A6DE"/>
			<stop  offset="1" style="stop-color:#007EA9"/>
		</radialGradient>
		<path fill="url(#SVGID_1_)" d="M40.42,106.63l-0.645-0.457l-0.633,0.457c-0.178,0.13-0.491,0.414-0.491,0.902
			c0,0.626,0.507,1.127,1.124,1.127c0.629,0,1.127-0.501,1.127-1.127C40.902,107.044,40.597,106.76,40.42,106.63z"/>
		
			<radialGradient id="SVGID_2_" cx="213.3818" cy="-111.7515" r="125.5618" gradientTransform="matrix(1 0 0 -1 -146 -130)" gradientUnits="userSpaceOnUse">
			<stop  offset="0" style="stop-color:#BCE2F7"/>
			<stop  offset="0.681" style="stop-color:#17A6DE"/>
			<stop  offset="1" style="stop-color:#007EA9"/>
		</radialGradient>
		<path fill="url(#SVGID_2_)" d="M35.218,31.895l1.439-0.933l0.321-0.112l-1.784-0.967c-0.456-0.235-1.095-0.363-1.797-0.346
			c0.159,0.476,0.412,0.949,0.792,1.33L35.218,31.895z"/>
		
			<radialGradient id="SVGID_3_" cx="213.3262" cy="-111.6294" r="125.6187" gradientTransform="matrix(1 0 0 -1 -146 -130)" gradientUnits="userSpaceOnUse">
			<stop  offset="0" style="stop-color:#BCE2F7"/>
			<stop  offset="0.681" style="stop-color:#17A6DE"/>
			<stop  offset="1" style="stop-color:#007EA9"/>
		</radialGradient>
		<path fill="url(#SVGID_3_)" d="M75.337,106.63l-0.642-0.457l-0.641,0.457c-0.178,0.13-0.486,0.414-0.486,0.902
			c0,0.626,0.505,1.127,1.127,1.127c0.617,0,1.127-0.501,1.127-1.127C75.822,107.03,75.479,106.729,75.337,106.63z"/>
		<path fill="#4CAE4D" d="M116.542,47.49l-0.038-0.38c-0.065-0.498-0.166-0.99-0.309-1.472c-0.063-0.206-0.131-0.387-0.195-0.544
			c-0.078-0.228-0.157-0.436-0.242-0.617c-0.09-0.191-0.188-0.38-0.283-0.553c-0.04-0.072-0.082-0.146-0.129-0.222
			c-0.204-0.363-0.438-0.697-0.675-1.005l-11.575-13.429c-1.729-1.992-4.241-3.147-6.882-3.147c-0.682,0-1.357,0.078-2.014,0.222
			l-0.57-4.448c-0.443-3.354-2.565-6.225-5.594-7.643L77.042,7.414c-1.124-4.278-5.018-7.373-9.516-7.373
			c-0.438,0-0.874,0.03-1.285,0.093l-1.354,0.166c-4.928,0.658-8.544,4.905-8.553,9.765l-6.63,6.987
			c-1.884-1.599-4.259-2.542-6.749-2.542c-3.086,0-5.939,1.378-7.972,3.806c-2.219-0.207-4.546,0.064-6.813,0.785l-5.312,1.683
			l-0.8,5.522c-0.336,2.344-0.099,5.373,1.21,8.27c-0.565,0.848-1.064,1.731-1.526,2.628l-1.581-2.438
			c-1.691-2.604-4.538-4.138-7.633-4.138c-1.761,0-3.478,0.498-4.956,1.455c-2.046,1.33-3.438,3.371-3.944,5.744
			c-0.511,2.383-0.056,4.813,1.265,6.837l5.214,8.039c0.056,0.111,0.114,0.213,0.174,0.317L31.519,85.84
			c1.101,1.702,2.702,2.946,4.538,3.606h-6.113c-5.017,0-9.099,4.091-9.099,9.116c0,4.114,2.753,7.61,6.522,8.721
			c0,0.077-0.002,0.174-0.002,0.251c0,6.854,5.565,12.422,12.41,12.422c6.807,0,12.346-5.504,12.409-12.311H62.28
			c0.065,6.807,5.606,12.311,12.415,12.311c6.847,0,12.404-5.568,12.404-12.422c0-0.237-0.007-0.474-0.014-0.71
			c1.904-0.871,3.492-2.404,4.421-4.35l8.451-17.662c0.031-0.064,0.052-0.129,0.075-0.191c0.313-0.545,0.604-1.124,0.824-1.741
			c0.664-1.835,0.815-3.812,0.439-5.711c-0.528-2.604-1.989-4.778-4.12-6.156c-0.367-0.228-0.746-0.428-1.138-0.601
			c0.058,0,0.114,0,0.166,0c2.649,0,5.162-1.142,6.891-3.148l11.272-13.046l0.173-0.198c0.047-0.064,0.096-0.129,0.147-0.207
			c0.02-0.024,0.044-0.055,0.067-0.078l0.122-0.175c0.208-0.286,0.396-0.584,0.574-0.911l0.273-0.53
			c0.197-0.426,0.358-0.861,0.49-1.298c0.055-0.18,0.094-0.353,0.139-0.537c0.085-0.387,0.146-0.761,0.178-1.14l0.039-0.403
			C116.579,48.32,116.576,47.902,116.542,47.49z"/>
	</g>
	<g>
		<path fill="#FFFFFF" d="M110.915,47.958c0-0.049,0-0.087-0.009-0.145c-0.023-0.189-0.063-0.379-0.123-0.57
			c-0.016-0.054-0.04-0.11-0.067-0.156c-0.03-0.095-0.052-0.177-0.092-0.253c-0.014-0.049-0.055-0.096-0.077-0.142
			c-0.028-0.064-0.062-0.129-0.104-0.184c-0.086-0.167-0.198-0.317-0.33-0.466c-0.002-0.009-0.014-0.024-0.014-0.033L98.829,32.955
			c-1.256-1.447-3.435-1.597-4.879-0.348c-1.448,1.243-1.602,3.418-0.361,4.865l6.344,7.342h-9.057l-2.849-22.184
			c-0.206-1.544-1.221-2.825-2.626-3.379L71.867,10.84l-0.182-1.463c-0.297-2.278-2.366-3.956-4.728-3.656L65.64,5.896
			c-2.293,0.309-3.916,2.428-3.632,4.721l0.191,1.464L50.769,24.118c-1.119,1.195-1.447,2.903-0.905,4.357l0.003,0.049
			c-0.312-0.049-0.641-0.118-0.964-0.166c-0.666-0.105-1.341-0.167-2.01-0.215c0.038-0.143,0.083-0.253,0.105-0.348
			c0.974-1.202,1.183-2.864,0.519-4.448c-0.788-1.906-2.627-3.194-4.562-3.194c-0.917,0-2.67,0.29-4.027,2.285
			c-0.237,0.341-0.705,1.02-1.061,2.478c-2.087-1.124-4.92-1.409-7.987-0.445l-1.953,0.634l-0.291,2.011
			c-0.327,2.26,0.265,5.441,2.568,7.736c-2.595,2.785-4.406,6.204-5.221,9.96h-5.028l-4.535-6.977
			c-1.037-1.606-3.169-2.049-4.776-1.012c-1.601,1.035-2.056,3.172-1.008,4.771l5.404,8.338c0.04,0.063,0.059,0.143,0.095,0.205
			l21.117,32.629c0.637,1,1.734,1.585,2.901,1.585h47.102l-5.133,10.744H29.944c-1.914,0-3.458,1.55-3.458,3.465
			c0,1.899,1.543,3.442,3.458,3.442h5.95c-1.741,1.227-2.885,3.243-2.885,5.528c0,3.753,3.031,6.776,6.766,6.776
			c3.733,0,6.777-3.023,6.777-6.776c0-2.285-1.149-4.302-2.894-5.528h27.151c-1.745,1.227-2.887,3.243-2.887,5.528
			c0,3.753,3.034,6.776,6.771,6.776c3.736,0,6.765-3.023,6.765-6.776c0-2.285-1.141-4.302-2.879-5.528h4.72
			c1.329,0,2.539-0.768,3.114-1.962l8.449-17.651c0.505-1.079,0.434-2.329-0.2-3.341c-0.632-0.996-1.731-1.607-2.921-1.607H41.034
			l-1.362-2.094c-0.086-0.237-0.189-0.462-0.328-0.681l-4.716-7.249l-9.957-15.34l-0.233-0.364h0.198h6.576h53.981h6.574h8.166
			l-6.344,7.344c-1.243,1.445-1.087,3.63,0.361,4.881c1.444,1.24,3.623,1.091,4.879-0.372L110.1,50.521
			c0.014-0.033,0.044-0.056,0.062-0.099c0.051-0.046,0.084-0.101,0.123-0.14c0.089-0.126,0.159-0.246,0.239-0.386
			c0.026-0.049,0.054-0.104,0.089-0.154c0.073-0.171,0.146-0.354,0.199-0.542c0.017-0.042,0.017-0.088,0.02-0.12
			c0.039-0.158,0.073-0.318,0.084-0.474c0.014-0.057,0.014-0.111,0.02-0.177C110.935,48.274,110.935,48.113,110.915,47.958z
			 M31.741,44.815c1.042-3.188,3.121-5.965,5.97-7.815l1.451-0.943l1.698-0.601c0.286-0.094,0.567-0.189,0.847-0.27l0.906-0.251
			l0.87-0.144c1.465-0.205,2.96-0.205,4.436,0.018c1.519,0.235,2.994,0.711,4.378,1.408l5.491,2.761l-1.443-11.26l11.263-11.852
			l14.111,8.769l2.579,20.182H31.741z"/>
	</g>
</g>
<g>
</g>
<g>
</g>
<g>
</g>
<g>
</g>
<g>
</g>
<g>
</g>
<g>
</g>
<g>
</g>
<g>
</g>
<g>
</g>
<g>
</g>
<g>
</g>
<g>
</g>
<g>
</g>
<g>
</g>
</svg>
