<?xml version="1.0" encoding="utf-8"?>
<!-- Generator: Adobe Illustrator 16.0.0, SVG Export Plug-In . SVG Version: 6.00 Build 0)  -->
<!DOCTYPE svg PUBLIC "-//W3C//DTD SVG 1.1//EN" "http://www.w3.org/Graphics/SVG/1.1/DTD/svg11.dtd">
<svg version="1.1" id="Layer_1" xmlns="http://www.w3.org/2000/svg" xmlns:xlink="http://www.w3.org/1999/xlink" x="0px" y="0px"
	 width="405.806px" height="108px" viewBox="260.875 0 405.806 108" enable-background="new 260.875 0 405.806 108"
	 xml:space="preserve">
<g>
	<g>
		<g>
			
				<radialGradient id="SVGID_1_" cx="450.6982" cy="-24.2825" r="85.885" gradientTransform="matrix(1 0 0 -1 -146 -24.771)" gradientUnits="userSpaceOnUse">
				<stop  offset="0" style="stop-color:#BCE2F7"/>
				<stop  offset="0.681" style="stop-color:#17A6DE"/>
				<stop  offset="1" style="stop-color:#007EA9"/>
			</radialGradient>
			<path fill="url(#SVGID_1_)" d="M286.208,84.962l-0.441-0.313l-0.433,0.313c-0.122,0.088-0.336,0.283-0.336,0.618
				c0,0.429,0.347,0.771,0.77,0.771c0.431,0,0.772-0.341,0.772-0.771C286.538,85.244,286.329,85.05,286.208,84.962z"/>
			
				<radialGradient id="SVGID_2_" cx="450.6592" cy="-24.2185" r="85.9725" gradientTransform="matrix(1 0 0 -1 -146 -24.771)" gradientUnits="userSpaceOnUse">
				<stop  offset="0" style="stop-color:#BCE2F7"/>
				<stop  offset="0.681" style="stop-color:#17A6DE"/>
				<stop  offset="1" style="stop-color:#007EA9"/>
			</radialGradient>
			<path fill="url(#SVGID_2_)" d="M282.645,33.786l0.986-0.639l0.219-0.077l-1.222-0.662c-0.312-0.161-0.75-0.249-1.23-0.238
				c0.108,0.326,0.282,0.65,0.542,0.911L282.645,33.786z"/>
			
				<radialGradient id="SVGID_3_" cx="450.6294" cy="-24.2058" r="85.95" gradientTransform="matrix(1 0 0 -1 -146 -24.771)" gradientUnits="userSpaceOnUse">
				<stop  offset="0" style="stop-color:#BCE2F7"/>
				<stop  offset="0.681" style="stop-color:#17A6DE"/>
				<stop  offset="1" style="stop-color:#007EA9"/>
			</radialGradient>
			<path fill="url(#SVGID_3_)" d="M310.116,84.962l-0.438-0.313l-0.439,0.313c-0.122,0.088-0.333,0.283-0.333,0.618
				c0,0.429,0.347,0.771,0.772,0.771c0.422,0,0.771-0.341,0.771-0.771C310.449,85.234,310.214,85.03,310.116,84.962z"/>
			<path fill="#4CAE4D" d="M338.332,44.465l-0.026-0.26c-0.044-0.341-0.114-0.678-0.211-1.008c-0.043-0.141-0.089-0.265-0.133-0.373
				c-0.054-0.156-0.108-0.298-0.167-0.423c-0.06-0.13-0.128-0.26-0.192-0.378c-0.027-0.05-0.057-0.1-0.089-0.152
				c-0.139-0.249-0.299-0.477-0.461-0.688l-7.927-9.195c-1.184-1.364-2.904-2.155-4.713-2.155c-0.465,0-0.929,0.053-1.378,0.152
				l-0.391-3.046c-0.303-2.297-1.755-4.263-3.83-5.233l-7.529-4.681c-0.77-2.93-3.436-5.048-6.516-5.048
				c-0.3,0-0.598,0.021-0.879,0.064l-0.927,0.113c-3.375,0.451-5.851,3.359-5.856,6.687l-4.54,4.784
				c-1.29-1.095-2.917-1.74-4.621-1.74c-2.113,0-4.067,0.943-5.459,2.606c-1.52-0.142-3.113,0.043-4.665,0.537l-3.638,1.152
				l-0.548,3.781c-0.23,1.605-0.067,3.68,0.829,5.663c-0.387,0.58-0.729,1.185-1.045,1.799l-1.083-1.669
				c-1.158-1.783-3.107-2.833-5.226-2.833c-1.206,0-2.381,0.341-3.394,0.997c-1.401,0.911-2.354,2.309-2.701,3.933
				c-0.35,1.632-0.039,3.295,0.867,4.682l3.57,5.504c0.039,0.076,0.078,0.146,0.119,0.217l14.542,22.472
				c0.754,1.167,1.85,2.018,3.107,2.47h-4.186c-3.435,0-6.23,2.802-6.23,6.243c0,2.817,1.885,5.212,4.466,5.971
				c0,0.054-0.001,0.119-0.001,0.172c0,4.693,3.811,8.506,8.498,8.506c4.661,0,8.454-3.77,8.498-8.43h6.913
				c0.043,4.661,3.839,8.43,8.501,8.43c4.688,0,8.495-3.813,8.495-8.506c0-0.161-0.005-0.324-0.01-0.486
				c1.305-0.596,2.392-1.646,3.028-2.979l5.787-12.093c0.022-0.044,0.035-0.087,0.052-0.131c0.214-0.373,0.414-0.769,0.563-1.192
				c0.455-1.257,0.559-2.611,0.301-3.911c-0.36-1.783-1.36-3.272-2.819-4.216c-0.252-0.156-0.513-0.292-0.781-0.411
				c0.041,0,0.079,0,0.114,0c1.814,0,3.535-0.782,4.719-2.156l7.718-8.934l0.119-0.136c0.033-0.043,0.065-0.088,0.101-0.142
				c0.013-0.017,0.03-0.038,0.046-0.053l0.084-0.12c0.143-0.195,0.271-0.4,0.393-0.624l0.187-0.363
				c0.136-0.292,0.247-0.589,0.336-0.889c0.039-0.123,0.064-0.242,0.095-0.368c0.06-0.265,0.101-0.521,0.122-0.78l0.027-0.276
				C338.356,45.034,338.354,44.747,338.332,44.465z"/>
		</g>
		<g>
			<path fill="#FFFFFF" d="M334.478,44.785c0-0.033,0-0.06-0.006-0.099c-0.016-0.129-0.043-0.26-0.084-0.39
				c-0.01-0.037-0.026-0.075-0.045-0.107c-0.021-0.065-0.035-0.121-0.062-0.173c-0.01-0.034-0.038-0.066-0.053-0.097
				c-0.02-0.044-0.044-0.088-0.071-0.126c-0.059-0.114-0.135-0.217-0.226-0.319c-0.001-0.006-0.011-0.017-0.011-0.022l-7.717-8.939
				c-0.859-0.991-2.351-1.094-3.339-0.238c-0.993,0.851-1.098,2.34-0.248,3.332l4.343,5.028h-6.201l-1.951-15.19
				c-0.14-1.058-0.835-1.935-1.797-2.314l-9.268-5.76l-0.125-1.002c-0.204-1.56-1.62-2.709-3.237-2.503l-0.902,0.121
				c-1.571,0.211-2.682,1.662-2.487,3.233l0.131,1.002l-7.827,8.242c-0.766,0.818-0.991,1.988-0.62,2.984l0.002,0.034
				c-0.213-0.034-0.439-0.081-0.66-0.114c-0.456-0.072-0.918-0.115-1.376-0.147c0.026-0.098,0.057-0.173,0.073-0.238
				c0.667-0.823,0.81-1.961,0.355-3.045c-0.54-1.305-1.799-2.188-3.124-2.188c-0.628,0-1.829,0.199-2.758,1.565
				c-0.163,0.233-0.482,0.698-0.726,1.696c-1.43-0.77-3.369-0.965-5.469-0.304l-1.337,0.434l-0.199,1.377
				c-0.224,1.548,0.182,3.726,1.758,5.298c-1.777,1.907-3.018,4.248-3.575,6.82h-3.443l-3.105-4.778
				c-0.709-1.1-2.17-1.403-3.27-0.693c-1.097,0.709-1.408,2.172-0.69,3.267l3.701,5.709c0.027,0.043,0.04,0.097,0.065,0.141
				l14.46,22.343c0.436,0.684,1.187,1.084,1.986,1.084h32.252l-3.514,7.357h-35.044c-1.311,0-2.368,1.062-2.368,2.373
				c0,1.299,1.057,2.356,2.368,2.356h4.074c-1.192,0.84-1.975,2.221-1.975,3.787c0,2.569,2.075,4.639,4.633,4.639
				c2.557,0,4.641-2.07,4.641-4.639c0-1.565-0.787-2.947-1.981-3.787h18.591c-1.195,0.84-1.975,2.221-1.975,3.787
				c0,2.569,2.076,4.639,4.636,4.639c2.559,0,4.632-2.07,4.632-4.639c0-1.565-0.78-2.947-1.972-3.787h3.232
				c0.91,0,1.738-0.524,2.132-1.343l5.786-12.087c0.347-0.737,0.298-1.594-0.136-2.288c-0.434-0.682-1.187-1.1-2.001-1.1h-34.723
				l-0.932-1.435c-0.059-0.162-0.13-0.315-0.225-0.465l-3.229-4.963l-6.818-10.505l-0.16-0.25h0.136h4.503h36.962h4.502h5.591
				l-4.343,5.029c-0.851,0.99-0.745,2.485,0.248,3.342c0.988,0.849,2.48,0.748,3.339-0.254l7.717-8.934
				c0.011-0.023,0.031-0.038,0.044-0.067c0.035-0.032,0.058-0.069,0.084-0.097c0.06-0.085,0.109-0.167,0.163-0.264
				c0.019-0.033,0.038-0.071,0.061-0.104c0.051-0.118,0.1-0.243,0.137-0.372c0.011-0.029,0.011-0.06,0.013-0.082
				c0.027-0.108,0.049-0.217,0.058-0.324c0.009-0.039,0.009-0.076,0.014-0.121C334.491,45.002,334.491,44.892,334.478,44.785z
				 M280.264,42.634c0.713-2.183,2.137-4.085,4.087-5.352l0.994-0.646l1.163-0.411c0.195-0.065,0.388-0.13,0.58-0.185l0.62-0.172
				l0.596-0.099c1.002-0.14,2.026-0.14,3.037,0.012c1.041,0.161,2.05,0.487,2.998,0.964l3.76,1.891l-0.989-7.71l7.712-8.116
				l9.663,6.004l1.766,13.82H280.264z"/>
		</g>
	</g>
	<g>
		<g>
			<path fill="#FBBF48" d="M363.389,71.535c-5.131,0-9.362-1.27-12.569-3.792c-3.521-2.788-5.388-6.757-5.388-11.487
				c0-1.958,1.078-3.662,2.678-4.561c-1.244-1.829-2.196-4.329-2.196-7.714c0-4.16,1.632-7.831,4.707-10.59
				c2.967-2.676,7.08-4.024,12.228-4.024c4.333,0,8.143,1.197,11.32,3.55c3.548,2.636,5.506,6.551,5.668,11.335
				c0.058,1.401-0.48,2.786-1.455,3.805c-0.115,0.116-0.232,0.227-0.353,0.321c1.505,1.855,2.769,4.54,2.769,8.366
				c0,4.271-1.726,8.015-5.009,10.821C372.714,70.202,368.542,71.535,363.389,71.535z"/>
		</g>
		<g>
			<path fill="#FBBF48" d="M399.586,70.768h-5.94c-1.682,0-3.175-0.795-4.136-2.026c-0.951,1.231-2.447,2.026-4.125,2.026h-5.825
				c-2.878,0-5.224-2.346-5.224-5.227V35.572c0-2.874,2.345-5.218,5.224-5.218h5.825c2.882,0,5.212,2.344,5.212,5.218v1.965
				c2.434-0.205,4.851,0.19,6.944,1.074c2,0.858,3.656,2.175,4.926,3.921c1.115,1.497,1.804,3.122,2.072,4.846
				c0.181,1.171,0.266,2.802,0.266,5.099v13.064C404.806,68.423,402.461,70.768,399.586,70.768z"/>
		</g>
		<g>
			<path fill="#FBBF48" d="M415.046,71.522c-6.787,0-10.606-2.944-12.604-5.412c-2.648-3.248-3.981-7.19-3.981-11.664
				c0-4.395,1.33-8.298,3.953-11.58c2.003-2.515,5.822-5.493,12.632-5.493c6.814,0,10.63,2.978,12.628,5.493
				c2.627,3.281,3.957,7.185,3.957,11.58c0,4.473-1.336,8.416-3.98,11.664C425.656,68.578,421.843,71.522,415.046,71.522z"/>
		</g>
		<g>
			<path fill="#FBBF48" d="M436.167,79.514h-5.76c-2.883,0-5.218-2.337-5.218-5.219V43.302c0-2.881,2.335-5.221,5.218-5.221h5.57
				c0.672,0,1.318,0.13,1.91,0.354c1.481-0.557,3.058-0.843,4.745-0.843c4.037,0,7.65,1.563,10.443,4.513
				c2.746,2.917,4.146,6.96,4.146,12.032c0,5.192-1.322,9.351-3.935,12.376c-2.75,3.194-6.492,4.888-10.798,4.888
				c-0.367,0-0.737-0.016-1.101-0.042v2.938C441.387,77.177,439.044,79.514,436.167,79.514z"/>
		</g>
		<g>
			<path fill="#FBBF48" d="M461.689,79.514h-5.761c-2.879,0-5.216-2.337-5.216-5.219V43.302c0-2.881,2.336-5.221,5.216-5.221h5.58
				c0.67,0,1.31,0.13,1.9,0.354c1.479-0.557,3.052-0.843,4.747-0.843c4.044,0,7.657,1.563,10.445,4.513
				c2.745,2.917,4.143,6.96,4.143,12.032c0,5.192-1.322,9.351-3.934,12.376c-2.754,3.194-6.489,4.888-10.799,4.888
				c-0.371,0-0.744-0.016-1.1-0.042v2.938C466.913,77.177,464.573,79.514,461.689,79.514z"/>
		</g>
		<g>
			<path fill="#FBBF48" d="M487.603,70.768h-5.892c-2.894,0-5.231-2.346-5.231-5.227V43.302c0-0.449,0.05-0.897,0.167-1.321
				c-0.118-0.428-0.167-0.869-0.167-1.331v-5.361c0-2.875,2.337-5.227,5.231-5.227h5.892c2.885,0,5.223,2.352,5.223,5.227v5.361
				c0,0.462-0.066,0.903-0.175,1.331c0.109,0.423,0.175,0.872,0.175,1.321v22.239C492.826,68.423,490.488,70.768,487.603,70.768z"/>
		</g>
		<g>
			<path fill="#FBBF48" d="M513.351,70.768h-5.963c-1.692,0-3.197-0.804-4.149-2.061c-0.955,1.257-2.461,2.061-4.161,2.061h-5.804
				c-2.882,0-5.219-2.346-5.219-5.227V43.342c0-2.883,2.337-5.22,5.219-5.22h5.624c0.607,0,1.195,0.107,1.734,0.299
				c1.492-0.585,3.133-0.871,4.914-0.871c3.525,0,6.535,1.007,8.938,3.012c2.71,2.221,4.087,5.607,4.087,10.011v14.968
				C518.57,68.423,516.231,70.768,513.351,70.768z"/>
		</g>
		<g>
			<path fill="#FBBF48" d="M527.853,79.869c-3.806,0-7.078-0.822-9.704-2.462c-3.227-2.004-5.098-5.11-5.428-8.984
				c-0.129-1.454,0.365-2.91,1.355-3.984c0.139-0.149,0.293-0.297,0.455-0.436c-1.571-2.648-2.363-5.832-2.363-9.514
				c0-4.418,1.167-8.253,3.471-11.413c2.627-3.622,6.501-5.526,11.207-5.526c1.69,0,3.256,0.273,4.66,0.802
				c0.516-0.176,1.084-0.271,1.67-0.271h5.67c2.893,0,5.225,2.34,5.225,5.222v21.096c0,3.957-0.754,7.021-2.312,9.379
				C539.075,77.816,534.395,79.869,527.853,79.869z"/>
		</g>
		<path fill="#FFFFFF" d="M356.653,56.256c0.191,1.386,0.571,2.406,1.146,3.093c1.044,1.231,2.824,1.854,5.342,1.854
			c1.524,0,2.76-0.162,3.691-0.497c1.804-0.618,2.695-1.787,2.695-3.485c0-0.993-0.439-1.762-1.316-2.298
			c-0.88-0.544-2.27-1.013-4.18-1.414l-3.256-0.72c-3.194-0.701-5.396-1.469-6.596-2.298c-2.022-1.387-3.034-3.56-3.034-6.511
			c0-2.699,0.992-4.934,2.962-6.714c1.995-1.789,4.897-2.672,8.741-2.672c3.214,0,5.951,0.835,8.218,2.522
			c2.263,1.672,3.453,4.12,3.561,7.315h-6.036c-0.112-1.808-0.928-3.101-2.437-3.855c-1.003-0.504-2.25-0.755-3.745-0.755
			c-1.652,0-2.977,0.327-3.966,0.98c-0.993,0.652-1.489,1.563-1.489,2.731c0,1.076,0.494,1.876,1.464,2.407
			c0.626,0.352,1.958,0.76,3.99,1.244l5.289,1.243c2.311,0.558,4.044,1.277,5.203,2.184c1.791,1.418,2.688,3.458,2.688,6.135
			c0,2.76-1.07,5.031-3.185,6.852c-2.138,1.822-5.131,2.733-9.017,2.733c-3.955,0-7.061-0.898-9.335-2.691
			c-2.268-1.789-3.404-4.249-3.404-7.382L356.653,56.256L356.653,56.256z"/>
		<path fill="#FFFFFF" d="M395.508,43.425c1.115,0.482,2.033,1.208,2.753,2.186c0.615,0.83,0.982,1.687,1.119,2.57
			c0.136,0.87,0.207,2.311,0.207,4.296v13.064h-5.94V52.008c0-1.203-0.211-2.168-0.605-2.903c-0.523-1.047-1.529-1.556-3-1.556
			c-1.53,0-2.685,0.509-3.477,1.543c-0.791,1.035-1.179,2.494-1.179,4.404v12.046h-5.825V35.572h5.825v10.611
			c0.835-1.292,1.804-2.195,2.913-2.705c1.104-0.509,2.263-0.762,3.484-0.762C393.146,42.716,394.39,42.947,395.508,43.425z"/>
		<path fill="#FFFFFF" d="M423.596,62.828c-1.875,2.311-4.73,3.479-8.55,3.479c-3.824,0-6.661-1.169-8.548-3.479
			c-1.883-2.317-2.814-5.118-2.814-8.381c0-3.194,0.931-5.981,2.814-8.333c1.887-2.344,4.724-3.52,8.548-3.52
			c3.819,0,6.674,1.176,8.55,3.52c1.879,2.352,2.821,5.139,2.821,8.333C426.417,57.71,425.475,60.511,423.596,62.828z
			 M418.94,59.614c0.911-1.209,1.373-2.937,1.373-5.167c0-2.213-0.462-3.927-1.373-5.131c-0.908-1.211-2.223-1.8-3.915-1.8
			c-1.7,0-3.012,0.588-3.93,1.8c-0.914,1.204-1.375,2.918-1.375,5.131c0,2.23,0.462,3.958,1.375,5.167
			c0.918,1.203,2.23,1.807,3.93,1.807C416.718,61.421,418.033,60.817,418.94,59.614z"/>
		<path fill="#FFFFFF" d="M449.274,45.696c1.808,1.915,2.723,4.735,2.723,8.44c0,3.913-0.891,6.905-2.661,8.971
			c-1.785,2.047-4.055,3.079-6.848,3.079c-1.773,0-3.259-0.456-4.438-1.339c-0.64-0.488-1.265-1.197-1.883-2.134v11.583h-5.76
			V43.302h5.57v3.296c0.638-0.971,1.308-1.734,2.012-2.292c1.308-0.992,2.847-1.494,4.642-1.494
			C445.247,42.812,447.46,43.77,449.274,45.696z M444.809,49.881c-0.788-1.325-2.066-1.984-3.843-1.984
			c-2.132,0-3.592,1.004-4.391,3.005c-0.408,1.059-0.612,2.405-0.612,4.023c0,2.595,0.687,4.417,2.081,5.45
			c0.822,0.626,1.793,0.925,2.923,0.925c1.634,0,2.881-0.617,3.745-1.875c0.863-1.252,1.282-2.917,1.282-4.989
			C445.992,52.716,445.602,51.193,444.809,49.881z"/>
		<path fill="#FFFFFF" d="M474.803,45.696c1.815,1.915,2.724,4.735,2.724,8.44c0,3.913-0.891,6.905-2.663,8.971
			c-1.784,2.047-4.061,3.079-6.854,3.079c-1.779,0-3.263-0.456-4.438-1.339c-0.64-0.488-1.271-1.197-1.882-2.134v11.583h-5.761
			V43.302h5.58v3.296c0.629-0.971,1.295-1.734,2.001-2.292c1.305-0.992,2.854-1.494,4.646-1.494
			C470.769,42.812,472.994,43.77,474.803,45.696z M470.333,49.881c-0.788-1.325-2.065-1.984-3.844-1.984
			c-2.12,0-3.598,1.004-4.388,3.005c-0.405,1.059-0.616,2.405-0.616,4.023c0,2.595,0.693,4.417,2.081,5.45
			c0.818,0.626,1.796,0.925,2.923,0.925c1.64,0,2.887-0.617,3.741-1.875c0.866-1.252,1.295-2.917,1.295-4.989
			C471.525,52.716,471.131,51.193,470.333,49.881z"/>
		<path fill="#FFFFFF" d="M487.603,40.65h-5.892v-5.361h5.892V40.65z M481.711,43.302h5.892v22.239h-5.892V43.302z"/>
		<path fill="#FFFFFF" d="M511.166,44.586c1.456,1.188,2.186,3.194,2.186,5.987v14.968h-5.963V52.015
			c0-1.162-0.147-2.066-0.458-2.692c-0.576-1.142-1.649-1.712-3.247-1.712c-1.954,0-3.312,0.844-4.03,2.516
			c-0.378,0.882-0.575,2.011-0.575,3.384v12.031h-5.804V43.342h5.624v3.255c0.756-1.157,1.456-1.978,2.119-2.481
			c1.193-0.889,2.701-1.345,4.529-1.345C507.836,42.771,509.707,43.383,511.166,44.586z"/>
		<path fill="#FFFFFF" d="M529.753,43.281c1.417,0.59,2.558,1.666,3.425,3.228v-3.207h5.669v21.097c0,2.881-0.475,5.044-1.444,6.484
			c-1.66,2.507-4.843,3.765-9.55,3.765c-2.83,0-5.161-0.557-6.964-1.678c-1.784-1.108-2.772-2.78-2.968-4.998h6.319
			c0.166,0.68,0.435,1.17,0.797,1.475c0.631,0.526,1.683,0.796,3.17,0.796c2.094,0,3.493-0.706,4.203-2.107
			c0.462-0.896,0.69-2.406,0.69-4.526v-1.428c-0.554,0.952-1.156,1.66-1.798,2.142c-1.152,0.878-2.659,1.324-4.506,1.324
			c-2.862,0-5.141-1.005-6.85-3.003c-1.702-2.011-2.561-4.73-2.561-8.155c0-3.303,0.833-6.083,2.475-8.34
			c1.626-2.249,3.969-3.377,6.984-3.377C527.961,42.771,528.934,42.941,529.753,43.281z M531.746,59.233
			c0.931-1.034,1.393-2.665,1.393-4.914c0-2.107-0.446-3.711-1.33-4.806c-0.889-1.106-2.073-1.658-3.563-1.658
			c-2.038,0-3.433,0.951-4.212,2.875c-0.403,1.019-0.604,2.288-0.604,3.778c0,1.285,0.214,2.441,0.653,3.446
			c0.783,1.878,2.193,2.815,4.227,2.815C529.659,60.769,530.805,60.267,531.746,59.233z"/>
		<g>
			<g>
				<path fill="#4CAE4D" d="M557.379,71.535c-5.157,0-9.389-1.27-12.578-3.806c-3.527-2.773-5.394-6.742-5.394-11.473
					c0-1.958,1.084-3.662,2.681-4.561c-1.256-1.829-2.193-4.329-2.193-7.714c0-4.167,1.628-7.831,4.706-10.59
					c2.962-2.676,7.074-4.024,12.223-4.024c4.337,0,8.147,1.197,11.324,3.55c3.551,2.628,5.503,6.538,5.678,11.322
					c0.041,1.415-0.482,2.793-1.457,3.818c-0.115,0.111-0.232,0.227-0.359,0.321c1.498,1.855,2.778,4.54,2.778,8.366
					c0,4.282-1.738,8.022-5.025,10.821C566.692,70.202,562.52,71.535,557.379,71.535z"/>
			</g>
			<g>
				<path fill="#4CAE4D" d="M582.672,71.522c-6.523,0-10.126-2.801-11.988-5.152c-2.438-3.052-3.671-6.92-3.671-11.507
					c0-5.098,1.374-9.252,4.097-12.352c2.853-3.242,6.877-4.961,11.639-4.961c3.883,0,7.194,0.953,9.863,2.835
					c3.063,2.154,4.852,5.649,5.348,10.365c0.13,1.305-0.234,2.624-1.013,3.658c0.715,0.993,1.054,2.214,0.962,3.452
					c-0.208,2.747-1.188,5.329-2.908,7.694C593.062,68.265,589.328,71.522,582.672,71.522z"/>
			</g>
			<g>
				<path fill="#4CAE4D" d="M606.735,71.522c-6.798,0-10.593-2.944-12.608-5.412c-2.63-3.262-3.979-7.19-3.979-11.664
					c0-4.389,1.342-8.29,3.959-11.58c2.004-2.515,5.819-5.493,12.629-5.493c6.812,0,10.627,2.978,12.628,5.493
					c2.626,3.281,3.961,7.185,3.961,11.58c0,4.473-1.337,8.416-3.979,11.664C617.341,68.578,613.524,71.522,606.735,71.522z"/>
			</g>
			<g>
				<path fill="#4CAE4D" d="M629.692,71.258c-7.143,0-10.166-4.08-11.337-6.519c-0.984-2.004-1.47-4.649-1.47-8.035V43.302
					c0-2.881,2.334-5.221,5.229-5.221h5.939c1.666,0,3.143,0.769,4.097,1.985c0.956-1.215,2.432-1.985,4.092-1.985h5.905
					c2.884,0,5.22,2.34,5.22,5.221v22.239c0,2.881-2.336,5.227-5.22,5.227h-5.657c-0.659,0-1.282-0.117-1.861-0.341
					c-0.069,0.034-0.139,0.054-0.214,0.076C633.008,71.006,631.42,71.258,629.692,71.258z"/>
			</g>
			<g>
				<path fill="#4CAE4D" d="M654.561,71.087c-3.913,0-6.766-1.007-8.737-3.045c-1.608-1.632-2.437-3.901-2.437-6.703v-8.916
					c-1.832-0.815-3.107-2.637-3.107-4.764v-4.155c0-2.12,1.275-3.954,3.107-4.771v-1.426c0-2.882,2.333-5.22,5.228-5.22h5.739
					c2.891,0,5.23,2.337,5.23,5.22v1.236c2.096,0.68,3.611,2.653,3.611,4.961v4.155c0,2.317-1.516,4.288-3.611,4.961v3.811
					c0.705,0.232,1.378,0.614,1.933,1.143c1.07,0.979,1.679,2.378,1.679,3.818v4.352c0,2.812-2.223,5.125-5.037,5.227l-2.748,0.101
					C655.108,71.079,654.829,71.087,654.561,71.087z"/>
			</g>
			<path fill="#FFFFFF" d="M550.627,56.256c0.199,1.386,0.579,2.406,1.146,3.093c1.046,1.231,2.826,1.854,5.352,1.854
				c1.521,0,2.742-0.162,3.696-0.497c1.799-0.618,2.69-1.787,2.69-3.485c0-0.993-0.45-1.762-1.316-2.298
				c-0.886-0.544-2.279-1.013-4.19-1.414l-3.253-0.72c-3.2-0.701-5.393-1.469-6.593-2.298c-2.021-1.387-3.026-3.56-3.026-6.511
				c0-2.699,0.976-4.934,2.96-6.714c1.983-1.789,4.894-2.672,8.733-2.672c3.209,0,5.945,0.835,8.221,2.522
				c2.257,1.672,3.447,4.12,3.562,7.315h-6.04c-0.107-1.808-0.913-3.101-2.429-3.855c-1-0.504-2.254-0.755-3.742-0.755
				c-1.659,0-2.991,0.327-3.977,0.98c-0.99,0.652-1.48,1.563-1.48,2.731c0,1.076,0.475,1.876,1.452,2.407
				c0.632,0.352,1.966,0.76,4.005,1.244l5.284,1.243c2.304,0.558,4.041,1.277,5.192,2.184c1.793,1.418,2.691,3.458,2.691,6.135
				c0,2.76-1.066,5.031-3.19,6.852c-2.124,1.822-5.126,2.733-8.995,2.733c-3.97,0-7.08-0.898-9.35-2.691
				c-2.261-1.789-3.401-4.249-3.401-7.382L550.627,56.256L550.627,56.256z"/>
			<path fill="#FFFFFF" d="M586.792,51.281c-0.094-0.823-0.374-1.562-0.83-2.242c-0.649-0.896-1.668-1.347-3.05-1.347
				c-1.957,0-3.303,0.979-4.017,2.916c-0.389,1.025-0.578,2.411-0.578,4.112c0,1.631,0.19,2.937,0.578,3.93
				c0.692,1.846,2,2.771,3.924,2.771c1.359,0,2.324-0.368,2.897-1.101c0.58-0.732,0.92-1.687,1.05-2.854h5.936
				c-0.133,1.766-0.776,3.438-1.928,5.015c-1.816,2.541-4.521,3.827-8.102,3.827c-3.572,0-6.21-1.067-7.906-3.186
				c-1.688-2.123-2.533-4.882-2.533-8.259c0-3.813,0.935-6.784,2.805-8.904c1.865-2.127,4.441-3.188,7.71-3.188
				c2.796,0,5.077,0.626,6.855,1.876c1.778,1.255,2.83,3.465,3.16,6.633H586.792z"/>
			<path fill="#FFFFFF" d="M615.292,62.828c-1.876,2.311-4.729,3.479-8.557,3.479c-3.819,0-6.671-1.169-8.545-3.479
				c-1.876-2.317-2.824-5.118-2.824-8.381c0-3.194,0.948-5.981,2.824-8.333c1.874-2.344,4.726-3.52,8.545-3.52
				c3.83,0,6.681,1.176,8.557,3.52c1.87,2.352,2.807,5.139,2.807,8.333C618.098,57.71,617.162,60.511,615.292,62.828z
				 M610.635,59.614c0.92-1.209,1.367-2.937,1.367-5.167c0-2.213-0.447-3.927-1.367-5.131c-0.909-1.211-2.215-1.8-3.915-1.8
				c-1.698,0-3.015,0.588-3.932,1.8c-0.919,1.204-1.376,2.918-1.376,5.131c0,2.23,0.457,3.958,1.376,5.167
				c0.917,1.203,2.233,1.807,3.932,1.807C608.42,61.421,609.726,60.817,610.635,59.614z"/>
			<path fill="#FFFFFF" d="M628.053,43.302v13.401c0,1.271,0.151,2.216,0.459,2.869c0.52,1.129,1.557,1.688,3.105,1.688
				c1.974,0,3.332-0.804,4.054-2.41c0.377-0.868,0.57-2.01,0.57-3.449V43.302h5.906v22.239h-5.658v-3.142
				c-0.062,0.07-0.196,0.28-0.405,0.613c-0.222,0.339-0.475,0.646-0.778,0.896c-0.909,0.817-1.784,1.374-2.629,1.686
				c-0.847,0.293-1.845,0.442-2.985,0.442c-3.28,0-5.496-1.189-6.628-3.555c-0.639-1.305-0.95-3.228-0.95-5.778V43.302H628.053z"/>
			<path fill="#FFFFFF" d="M645.505,47.659v-4.155h3.109v-6.198h5.739v6.198h3.606v4.155h-3.606v11.749
				c0,0.907,0.123,1.47,0.353,1.701c0.225,0.23,0.943,0.327,2.121,0.327c0.177,0,0.363,0,0.568,0c0.189,0,0.383-0.015,0.566-0.043
				v4.352l-2.742,0.108c-2.749,0.096-4.624-0.379-5.627-1.427c-0.66-0.666-0.979-1.691-0.979-3.086v-13.68H645.505z"/>
		</g>
	</g>
</g>
</svg>
