<?xml version="1.0" encoding="utf-8"?>
<!-- Generator: Adobe Illustrator 16.0.0, SVG Export Plug-In . SVG Version: 6.00 Build 0)  -->
<!DOCTYPE svg PUBLIC "-//W3C//DTD SVG 1.1//EN" "http://www.w3.org/Graphics/SVG/1.1/DTD/svg11.dtd">
<svg version="1.1" id="Layer_1" xmlns="http://www.w3.org/2000/svg" xmlns:xlink="http://www.w3.org/1999/xlink" x="0px" y="0px"
	 width="513.667px" height="108px" viewBox="0 0 513.667 108" enable-background="new 0 0 513.667 108" xml:space="preserve">
<polygon fill="#FBBF48" points="97.413,51.199 100.923,62 112.279,62 103.092,68.552 106.601,79.291 97.413,72.584 88.225,79.244 
	91.734,68.56 82.547,62 93.903,62 "/>
<polygon fill="#FBBF48" points="132.413,51.199 135.923,62 147.279,62 138.092,68.552 141.601,79.291 132.413,72.584 
	123.225,79.244 126.734,68.56 117.547,62 128.903,62 "/>
<polygon fill="#FBBF48" points="167.413,51.199 170.923,62 182.279,62 173.092,68.552 176.601,79.291 167.413,72.584 
	158.225,79.244 161.734,68.56 152.547,62 163.903,62 "/>
<polygon fill="#FBBF48" points="202.413,51.199 205.923,62 217.279,62 208.092,68.552 211.601,79.291 202.413,72.584 
	193.225,79.244 196.734,68.56 187.547,62 198.903,62 "/>
<polygon fill="#FBBF48" points="237.413,51.199 240.923,62 252.279,62 243.092,68.552 246.601,79.291 237.413,72.584 
	228.225,79.244 231.734,68.56 222.547,62 233.903,62 "/>
<g>
	<path fill="#81B853" d="M124.452,49.469l-4.077,3.956c-1.271-0.068-2.6-0.294-3.986-0.68s-2.792-0.916-4.219-1.592
		s-3.33-1.833-5.71-3.469c-3.449-0.622-6.292-2.258-8.53-4.909c-2.238-2.65-3.357-5.707-3.357-9.168
		c0-4.233,1.44-7.735,4.321-10.508c2.88-2.772,6.525-4.158,10.934-4.158c4.381,0,8.022,1.376,10.923,4.128s4.351,6.21,4.351,10.375
		c0,3.503-1.095,6.58-3.286,9.23s-5.024,4.321-8.5,5.01l1.075,0.406c3.34,1.285,5.748,1.927,7.222,1.927
		C122.423,50.017,123.37,49.834,124.452,49.469z M109.826,22.794c-3.192,0-5.829,1.028-7.911,3.083
		c-2.083,2.056-3.124,4.646-3.124,7.77c0,3.042,1.048,5.575,3.144,7.597c2.096,2.022,4.727,3.033,7.891,3.033
		c3.124,0,5.754-1.035,7.891-3.104c2.137-2.069,3.205-4.618,3.205-7.647c0-3.096-1.048-5.659-3.144-7.688
		C115.682,23.808,113.031,22.794,109.826,22.794z"/>
	<path fill="#81B853" d="M141.451,47.684V45.31c-0.785,0.852-1.681,1.515-2.688,1.988s-2.012,0.71-3.012,0.71
		c-1.177,0-2.262-0.294-3.256-0.882c-0.994-0.588-1.745-1.386-2.251-2.394c-0.507-1.007-0.761-2.681-0.761-5.021v-10.69h3.692
		v10.649c0,1.961,0.28,3.331,0.842,4.108c0.561,0.778,1.545,1.167,2.952,1.167c1.758,0,3.252-0.859,4.483-2.576V29.021h3.692v18.662
		H141.451z"/>
	<path fill="#81B853" d="M152.242,21.171c0.609,0,1.129,0.21,1.562,0.629c0.433,0.419,0.649,0.933,0.649,1.542
		c0,0.595-0.217,1.109-0.649,1.542c-0.433,0.433-0.953,0.649-1.562,0.649c-0.568,0-1.068-0.22-1.501-0.659
		c-0.433-0.439-0.649-0.95-0.649-1.531c0-0.568,0.216-1.072,0.649-1.512C151.174,21.391,151.674,21.171,152.242,21.171z
		 M150.417,29.021h3.692v18.662h-3.692V29.021z"/>
	<path fill="#81B853" d="M173.44,43.322v3.651c-1.853,0.689-3.665,1.035-5.436,1.035c-2.921,0-5.251-0.865-6.988-2.597
		c-1.738-1.731-2.607-4.05-2.607-6.958c0-2.935,0.845-5.301,2.536-7.1c1.69-1.798,3.915-2.698,6.674-2.698
		c0.96,0,1.822,0.091,2.586,0.274c0.764,0.183,1.707,0.524,2.83,1.024v3.935c-1.866-1.19-3.597-1.785-5.193-1.785
		c-1.663,0-3.029,0.585-4.098,1.755c-1.068,1.17-1.603,2.661-1.603,4.473c0,1.907,0.578,3.422,1.734,4.544
		c1.156,1.123,2.715,1.684,4.676,1.684C169.971,44.56,171.601,44.147,173.44,43.322z"/>
	<path fill="#81B853" d="M177.639,19.345h3.692v28.338h-3.692V19.345z M189.787,29.021h4.384l-7.962,9.128l9.585,9.534h-4.953
		l-9.349-9.524L189.787,29.021z"/>
	<path fill="#81B853" d="M227.062,47.684l-3.299-3.868c-0.284,0.285-0.771,0.699-1.462,1.241l-0.041,0.041
		c-0.961,0.801-2.149,1.486-3.563,2.056s-2.745,0.855-3.99,0.855c-1.963,0-3.627-0.639-4.995-1.917s-2.051-2.836-2.051-4.676
		c0-1.325,0.335-2.522,1.004-3.59c0.669-1.068,1.762-2.157,3.276-3.266l0.061-0.061c0.893-0.663,1.664-1.17,2.312-1.521
		c-2.137-2.285-3.205-4.476-3.205-6.572c0-1.934,0.656-3.502,1.967-4.707c1.312-1.203,3.016-1.805,5.112-1.805
		c2.056,0,3.746,0.589,5.071,1.768c1.325,1.178,1.988,2.681,1.988,4.509c0,2.478-1.657,4.888-4.969,7.231l-0.285,0.224l3.993,4.549
		c1.164-1.271,2.18-2.794,3.046-4.567h4.057c-0.976,2.519-2.514,4.996-4.615,7.433l5.751,6.645H227.062z M220.343,41.818
		l0.913-0.833l-4.606-5.314l-1.786,1.258c-2.111,1.42-3.167,2.861-3.167,4.322c0,0.798,0.345,1.481,1.035,2.049
		c0.69,0.568,1.522,0.852,2.496,0.852c0.758,0,1.613-0.216,2.567-0.649C218.75,43.071,219.599,42.509,220.343,41.818z
		 M217.699,30.887l1.551-1.098c1.442-1.017,2.164-2.196,2.164-3.539c0-0.827-0.301-1.519-0.903-2.075
		c-0.602-0.556-1.363-0.833-2.282-0.833c-0.893,0-1.629,0.257-2.211,0.772s-0.872,1.158-0.872,1.93c0,0.745,0.228,1.555,0.684,2.428
		C216.285,29.346,216.908,30.151,217.699,30.887z"/>
	<path fill="#81B853" d="M267.075,19.345h4.058v28.338h-4.058V35.35h-15.924v12.333h-4.057V19.345h4.057v12.252h15.924V19.345z"/>
	<path fill="#81B853" d="M292.777,38.677h-13.125c0.095,1.785,0.693,3.205,1.796,4.26c1.102,1.055,2.525,1.582,4.27,1.582
		c2.435,0,4.679-0.757,6.734-2.272v3.611c-1.136,0.757-2.262,1.298-3.377,1.623c-1.116,0.324-2.424,0.487-3.926,0.487
		c-2.056,0-3.719-0.426-4.989-1.278c-1.271-0.852-2.289-1.998-3.054-3.438c-0.764-1.44-1.146-3.107-1.146-5
		c0-2.84,0.805-5.149,2.414-6.927c1.608-1.778,3.698-2.667,6.268-2.667c2.475,0,4.449,0.866,5.924,2.597
		c1.474,1.731,2.211,4.05,2.211,6.958V38.677z M279.733,36.466h9.393c-0.095-1.474-0.534-2.61-1.318-3.408
		c-0.785-0.798-1.84-1.197-3.165-1.197s-2.41,0.399-3.256,1.197C280.542,33.856,279.99,34.992,279.733,36.466z"/>
	<path fill="#81B853" d="M308.498,36.466v7.932c0,0.636,0.216,0.953,0.648,0.953c0.446,0,1.143-0.331,2.09-0.994v2.251
		c-0.839,0.541-1.512,0.91-2.019,1.105s-1.038,0.294-1.592,0.294c-1.583,0-2.516-0.622-2.8-1.866
		c-1.569,1.217-3.239,1.826-5.011,1.826c-1.298,0-2.38-0.429-3.245-1.288c-0.866-0.859-1.299-1.938-1.299-3.236
		c0-1.176,0.423-2.228,1.269-3.154c0.845-0.926,2.045-1.66,3.601-2.201l4.727-1.623v-0.994c0-2.245-1.123-3.368-3.368-3.368
		c-2.015,0-3.976,1.042-5.882,3.124v-4.037c1.433-1.69,3.495-2.536,6.187-2.536c2.015,0,3.631,0.527,4.848,1.582
		c0.406,0.338,0.771,0.788,1.096,1.349c0.325,0.562,0.53,1.123,0.619,1.684C308.454,33.833,308.498,34.897,308.498,36.466z
		 M304.867,43.992v-5.538l-2.476,0.953c-1.257,0.5-2.146,1.004-2.667,1.511c-0.521,0.507-0.781,1.14-0.781,1.897
		c0,0.771,0.247,1.399,0.74,1.886c0.494,0.487,1.133,0.73,1.917,0.73C302.777,45.432,303.866,44.952,304.867,43.992z"/>
	<path fill="#81B853" d="M314.583,19.345h3.691v28.338h-3.691V19.345z"/>
	<path fill="#81B853" d="M320.993,31.983l6.938-6.816v3.854h5.903v3.327h-5.903v9.148c0,2.137,0.886,3.205,2.657,3.205
		c1.325,0,2.725-0.446,4.199-1.339v3.449c-1.42,0.798-2.969,1.197-4.646,1.197c-1.69,0-3.097-0.494-4.219-1.481
		c-0.353-0.297-0.643-0.632-0.873-1.004c-0.229-0.372-0.423-0.859-0.578-1.461c-0.155-0.602-0.233-1.748-0.233-3.438v-8.276h-3.245
		V31.983z"/>
	<path fill="#81B853" d="M337.362,19.345h3.692v12.131c1.542-1.88,3.455-2.82,5.74-2.82c1.244,0,2.36,0.311,3.348,0.933
		c0.986,0.622,1.721,1.481,2.201,2.576c0.479,1.095,0.72,2.725,0.72,4.889v10.629h-3.692V36.142c0-1.366-0.334-2.465-1.004-3.296
		c-0.669-0.832-1.552-1.248-2.647-1.248c-0.811,0-1.575,0.21-2.292,0.629s-1.508,1.116-2.373,2.089v13.368h-3.692V19.345z"/>
	<path fill="#81B853" d="M368.212,29.021h4.143l-13.223,28.176h-4.121l6.335-13.521l-7.207-14.655h4.207l5.039,10.542
		L368.212,29.021z"/>
	<path fill="#81B853" d="M387.122,47.684V19.345h7.101c2.866,0,5.142,0.71,6.825,2.13c1.684,1.42,2.525,3.341,2.525,5.761
		c0,1.65-0.412,3.077-1.237,4.28c-0.824,1.204-2.008,2.103-3.55,2.698c0.906,0.595,1.792,1.407,2.657,2.434
		c0.865,1.028,2.083,2.82,3.651,5.375c0.987,1.61,1.778,2.82,2.374,3.631l1.501,2.028h-4.828l-1.235-1.867
		c-0.041-0.067-0.122-0.183-0.243-0.345l-0.79-1.116l-1.257-2.07l-1.356-2.212c-0.838-1.164-1.605-2.09-2.303-2.778
		s-1.327-1.185-1.889-1.488s-1.506-0.456-2.833-0.456h-1.056v12.333H387.122z M392.396,22.794h-1.217v8.946h1.542
		c2.055,0,3.465-0.176,4.229-0.528c0.765-0.351,1.359-0.882,1.785-1.592c0.427-0.71,0.64-1.518,0.64-2.424
		c0-0.893-0.237-1.701-0.71-2.424c-0.474-0.723-1.14-1.234-1.998-1.531C395.808,22.943,394.385,22.794,392.396,22.794z"/>
	<path fill="#81B853" d="M427.49,38.677h-13.125c0.095,1.785,0.693,3.205,1.796,4.26c1.102,1.055,2.525,1.582,4.27,1.582
		c2.435,0,4.679-0.757,6.734-2.272v3.611c-1.136,0.757-2.262,1.298-3.377,1.623c-1.116,0.324-2.424,0.487-3.926,0.487
		c-2.056,0-3.719-0.426-4.989-1.278c-1.271-0.852-2.289-1.998-3.054-3.438c-0.764-1.44-1.146-3.107-1.146-5
		c0-2.84,0.805-5.149,2.414-6.927c1.608-1.778,3.698-2.667,6.268-2.667c2.475,0,4.449,0.866,5.924,2.597
		c1.474,1.731,2.211,4.05,2.211,6.958V38.677z M414.446,36.466h9.393c-0.095-1.474-0.534-2.61-1.318-3.408
		c-0.785-0.798-1.84-1.197-3.165-1.197s-2.41,0.399-3.256,1.197C415.255,33.856,414.703,34.992,414.446,36.466z"/>
	<path fill="#81B853" d="M445.482,43.322v3.651c-1.853,0.689-3.665,1.035-5.437,1.035c-2.921,0-5.25-0.865-6.988-2.597
		c-1.737-1.731-2.606-4.05-2.606-6.958c0-2.935,0.845-5.301,2.536-7.1c1.69-1.798,3.915-2.698,6.674-2.698
		c0.96,0,1.822,0.091,2.586,0.274s1.707,0.524,2.83,1.024v3.935c-1.866-1.19-3.598-1.785-5.193-1.785
		c-1.663,0-3.029,0.585-4.098,1.755c-1.068,1.17-1.603,2.661-1.603,4.473c0,1.907,0.578,3.422,1.734,4.544
		c1.156,1.123,2.715,1.684,4.676,1.684C442.014,44.56,443.644,44.147,445.482,43.322z"/>
	<path fill="#81B853" d="M451.588,21.171c0.608,0,1.129,0.21,1.562,0.629c0.433,0.419,0.648,0.933,0.648,1.542
		c0,0.595-0.216,1.109-0.648,1.542c-0.434,0.433-0.954,0.649-1.562,0.649c-0.567,0-1.068-0.22-1.501-0.659s-0.649-0.95-0.649-1.531
		c0-0.568,0.217-1.072,0.649-1.512C450.52,21.391,451.021,21.171,451.588,21.171z M449.763,29.021h3.691v18.662h-3.691V29.021z"/>
	<path fill="#81B853" d="M458.546,57.197V29.021h6.472c3.312,0,5.893,0.825,7.738,2.475s2.769,3.956,2.769,6.917
		c0,2.799-0.869,5.098-2.606,6.896c-1.737,1.799-3.952,2.698-6.644,2.698c-1.189,0-2.509-0.264-3.955-0.792v9.98H458.546z
		 M464.936,32.47h-2.616v11.481c1.136,0.582,2.326,0.872,3.57,0.872c1.73,0,3.147-0.602,4.249-1.805
		c1.103-1.204,1.653-2.752,1.653-4.646c0-1.217-0.26-2.292-0.78-3.225c-0.521-0.933-1.231-1.613-2.13-2.039
		C467.981,32.683,466.667,32.47,464.936,32.47z"/>
	<path fill="#81B853" d="M495.465,38.677H482.34c0.095,1.785,0.693,3.205,1.796,4.26c1.102,1.055,2.525,1.582,4.27,1.582
		c2.435,0,4.679-0.757,6.734-2.272v3.611c-1.136,0.757-2.262,1.298-3.377,1.623c-1.116,0.324-2.424,0.487-3.926,0.487
		c-2.056,0-3.719-0.426-4.989-1.278c-1.271-0.852-2.289-1.998-3.054-3.438c-0.764-1.44-1.146-3.107-1.146-5
		c0-2.84,0.805-5.149,2.414-6.927c1.608-1.778,3.698-2.667,6.268-2.667c2.475,0,4.449,0.866,5.924,2.597
		c1.474,1.731,2.211,4.05,2.211,6.958V38.677z M482.421,36.466h9.393c-0.095-1.474-0.534-2.61-1.318-3.408
		c-0.785-0.798-1.84-1.197-3.165-1.197s-2.41,0.399-3.256,1.197C483.229,33.856,482.678,34.992,482.421,36.466z"/>
	<path fill="#81B853" d="M498.548,46.345v-3.976c1.041,0.73,2.106,1.322,3.194,1.775c1.089,0.453,2.005,0.679,2.749,0.679
		c0.771,0,1.434-0.189,1.988-0.568c0.554-0.378,0.831-0.832,0.831-1.359c0-0.541-0.179-0.991-0.537-1.349
		c-0.358-0.358-1.133-0.875-2.323-1.552c-2.38-1.325-3.938-2.458-4.675-3.398c-0.737-0.939-1.106-1.964-1.106-3.073
		c0-1.433,0.559-2.603,1.674-3.509c1.116-0.906,2.553-1.359,4.311-1.359c1.826,0,3.698,0.514,5.619,1.542v3.651
		c-2.19-1.325-3.982-1.988-5.376-1.988c-0.717,0-1.295,0.152-1.734,0.457s-0.659,0.708-0.659,1.208c0,0.434,0.199,0.847,0.598,1.239
		c0.397,0.393,1.098,0.866,2.099,1.42l1.319,0.75c3.11,1.758,4.667,3.705,4.667,5.841c0,1.527-0.599,2.782-1.796,3.762
		c-1.196,0.98-2.735,1.47-4.614,1.47c-1.109,0-2.097-0.119-2.962-0.355C500.948,47.417,499.859,46.98,498.548,46.345z"/>
</g>
<g>
	<path fill="#808080" d="M267.829,62.054v1.784h-4.922v3.053h4.922v1.801h-4.922v5.175h-2.283V62.054H267.829z"/>
	<path fill="#808080" d="M272.676,62.054v11.812h-2.283V62.054H272.676z"/>
	<path fill="#808080" d="M276.956,62.054l3.341,7.585l3.255-7.585h2.394l-5.218,11.965h-0.795l-5.386-11.965H276.956z"/>
	<path fill="#808080" d="M295.399,62.054v1.784h-5.353v3.104h5.124v1.784h-5.124v3.356h5.471v1.784h-7.754V62.054H295.399z"/>
	<path fill="#808080" d="M306.75,61.901c1.15,0,2.258,0.287,3.323,0.862v2.029c-1.224-0.738-2.309-1.107-3.256-1.107
		c-0.574,0-1.024,0.111-1.349,0.334s-0.485,0.52-0.485,0.892c0,0.445,0.301,0.857,0.904,1.235c0.169,0.112,0.82,0.428,1.953,0.946
		c0.97,0.457,1.669,0.964,2.098,1.522c0.428,0.558,0.643,1.229,0.643,2.013c0,1.015-0.365,1.833-1.096,2.456
		c-0.729,0.623-1.676,0.935-2.837,0.935c-0.755,0-1.405-0.083-1.949-0.25c-0.544-0.166-1.153-0.452-1.83-0.857v-2.25
		c1.263,1.049,2.452,1.573,3.568,1.573c0.558,0,1.009-0.121,1.353-0.363c0.344-0.243,0.516-0.564,0.516-0.965
		c0-0.546-0.299-0.991-0.896-1.336c-0.496-0.271-1.137-0.595-1.92-0.972c-0.93-0.423-1.625-0.916-2.084-1.48
		c-0.46-0.563-0.689-1.218-0.689-1.961c0-0.992,0.369-1.783,1.107-2.372S305.538,61.901,306.75,61.901z"/>
	<path fill="#808080" d="M322.463,62.054v1.784h-4.194v10.028h-2.283V63.838h-4.193v-1.784H322.463z"/>
	<path fill="#808080" d="M329.229,62.054l5.217,11.812h-2.41l-1.226-2.875h-5.251l-1.142,2.875h-2.393l4.87-11.812H329.229z
		 M326.253,69.258h3.813l-1.995-4.676L326.253,69.258z"/>
	<path fill="#808080" d="M340.52,62.054c1.11,0,2.015,0.307,2.714,0.922c0.699,0.614,1.049,1.415,1.049,2.401
		c0,0.671-0.174,1.255-0.521,1.754s-0.86,0.893-1.543,1.18c0.378,0.203,0.713,0.479,1.007,0.829c0.293,0.35,0.656,0.938,1.091,1.767
		c0.721,1.433,1.257,2.419,1.606,2.96h-2.546c-0.175-0.259-0.411-0.674-0.71-1.243c-0.654-1.257-1.133-2.104-1.438-2.541
		c-0.305-0.437-0.598-0.747-0.879-0.93c-0.282-0.184-0.606-0.275-0.973-0.275h-0.829v4.989h-2.283V62.054H340.52z M340.004,67.093
		c0.597,0,1.066-0.149,1.407-0.448c0.341-0.298,0.512-0.707,0.512-1.226c0-0.541-0.169-0.945-0.507-1.214
		c-0.339-0.268-0.82-0.401-1.446-0.401h-1.421v3.289H340.004z"/>
	<path fill="#808080" d="M357.351,62.054c1.11,0,2.015,0.307,2.714,0.922c0.699,0.614,1.049,1.415,1.049,2.401
		c0,0.671-0.174,1.255-0.521,1.754s-0.86,0.893-1.543,1.18c0.378,0.203,0.713,0.479,1.007,0.829c0.293,0.35,0.656,0.938,1.091,1.767
		c0.721,1.433,1.257,2.419,1.606,2.96h-2.546c-0.175-0.259-0.411-0.674-0.71-1.243c-0.654-1.257-1.133-2.104-1.438-2.541
		c-0.305-0.437-0.598-0.747-0.879-0.93c-0.282-0.184-0.606-0.275-0.973-0.275h-0.829v4.989h-2.283V62.054H357.351z M356.835,67.093
		c0.597,0,1.066-0.149,1.407-0.448c0.341-0.298,0.512-0.707,0.512-1.226c0-0.541-0.169-0.945-0.507-1.214
		c-0.339-0.268-0.82-0.401-1.446-0.401h-1.421v3.289H356.835z"/>
	<path fill="#808080" d="M372.318,62.054v1.784h-5.353v3.104h5.124v1.784h-5.124v3.356h5.471v1.784h-7.754V62.054H372.318z"/>
	<path fill="#808080" d="M381.198,61.901c0.671,0,1.328,0.076,1.971,0.229s1.336,0.411,2.08,0.777v2.148
		c-0.728-0.417-1.399-0.719-2.017-0.905c-0.617-0.186-1.262-0.279-1.933-0.279c-0.84,0-1.598,0.174-2.274,0.521
		s-1.202,0.836-1.577,1.467c-0.375,0.632-0.562,1.333-0.562,2.105c0,0.789,0.187,1.497,0.559,2.123
		c0.372,0.625,0.896,1.108,1.572,1.45c0.677,0.341,1.438,0.511,2.283,0.511c0.648,0,1.267-0.093,1.856-0.278
		c0.589-0.187,1.332-0.521,2.228-1.007v2.148c-0.767,0.4-1.471,0.685-2.113,0.854s-1.393,0.254-2.25,0.254
		c-1.245,0-2.358-0.248-3.34-0.744c-0.98-0.496-1.752-1.211-2.312-2.144s-0.841-1.955-0.841-3.065c0-1.189,0.288-2.258,0.866-3.205
		c0.578-0.946,1.373-1.677,2.385-2.189S379.93,61.901,381.198,61.901z"/>
	<path fill="#808080" d="M390.324,62.054v11.812h-2.283V62.054H390.324z"/>
	<path fill="#808080" d="M397.979,62.054c1.104,0,2.003,0.319,2.693,0.96c0.69,0.64,1.036,1.464,1.036,2.473
		c0,1.021-0.35,1.847-1.049,2.478c-0.699,0.632-1.621,0.947-2.765,0.947h-2.199v4.955h-2.283V62.054H397.979z M397.412,67.127
		c0.608,0,1.084-0.14,1.425-0.419c0.341-0.278,0.512-0.691,0.512-1.238c0-1.088-0.699-1.632-2.098-1.632h-1.556v3.289H397.412z"/>
	<path fill="#808080" d="M411.594,62.054v1.784h-5.353v3.104h5.124v1.784h-5.124v3.356h5.471v1.784h-7.754V62.054H411.594z"/>
	<path fill="#808080" d="M417.7,61.901c1.15,0,2.258,0.287,3.323,0.862v2.029c-1.224-0.738-2.309-1.107-3.256-1.107
		c-0.574,0-1.024,0.111-1.349,0.334s-0.485,0.52-0.485,0.892c0,0.445,0.301,0.857,0.904,1.235c0.169,0.112,0.82,0.428,1.953,0.946
		c0.97,0.457,1.669,0.964,2.098,1.522c0.428,0.558,0.643,1.229,0.643,2.013c0,1.015-0.365,1.833-1.096,2.456
		c-0.729,0.623-1.676,0.935-2.837,0.935c-0.755,0-1.405-0.083-1.949-0.25c-0.544-0.166-1.153-0.452-1.83-0.857v-2.25
		c1.263,1.049,2.452,1.573,3.568,1.573c0.558,0,1.009-0.121,1.353-0.363c0.344-0.243,0.516-0.564,0.516-0.965
		c0-0.546-0.299-0.991-0.896-1.336c-0.496-0.271-1.137-0.595-1.92-0.972c-0.93-0.423-1.625-0.916-2.084-1.48
		c-0.46-0.563-0.689-1.218-0.689-1.961c0-0.992,0.369-1.783,1.107-2.372S416.488,61.901,417.7,61.901z"/>
	<path fill="#808080" d="M436.408,62.054v1.784h-4.922v3.053h4.922v1.801h-4.922v5.175h-2.283V62.054H436.408z"/>
	<path fill="#808080" d="M444.976,61.901c1.224,0,2.324,0.252,3.302,0.757c0.979,0.505,1.758,1.231,2.338,2.182
		c0.581,0.95,0.871,1.991,0.871,3.124c0,1.105-0.283,2.13-0.85,3.074s-1.345,1.677-2.334,2.198s-2.104,0.782-3.344,0.782
		c-1.224,0-2.336-0.265-3.336-0.795c-1.001-0.53-1.78-1.259-2.338-2.186c-0.559-0.928-0.837-1.952-0.837-3.074
		c0-1.082,0.278-2.1,0.837-3.053c0.558-0.952,1.327-1.692,2.309-2.219C442.574,62.165,443.701,61.901,444.976,61.901z
		 M440.807,67.964c0,0.784,0.178,1.488,0.533,2.114c0.354,0.626,0.85,1.11,1.483,1.454c0.635,0.344,1.352,0.516,2.152,0.516
		c1.212,0,2.208-0.38,2.989-1.142c0.78-0.761,1.171-1.741,1.171-2.942c0-0.783-0.176-1.489-0.528-2.118
		c-0.353-0.628-0.849-1.114-1.488-1.458s-1.36-0.517-2.16-0.517c-0.801,0-1.521,0.174-2.161,0.521
		c-0.64,0.347-1.131,0.831-1.475,1.454C440.979,66.469,440.807,67.175,440.807,67.964z"/>
	<path fill="#808080" d="M458.312,62.054c1.11,0,2.015,0.307,2.714,0.922c0.699,0.614,1.049,1.415,1.049,2.401
		c0,0.671-0.174,1.255-0.521,1.754s-0.86,0.893-1.543,1.18c0.378,0.203,0.713,0.479,1.007,0.829c0.293,0.35,0.656,0.938,1.091,1.767
		c0.721,1.433,1.257,2.419,1.606,2.96h-2.546c-0.175-0.259-0.411-0.674-0.71-1.243c-0.654-1.257-1.133-2.104-1.438-2.541
		c-0.305-0.437-0.598-0.747-0.879-0.93c-0.282-0.184-0.606-0.275-0.973-0.275h-0.829v4.989h-2.283V62.054H458.312z M457.796,67.093
		c0.597,0,1.066-0.149,1.407-0.448c0.341-0.298,0.512-0.707,0.512-1.226c0-0.541-0.169-0.945-0.507-1.214
		c-0.339-0.268-0.82-0.401-1.446-0.401h-1.421v3.289H457.796z"/>
	<path fill="#808080" d="M471.734,62.054l2.858,3.948l2.892-3.948h2.715l-4.465,5.961v5.852h-2.283v-5.868l-4.49-5.944H471.734z"/>
	<path fill="#808080" d="M487.201,61.901c1.224,0,2.324,0.252,3.302,0.757c0.979,0.505,1.758,1.231,2.338,2.182
		c0.581,0.95,0.871,1.991,0.871,3.124c0,1.105-0.283,2.13-0.85,3.074s-1.345,1.677-2.334,2.198s-2.104,0.782-3.344,0.782
		c-1.224,0-2.336-0.265-3.336-0.795c-1.001-0.53-1.78-1.259-2.338-2.186c-0.559-0.928-0.837-1.952-0.837-3.074
		c0-1.082,0.278-2.1,0.837-3.053c0.558-0.952,1.327-1.692,2.309-2.219C484.8,62.165,485.927,61.901,487.201,61.901z M483.032,67.964
		c0,0.784,0.178,1.488,0.533,2.114c0.354,0.626,0.85,1.11,1.483,1.454c0.635,0.344,1.352,0.516,2.152,0.516
		c1.212,0,2.208-0.38,2.989-1.142c0.78-0.761,1.171-1.741,1.171-2.942c0-0.783-0.176-1.489-0.528-2.118
		c-0.353-0.628-0.849-1.114-1.488-1.458s-1.36-0.517-2.16-0.517c-0.801,0-1.521,0.174-2.161,0.521
		c-0.64,0.347-1.131,0.831-1.475,1.454C483.204,66.469,483.032,67.175,483.032,67.964z"/>
	<path fill="#808080" d="M498.483,62.054v6.874c0,0.705,0.105,1.266,0.316,1.683c0.212,0.418,0.557,0.762,1.036,1.032
		s1.037,0.405,1.675,0.405c0.698,0,1.292-0.128,1.779-0.385c0.487-0.256,0.845-0.605,1.07-1.048c0.225-0.442,0.338-1.056,0.338-1.84
		v-6.722h2.283v7.019c0,1.589-0.477,2.812-1.43,3.665c-0.952,0.854-2.3,1.281-4.041,1.281c-1.094,0-2.043-0.194-2.846-0.584
		c-0.804-0.389-1.416-0.951-1.839-1.687s-0.635-1.6-0.635-2.592v-7.103H498.483z"/>
	<path fill="#808080" d="M510.966,71.423c0.338,0,0.64,0.132,0.904,0.397c0.266,0.265,0.397,0.566,0.397,0.904
		c0,0.344-0.13,0.646-0.389,0.905c-0.26,0.259-0.563,0.389-0.913,0.389c-0.355,0-0.66-0.129-0.913-0.385
		c-0.254-0.257-0.381-0.56-0.381-0.909s0.13-0.653,0.389-0.913C510.32,71.552,510.622,71.423,510.966,71.423z M510.991,61.901
		c0.806,0,1.209,0.732,1.209,2.198c0,0.795-0.107,1.911-0.321,3.349s-0.389,2.3-0.524,2.588c-0.09,0.197-0.211,0.296-0.363,0.296
		c-0.169,0-0.299-0.088-0.39-0.263c-0.124-0.22-0.296-1.025-0.516-2.418s-0.335-2.576-0.347-3.552
		C509.739,62.634,510.156,61.901,510.991,61.901z"/>
</g>
<g>
	<g>
		
			<radialGradient id="SVGID_1_" cx="193.8403" cy="-138.8301" r="90.3225" gradientTransform="matrix(1 0 0 -1 -146 -142)" gradientUnits="userSpaceOnUse">
			<stop  offset="0" style="stop-color:#BCE2F7"/>
			<stop  offset="0.681" style="stop-color:#17A6DE"/>
			<stop  offset="1" style="stop-color:#007EA9"/>
		</radialGradient>
		<path fill="url(#SVGID_1_)" d="M28.394,86.695l-0.464-0.329l-0.456,0.329c-0.128,0.094-0.354,0.298-0.354,0.65
			c0,0.451,0.364,0.81,0.809,0.81c0.454,0,0.812-0.358,0.812-0.81C28.742,86.993,28.521,86.789,28.394,86.695z"/>
		
			<radialGradient id="SVGID_2_" cx="193.8027" cy="-138.7827" r="90.3813" gradientTransform="matrix(1 0 0 -1 -146 -142)" gradientUnits="userSpaceOnUse">
			<stop  offset="0" style="stop-color:#BCE2F7"/>
			<stop  offset="0.681" style="stop-color:#17A6DE"/>
			<stop  offset="1" style="stop-color:#007EA9"/>
		</radialGradient>
		<path fill="url(#SVGID_2_)" d="M24.648,32.875l1.037-0.672l0.231-0.08l-1.286-0.696c-0.327-0.17-0.788-0.263-1.293-0.249
			c0.114,0.342,0.297,0.683,0.57,0.956L24.648,32.875z"/>
		
			<radialGradient id="SVGID_3_" cx="193.7681" cy="-138.7495" r="90.3909" gradientTransform="matrix(1 0 0 -1 -146 -142)" gradientUnits="userSpaceOnUse">
			<stop  offset="0" style="stop-color:#BCE2F7"/>
			<stop  offset="0.681" style="stop-color:#17A6DE"/>
			<stop  offset="1" style="stop-color:#007EA9"/>
		</radialGradient>
		<path fill="url(#SVGID_3_)" d="M53.539,86.695l-0.462-0.329l-0.461,0.329c-0.128,0.094-0.351,0.298-0.351,0.65
			c0,0.451,0.364,0.81,0.812,0.81c0.444,0,0.812-0.358,0.812-0.81C53.89,86.982,53.641,86.766,53.539,86.695z"/>
		<path fill="#4CAE4D" d="M83.213,44.106l-0.028-0.273c-0.046-0.359-0.12-0.713-0.223-1.061c-0.045-0.147-0.094-0.279-0.14-0.393
			c-0.057-0.165-0.114-0.313-0.176-0.445c-0.063-0.137-0.135-0.272-0.202-0.398c-0.028-0.051-0.06-0.104-0.095-0.16
			c-0.146-0.261-0.313-0.5-0.484-0.723l-8.336-9.67c-1.246-1.435-3.054-2.268-4.958-2.268c-0.49,0-0.977,0.056-1.45,0.161
			l-0.411-3.203c-0.319-2.415-1.846-4.484-4.028-5.504l-7.917-4.923c-0.81-3.081-3.613-5.309-6.852-5.309
			c-0.316,0-0.63,0.022-0.925,0.068l-0.975,0.12c-3.55,0.473-6.154,3.532-6.159,7.032l-4.775,5.031
			c-1.356-1.151-3.068-1.83-4.86-1.83c-2.222,0-4.276,0.992-5.741,2.741c-1.599-0.149-3.274,0.046-4.906,0.564l-3.826,1.213
			l-0.576,3.977c-0.242,1.688-0.071,3.869,0.872,5.956c-0.407,0.609-0.766,1.246-1.099,1.892l-1.14-1.755
			c-1.216-1.875-3.268-2.981-5.495-2.981c-1.268,0-2.504,0.359-3.57,1.049c-1.473,0.958-2.476,2.428-2.84,4.137
			c-0.368,1.716-0.04,3.465,0.912,4.923l3.755,5.789c0.04,0.08,0.082,0.155,0.125,0.229l15.293,23.633
			c0.792,1.227,1.946,2.121,3.268,2.599H20.85c-3.612,0-6.552,2.945-6.552,6.564c0,2.963,1.983,5.48,4.697,6.279
			c0,0.057-0.002,0.125-0.002,0.181c0,4.936,4.008,8.946,8.937,8.946c4.903,0,8.892-3.964,8.937-8.866h7.271
			c0.045,4.902,4.037,8.866,8.94,8.866c4.931,0,8.934-4.011,8.934-8.946c0-0.17-0.006-0.34-0.012-0.512
			c1.373-0.627,2.516-1.731,3.185-3.133l6.085-12.718c0.023-0.046,0.038-0.091,0.054-0.138c0.226-0.393,0.436-0.809,0.593-1.254
			c0.478-1.322,0.587-2.745,0.316-4.113c-0.378-1.875-1.43-3.441-2.964-4.433c-0.265-0.164-0.54-0.308-0.821-0.432
			c0.042,0,0.083,0,0.12,0c1.909,0,3.717-0.822,4.963-2.269l8.116-9.395l0.125-0.143c0.034-0.045,0.068-0.092,0.105-0.148
			c0.014-0.019,0.031-0.041,0.048-0.057l0.089-0.126c0.15-0.206,0.285-0.42,0.413-0.656l0.197-0.382
			c0.143-0.307,0.259-0.619,0.353-0.934c0.041-0.13,0.069-0.254,0.1-0.387c0.062-0.279,0.106-0.547,0.129-0.819l0.028-0.291
			C83.238,44.704,83.236,44.403,83.213,44.106z"/>
	</g>
	<g>
		<path fill="#FFFFFF" d="M79.16,44.443c0-0.035,0-0.063-0.007-0.104c-0.016-0.136-0.045-0.273-0.088-0.411
			c-0.012-0.039-0.028-0.079-0.048-0.112c-0.023-0.069-0.038-0.126-0.065-0.182c-0.011-0.036-0.04-0.069-0.057-0.103
			c-0.019-0.046-0.045-0.092-0.074-0.132c-0.063-0.12-0.143-0.227-0.237-0.335c-0.002-0.006-0.011-0.018-0.011-0.023l-8.116-9.401
			c-0.904-1.042-2.472-1.151-3.513-0.25c-1.042,0.894-1.154,2.46-0.26,3.503l4.568,5.288h-6.522l-2.051-15.976
			c-0.148-1.111-0.879-2.034-1.891-2.433l-9.746-6.058l-0.131-1.055c-0.213-1.64-1.704-2.848-3.405-2.632l-0.949,0.126
			c-1.652,0.223-2.82,1.749-2.615,3.4l0.137,1.054l-8.23,8.667c-0.806,0.861-1.042,2.091-0.652,3.139l0.003,0.035
			c-0.226-0.035-0.462-0.085-0.695-0.12c-0.479-0.074-0.966-0.12-1.448-0.154c0.029-0.103,0.06-0.182,0.078-0.251
			c0.701-0.866,0.851-2.062,0.373-3.203c-0.567-1.373-1.892-2.3-3.285-2.3c-0.661,0-1.923,0.209-2.9,1.646
			c-0.171,0.245-0.508,0.734-0.764,1.784c-1.504-0.809-3.543-1.014-5.751-0.319l-1.407,0.456l-0.209,1.447
			c-0.236,1.628,0.191,3.919,1.849,5.572c-1.869,2.006-3.174,4.468-3.76,7.173h-3.622l-3.266-5.025
			c-0.746-1.157-2.281-1.476-3.438-0.729c-1.154,0.746-1.481,2.284-0.727,3.436l3.892,6.004c0.029,0.045,0.043,0.102,0.069,0.148
			l15.207,23.497c0.458,0.721,1.248,1.141,2.088,1.141h33.919l-3.695,7.737H20.85c-1.378,0-2.49,1.118-2.49,2.496
			c0,1.367,1.111,2.478,2.49,2.478h4.285c-1.253,0.884-2.077,2.337-2.077,3.983c0,2.701,2.183,4.878,4.872,4.878
			c2.69,0,4.88-2.177,4.88-4.878c0-1.646-0.827-3.1-2.083-3.983h19.552c-1.256,0.884-2.076,2.337-2.076,3.983
			c0,2.701,2.182,4.878,4.875,4.878c2.691,0,4.871-2.177,4.871-4.878c0-1.646-0.82-3.1-2.074-3.983h3.399
			c0.957,0,1.829-0.552,2.243-1.412l6.085-12.712c0.364-0.775,0.313-1.676-0.143-2.406c-0.456-0.716-1.248-1.155-2.105-1.155H28.835
			l-0.979-1.51c-0.063-0.171-0.138-0.33-0.237-0.489l-3.396-5.219L17.053,47.41l-0.168-0.262h0.142h4.735h38.872h4.736h5.881
			l-4.568,5.289c-0.895,1.041-0.783,2.613,0.26,3.515c1.041,0.894,2.609,0.786,3.513-0.268l8.116-9.396
			c0.011-0.023,0.031-0.04,0.045-0.07c0.037-0.034,0.06-0.074,0.088-0.102c0.063-0.09,0.115-0.176,0.171-0.278
			c0.02-0.035,0.041-0.074,0.064-0.109c0.054-0.125,0.105-0.256,0.144-0.392c0.012-0.03,0.012-0.063,0.015-0.087
			c0.028-0.113,0.051-0.229,0.06-0.341c0.009-0.04,0.009-0.08,0.015-0.126C79.173,44.67,79.173,44.555,79.16,44.443z M22.144,42.18
			c0.75-2.295,2.248-4.295,4.298-5.628l1.046-0.679l1.222-0.432c0.205-0.069,0.407-0.137,0.609-0.195l0.652-0.182l0.627-0.103
			c1.054-0.148,2.131-0.148,3.194,0.011c1.094,0.171,2.156,0.513,3.153,1.015l3.954,1.989l-1.04-8.109l8.111-8.535l10.163,6.314
			l1.857,14.534H22.144z"/>
	</g>
</g>
<g>
</g>
<g>
</g>
<g>
</g>
<g>
</g>
<g>
</g>
<g>
</g>
<g>
</g>
<g>
</g>
<g>
</g>
<g>
</g>
<g>
</g>
<g>
</g>
<g>
</g>
<g>
</g>
<g>
</g>
</svg>
