<?xml version="1.0" encoding="utf-8"?>
<!-- Generator: Adobe Illustrator 16.0.0, SVG Export Plug-In . SVG Version: 6.00 Build 0)  -->
<!DOCTYPE svg PUBLIC "-//W3C//DTD SVG 1.1//EN" "http://www.w3.org/Graphics/SVG/1.1/DTD/svg11.dtd">
<svg version="1.1" id="Layer_1" xmlns="http://www.w3.org/2000/svg" xmlns:xlink="http://www.w3.org/1999/xlink" x="0px" y="0px"
	 width="1280px" height="1185.095px" viewBox="0 0 1280 1185.095" enable-background="new 0 0 1280 1185.095" xml:space="preserve">
<rect x="-1" y="-81.405" fill="#333333" width="1280" height="1920"/>
<g display="none">
	<polygon display="inline" fill="#444444" points="432.333,435.292 677.788,638.323 471.728,629.231 	"/>
	<polygon display="inline" fill="#222222" points="677.788,638.323 289.909,929.232 471.728,629.231 	"/>
	<polygon display="inline" fill="#222222" points="289.909,929.232 432.333,435.292 192.939,574.686 	"/>
	<polygon display="inline" fill="#444444" points="432.333,435.292 192.939,574.686 29.303,504.989 	"/>
	<polygon display="inline" fill="#444444" points="432.333,435.292 573.812,469.374 555.061,361.363 	"/>
	<polygon display="inline" fill="#222222" points="573.812,469.374 677.788,638.323 555.061,361.363 	"/>
	<polygon display="inline" fill="#444444" points="555.061,361.363 761,402.595 573.812,218.595 	"/>
	<polygon display="inline" fill="#222222" points="677.788,638.323 761,402.595 789,550.595 	"/>
	<polygon display="inline" fill="#222222" points="432.333,435.292 463,218.595 555.061,361.363 	"/>
	<polygon display="inline" fill="#444444" points="574,218.595 463,218.595 573.812,86.595 	"/>
	<polygon display="inline" fill="#222222" points="432.333,435.292 289.909,198.595 192.939,380.595 	"/>
	<polygon display="inline" fill="#444444" points="29.303,504.989 192.939,380.595 289.909,198.595 	"/>
	<polygon display="inline" fill="#444444" points="289.909,198.595 463,218.595 405,-11.405 	"/>
	<polygon display="inline" fill="#222222" points="574,218.595 677.788,138.595 573.812,86.595 	"/>
	<polygon display="inline" fill="#222222" points="761,402.595 677.788,138.595 917,198.595 	"/>
	<polygon display="inline" fill="#222222" points="289.909,198.595 159.606,80.595 405,-11.405 	"/>
	<polygon display="inline" fill="#444444" points="29.303,504.989 159.606,80.595 -61,180.595 	"/>
</g>
<polygon fill="#808080" points="381,174.595 619,240.595 445,564.595 "/>
<polygon fill="#666666" points="619,240.595 571,12.595 381,174.595 "/>
<polygon fill="#666666" points="619,240.595 787,402.595 445,564.595 "/>
<polygon fill="#333333" points="619,240.595 835,136.595 787,402.595 "/>
<polygon fill="#444444" points="619,240.595 571,12.595 835,136.595 "/>
<polygon fill="#666666" points="381,174.595 117,310.595 445,564.595 "/>
<polygon fill="#4D4D4D" points="381,174.595 205,12.595 117,310.595 "/>
<polygon fill="#808080" points="381,174.595 417,-129.405 205,12.595 "/>
<polygon fill="#444444" points="381,174.595 571,12.595 417,-129.405 "/>
<polygon fill="#808080" points="835,136.595 823,-33.405 571,12.595 "/>
<polygon fill="#808080" points="787,402.595 1091,228.595 835,136.595 "/>
<polygon fill="#4D4D4D" points="787,402.595 951,548.595 1091,228.595 "/>
<polygon fill="#333333" points="787,402.595 445,564.595 951,548.595 "/>
<polygon fill="#444444" points="1091,228.595 1059,22.595 835,136.595 "/>
<polygon fill="#4D4D4D" points="835,136.595 823,-33.405 1059,22.595 "/>
<polygon fill="#666666" points="445,564.595 511,820.595 811,738.595 "/>
<polygon fill="#4D4D4D" points="445,564.595 811,738.595 951,548.595 "/>
<polygon fill="#444444" points="811,738.595 855,934.595 951,548.595 "/>
<polygon fill="#333333" points="511,820.595 855,934.595 811,738.595 "/>
<polygon fill="#808080" points="511,820.595 231,714.595 445,564.595 "/>
<polygon fill="#4D4D4D" points="117,310.595 -117,450.595 231,714.595 "/>
<polygon fill="#808080" points="117,310.595 -133,125.595 205,12.595 "/>
<polygon fill="#4D4D4D" points="1059,22.595 1213,-43.405 1091,228.595 "/>
<polygon fill="#333333" points="1091,228.595 1351,161.595 1213,-43.405 "/>
<polygon fill="#444444" points="205,12.595 117,-211.405 -133,125.595 "/>
<polygon fill="#666666" points="1091,228.595 1336.056,423.208 951,548.595 "/>
<polygon fill="#444444" points="1091,228.595 1351,161.595 1336.056,423.208 "/>
<polygon fill="#333333" points="951,548.595 1143.527,692.595 1336.056,423.208 "/>
<polygon fill="#333333" points="855,934.595 1018.071,793.689 951,548.595 "/>
<polygon fill="#4D4D4D" points="1018.071,793.689 1143.527,692.595 951,548.595 "/>
<polygon fill="#333333" points="1143.527,692.595 1265.559,877.595 1018.071,793.689 "/>
<polygon fill="#444444" points="1265.559,877.595 1336.056,423.208 1143.527,692.595 "/>
<polygon fill="#444444" points="1265.559,877.595 1414.052,759.191 1336.056,423.208 "/>
<polygon fill="#666666" points="231,714.595 184.114,949.681 511,820.595 "/>
<polygon fill="#444444" points="511,820.595 639,1026.177 855,934.595 "/>
<polygon fill="#666666" points="-117,450.595 -240.365,804.188 231,714.595 "/>
<polygon fill="#444444" points="231,714.595 184.114,949.681 -240.365,804.188 "/>
<polygon fill="#4D4D4D" points="511,820.595 381,1135.671 184.114,949.681 "/>
<polygon fill="#333333" points="381,1135.671 639,1026.177 511,820.595 "/>
<polygon fill="#666666" points="184,949.595 184,1117.595 380.5,1135.671 "/>
<polygon fill="#333333" points="184,1117.595 -240.865,804.188 184,949.595 "/>
<polygon fill="#808080" points="855,934.595 991.073,996.18 1018.071,793.689 "/>
<polygon fill="#444444" points="991.073,996.18 1265.559,877.595 1018.071,793.689 "/>
<polygon fill="#333333" points="639,1026.177 787,1042.633 855,934.595 "/>
<polygon fill="#666666" points="791.583,1042.633 991.073,996.18 855,934.595 "/>
<polygon fill="#4D4D4D" points="639,1026.177 571,1238.595 381,1135.671 "/>
<polygon fill="#444444" points="571,1238.595 791.583,1042.633 639,1026.177 "/>
<polygon fill="#444444" points="791.583,1042.633 891.328,1172.595 991.073,996.18 "/>
<polygon fill="#333333" points="891.328,1172.595 571,1238.595 791.583,1042.633 "/>
<polygon fill="#808080" points="991.073,996.18 1109,1084.388 1265.559,877.595 "/>
<polygon fill="#666666" points="891.328,1172.595 1109,1084.388 991.073,996.18 "/>
<polygon fill="#444444" points="1109,1084.388 1361,1102.595 1265.559,877.595 "/>
<polygon fill="#444444" points="184.5,1117.595 269,1252.595 381,1135.671 "/>
<polygon fill="#4D4D4D" points="184.5,1117.595 -103,1172.595 -240.365,804.188 "/>
<polygon fill="#333333" points="269,1252.595 571,1238.595 381,1135.671 "/>
<polygon fill="#808080" points="269,1252.595 -103,1172.595 184.5,1117.595 "/>
<polygon fill="#444444" points="891.328,1172.595 1037,1238.595 1109,1084.388 "/>
<polygon fill="#444444" points="891.328,1172.595 801,1294.595 571,1238.595 "/>
<rect y="-0.405" opacity="0.8" fill="#333333" width="1279" height="1186"/>
</svg>
