<?xml version="1.0" encoding="utf-8"?>
<!-- Generator: Adobe Illustrator 16.0.0, SVG Export Plug-In . SVG Version: 6.00 Build 0)  -->
<!DOCTYPE svg PUBLIC "-//W3C//DTD SVG 1.1//EN" "http://www.w3.org/Graphics/SVG/1.1/DTD/svg11.dtd">
<svg version="1.1" id="Layer_1" xmlns="http://www.w3.org/2000/svg" xmlns:xlink="http://www.w3.org/1999/xlink" x="0px" y="0px"
	 width="140px" height="124px" viewBox="0 0 140 124" enable-background="new 0 0 140 124" xml:space="preserve">
<g>
	<linearGradient id="SVGID_1_" gradientUnits="userSpaceOnUse" x1="27.1064" y1="18.8823" x2="113.8934" y2="105.6693">
		<stop  offset="0" style="stop-color:#FF8800"/>
		<stop  offset="1" style="stop-color:#FFBB33"/>
	</linearGradient>
	<path fill="url(#SVGID_1_)" d="M134,57.403h-2.325c-2.593-32-28.98-56.306-61.175-56.306c-32.193,0-58.583,24.306-61.176,56.306H6
		c-3.313,0-6,2.687-6,6s2.687,6,6,6h3.494c3.432,30,29.43,54.5,61.006,54.5c31.577,0,57.574-24.5,61.006-54.5H134
		c3.313,0,6-2.687,6-6S137.313,57.403,134,57.403z"/>
	<linearGradient id="SVGID_2_" gradientUnits="userSpaceOnUse" x1="27.1064" y1="18.8823" x2="113.8934" y2="105.6693">
		<stop  offset="0" style="stop-color:#FFBB33"/>
		<stop  offset="1" style="stop-color:#FF8800"/>
	</linearGradient>
	<path fill="url(#SVGID_2_)" d="M70.5,7.565c13.75,0,26.873,5.141,36.953,14.476c10.025,9.284,16.161,21.868,17.277,35.433
		l0.441,5.373l-0.591,5.281c-3.082,27.54-26.332,48.308-54.081,48.308c-27.749,0-50.999-20.768-54.082-48.308l-0.591-5.283
		l0.441-5.37c1.116-13.565,7.252-26.149,17.278-35.433C43.627,12.706,56.751,7.565,70.5,7.565 M70.5,1.097
		c-32.193,0-58.583,24.306-61.176,56.306H6c-3.313,0-6,2.687-6,6s2.687,6,6,6h3.494c3.432,30,29.43,54.5,61.006,54.5
		c31.577,0,57.574-24.5,61.006-54.5H134c3.313,0,6-2.687,6-6s-2.687-6-6-6h-2.325C129.082,25.403,102.694,1.097,70.5,1.097
		L70.5,1.097z"/>
</g>
<g>
	<path fill="#CC0000" d="M90.336,47.04l-0.182-0.037L72.898,89.755H68.1L50.845,47.04l-0.183,0.037l0.733,21.577v15.46l5.971,1.025
		v4.616h-19.16v-4.616l5.971-1.025v-42.02l-5.971-1.026v-4.652h5.971h9.232l16.999,43.338h0.22L87.59,36.416h15.238v4.652
		l-5.971,1.026v42.02l5.971,1.025v4.616H83.67v-4.616l5.971-1.025v-15.46L90.336,47.04z"/>
</g>
<radialGradient id="SVGID_3_" cx="5.625" cy="63.2778" r="3" gradientUnits="userSpaceOnUse">
	<stop  offset="0" style="stop-color:#FF4444"/>
	<stop  offset="1" style="stop-color:#CC0000"/>
</radialGradient>
<circle fill="url(#SVGID_3_)" cx="5.625" cy="63.278" r="3"/>
<radialGradient id="SVGID_4_" cx="133.625" cy="63.2778" r="3" gradientUnits="userSpaceOnUse">
	<stop  offset="0" style="stop-color:#FF4444"/>
	<stop  offset="1" style="stop-color:#CC0000"/>
</radialGradient>
<circle fill="url(#SVGID_4_)" cx="133.625" cy="63.278" r="3"/>
<polygon fill="#FF4444" points="38.5,40.859 40.393,39.403 51.203,39.403 53.212,36.514 38.5,36.469 "/>
<polygon fill="#FF4444" points="38.5,89.656 40.521,87.403 47.5,87.403 47.5,45.403 44.5,42.087 44.5,84.403 38.5,85.434 "/>
<polygon fill="#FF4444" points="84.5,89.656 86.521,87.403 93.5,87.403 93.5,43.131 90.832,46.403 90.5,84.403 84.5,85.434 "/>
<polygon fill="#FF4444" points="70.5,80.403 70.5,86.403 89.666,39.612 101.042,38.771 102.624,36.673 87.792,36.736 "/>
<line fill="none" stroke="#FF4444" stroke-linecap="round" stroke-miterlimit="10" x1="70.5" y1="86.403" x2="51.203" y2="39.403"/>
<g>
</g>
<g>
</g>
<g>
</g>
<g>
</g>
<g>
</g>
<g>
</g>
<g>
</g>
<g>
</g>
<g>
</g>
<g>
</g>
<g>
</g>
<g>
</g>
<g>
</g>
<g>
</g>
<g>
</g>
</svg>
