<?xml version="1.0" encoding="utf-8"?>
<!-- Generator: Adobe Illustrator 16.0.0, SVG Export Plug-In . SVG Version: 6.00 Build 0)  -->
<!DOCTYPE svg PUBLIC "-//W3C//DTD SVG 1.1//EN" "http://www.w3.org/Graphics/SVG/1.1/DTD/svg11.dtd">
<svg version="1.1" id="Layer_1" xmlns="http://www.w3.org/2000/svg" xmlns:xlink="http://www.w3.org/1999/xlink" x="0px" y="0px"
	 width="42px" height="22px" viewBox="4.946 15.5 42 22" enable-background="new 4.946 15.5 42 22" xml:space="preserve">
<polygon fill="#FFFFFF" points="40.859,16 37.215,31 37.132,31 33.528,16 28,16 28,16.543 28,16.291 28,29.103 28.11,28.984 
	22.158,16 18,16 18,37 22,37 22,23.566 22.161,23.843 28.385,37 28.434,37 32.292,37 32,37 32,30.552 31.826,22.848 31.993,23.139 
	35.875,37 38.484,37 42.323,23.028 42.87,22.89 43,30.552 43,37 46,37 46,16 "/>
<polygon fill="#FFFFFF" points="16,36.507 5.892,26.398 16,16.291 "/>
</svg>
