<?xml version="1.0" encoding="utf-8"?>
<!-- Generator: Adobe Illustrator 16.0.0, SVG Export Plug-In . SVG Version: 6.00 Build 0)  -->
<!DOCTYPE svg PUBLIC "-//W3C//DTD SVG 1.1//EN" "http://www.w3.org/Graphics/SVG/1.1/DTD/svg11.dtd">
<svg version="1.1" id="Layer_1" xmlns="http://www.w3.org/2000/svg" xmlns:xlink="http://www.w3.org/1999/xlink" x="0px" y="0px"
	 width="200px" height="200px" viewBox="0 0 200 200" enable-background="new 0 0 200 200" xml:space="preserve">
<g>
	<path fill="#39B54A" d="M197.634,116.206V83.449l-21.716-3.113c-1.75-7.301-4.498-14.197-8.145-20.539l12.896-17.298
		l-23.161-23.165l-16.986,12.585c-6.411-3.89-13.409-6.867-20.855-8.79L116.555,2.37H83.798l-3.113,20.759
		c-7.444,1.922-14.443,4.901-20.854,8.79L42.844,19.334L19.682,42.499L32.58,59.797c-3.641,6.343-6.396,13.238-8.148,20.539
		L2.719,83.449v32.758l22.376,3.111c1.928,6.972,4.79,13.526,8.46,19.568l-13.873,18.27l23.161,23.171l18.586-14.189
		c5.968,3.43,12.433,6.056,19.256,7.815l3.113,23.332h32.756l3.113-23.332c6.831-1.76,13.286-4.386,19.256-7.814l18.586,14.183
		l23.161-23.165l-13.864-18.269c3.662-6.042,6.525-12.6,8.452-19.569L197.634,116.206z"/>
	<polygon fill="#006837" points="2.719,116.207 6.068,112.856 29.521,114.694 24.996,119.22 	"/>
	<path fill="#006837" d="M28.858,157.072l-9.177,0.084l23.161,23.171l18.586-14.189c5.968,3.43,12.433,6.056,19.256,7.815
		l3.113,23.332h32.756l3.113-23.332c6.831-1.76,13.286-4.386,19.256-7.814l18.586,14.183l23.161-23.165l-13.864-18.269
		c3.662-6.042,6.525-12.6,8.452-19.569l22.376-3.112V83.449l-21.716-3.113c-1.75-7.301-4.498-14.197-8.145-20.539l12.896-17.298
		l-23.161-23.165l-0.095,13.9"/>
	<path fill="#009245" d="M194,112.862V86.959l-22.608-2.386c-1.871-8.784-5.295-16.983-10.02-24.283l14.345-17.703l-18.31-18.316
		l-17.7,14.331c-7.299-4.723-15.496-8.121-24.28-9.992L113.043,6H87.141L84.75,28.648c-8.756,1.888-16.927,5.319-24.203,10.042
		L42.769,24.285L24.453,42.594l14.424,17.815c-4.683,7.266-8.143,15.417-10.004,24.147L6,86.959v25.903l22.91,2.407
		c1.877,8.704,5.325,16.829,10.008,24.071l-14.475,17.893l18.32,18.316l17.895-14.484c7.242,4.684,15.369,8.149,24.073,10.028
		L87.141,194h25.902l2.403-22.869c8.732-1.863,16.886-5.304,24.152-9.986l17.815,14.414l18.317-18.32l-14.392-17.78
		c4.724-7.276,8.128-15.448,10.016-24.206L194,112.862z"/>
	
		<linearGradient id="SVGID_1_" gradientUnits="userSpaceOnUse" x1="-48.7466" y1="319.4736" x2="-48.7466" y2="371.7627" gradientTransform="matrix(0.7071 -0.7071 0.6494 0.6494 -57.334 -141.083)">
		<stop  offset="0" style="stop-color:#006837"/>
		<stop  offset="1" style="stop-color:#009245;stop-opacity:0"/>
	</linearGradient>
	<polygon fill="url(#SVGID_1_)" points="179.129,105.299 120.11,164.317 86.154,130.361 145.173,71.342 	"/>
	<path fill="#FFFFFF" d="M145.505,78.211L92.244,129.86c-0.906,0.879-2.078,1.316-3.252,1.316c-1.191,0-2.389-0.456-3.301-1.367
		l-20.752-20.753c-1.824-1.823-1.824-4.777,0-6.602c1.823-1.824,4.777-1.824,6.602,0l17.506,17.5l49.96-48.449
		c1.848-1.793,4.802-1.75,6.602,0.104C147.401,73.461,147.359,76.414,145.505,78.211z"/>
	<polygon fill="#006837" points="113.043,5.892 116.56,2.375 119.667,23.129 115.429,28.557 	"/>
	<polygon fill="#39B54A" points="194.109,86.959 197.634,83.449 175.918,80.336 171.446,84.573 	"/>
	<polygon fill="#39B54A" points="80.685,173.953 84.732,171.058 87.141,193.929 83.798,197.285 	"/>
</g>
<g>
</g>
<g>
</g>
<g>
</g>
<g>
</g>
<g>
</g>
<g>
</g>
<g>
</g>
<g>
</g>
<g>
</g>
<g>
</g>
<g>
</g>
<g>
</g>
<g>
</g>
<g>
</g>
<g>
</g>
</svg>
